{
.appVersion = "983";
copyright = "Copyright © 2018 by Cadson Demak Co.,Ltd.. All rights reserved.";
customParameters = (
{
name = vendorID;
value = CDK;
},
{
name = description;
value = "Copyright (c) 2018, Cadson Demak (info@cadsondemak.com)";
},
{
name = license;

glyphs = (
{
color = 0;
glyphname = A;
lastChange = "2018-02-05 09:20:32 +0000";
layers = (
{
anchors = (
{
name = bottom;
position = "{351, 0}";
},
{
name = ogonek;
position = "{632, 10}";
},
{
name = top;
position = "{351, 700}";
}
);
background = {
paths = (
{
closed = 1;
nodes = (
"172 194 LINE",
"555 194 LINE",
"555 256 LINE",
"172 256 LINE"
);
},
{
closed = 1;
nodes = (
"391 690 OFFCURVE",
"371 706 OFFCURVE",
"342 706 CURVE SMOOTH",
"318 706 LINE",
"35 0 LINE",
"111 0 LINE",
"351 615 LINE",
"591 0 LINE",
"667 0 LINE",
"405 656 LINE SMOOTH"
);
}
);
};
layerId = "0B1DFD06-3317-40CA-B510-4969A0718C16";
paths = (
{
closed = 1;
nodes = (
"172 194 LINE",
"555 194 LINE",
"555 256 LINE",
"172 256 LINE"
);
},
{
closed = 1;
nodes = (
"390 690 OFFCURVE",
"370 706 OFFCURVE",
"340 706 CURVE SMOOTH",
"318 706 LINE",
"35 0 LINE",
"111 0 LINE",
"350 610 LINE",
"351 610 LINE",
"591 0 LINE",
"667 0 LINE",
"404 656 LINE SMOOTH"
);
}
);
width = 702;
},
{
anchors = (
{
name = bottom;
position = "{351, 0}";
},
{
name = ogonek;
position = "{632, 10}";
},
{
name = top;
position = "{351, 700}";
}
);
background = {
paths = (
{
closed = 1;
nodes = (
"172 194 LINE",
"555 194 LINE",
"555 256 LINE",
"172 256 LINE"
);
},
{
closed = 1;
nodes = (
"391 690 OFFCURVE",
"371 706 OFFCURVE",
"342 706 CURVE SMOOTH",
"318 706 LINE",
"35 0 LINE",
"111 0 LINE",
"351 615 LINE",
"591 0 LINE",
"667 0 LINE",
"405 656 LINE SMOOTH"
);
}
);
};
layerId = "CFC55C35-7F83-4FA6-AE88-8407B7D31CBE";
paths = (
{
closed = 1;
nodes = (
"172 194 LINE",
"555 194 LINE",
"555 256 LINE",
"172 256 LINE"
);
},
{
closed = 1;
nodes = (
"390 690 OFFCURVE",
"370 706 OFFCURVE",
"340 706 CURVE SMOOTH",
"318 706 LINE",
"35 0 LINE",
"111 0 LINE",
"350 610 LINE",
"351 610 LINE",
"591 0 LINE",
"667 0 LINE",
"404 656 LINE SMOOTH"
);
}
);
width = 702;
},
{
anchors = (
{
name = bottom;
position = "{351, 0}";
},
{
name = ogonek;
position = "{632, 10}";
},
{
name = top;
position = "{351, 700}";
}
);
background = {
paths = (
{
closed = 1;
nodes = (
"140 166 LINE",
"587 166 LINE",
"587 284 LINE",
"140 284 LINE"
);
},
{
closed = 1;
nodes = (
"416 710 OFFCURVE",
"383 734 OFFCURVE",
"340 734 CURVE SMOOTH",
"295 734 LINE",
"-10 -28 LINE",
"134 -28 LINE",
"373 582 LINE",
"328 582 LINE",
"568 -28 LINE",
"712 -28 LINE",
"434 666 LINE SMOOTH"
);
}
);
};
layerId = "EA06CE92-4115-4482-8874-2441C279E756";
paths = (
{
closed = 1;
nodes = (
"140 166 LINE",
"577 166 LINE",
"577 284 LINE",
"140 284 LINE"
);
},
{
closed = 1;
nodes = (
"415 685 OFFCURVE",
"384 706 OFFCURVE",
"335 706 CURVE SMOOTH",
"295 706 LINE",
"3 0 LINE",
"145 0 LINE",
"374 574 LINE",
"329 574 LINE",
"557 0 LINE",
"699 0 LINE",
"434 638 LINE SMOOTH"
);
}
);
width = 702;
}
);
note = A;
unicode = 0041;
},
{
color = 0;
glyphname = B;
lastChange = "2018-02-05 09:20:32 +0000";
layers = (
{
anchors = (
{
name = bottom;
position = "{335, 0}";
},
{
name = top;
position = "{335, 700}";
}
);
background = {
paths = (
{
closed = 1;
nodes = (
"427 0 LINE SMOOTH",
"546 0 OFFCURVE",
"625 72 OFFCURVE",
"625 181 CURVE SMOOTH",
"625 229 LINE SMOOTH",
"625 295 OFFCURVE",
"580 349 OFFCURVE",
"513 367 CURVE",
"553 393 OFFCURVE",
"576 441 OFFCURVE",
"576 492 CURVE SMOOTH",
"576 545 LINE SMOOTH",
"576 638 OFFCURVE",
"497 700 OFFCURVE",
"378 700 CURVE SMOOTH",
"75 700 LINE",
"75 65 LINE SMOOTH",
"75 24 OFFCURVE",
"99 0 OFFCURVE",
"140 0 CURVE SMOOTH"
);
},
{
closed = 1;
nodes = (
"144 62 LINE",
"144 323 LINE",
"437 323 LINE SMOOTH",
"507 323 OFFCURVE",
"554 285 OFFCURVE",
"554 229 CURVE SMOOTH",
"554 181 LINE SMOOTH",
"554 108 OFFCURVE",
"499 62 OFFCURVE",
"417 62 CURVE SMOOTH"
);
},
{
closed = 1;
nodes = (
"378 638 LINE SMOOTH",
"455 638 OFFCURVE",
"507 601 OFFCURVE",
"507 545 CURVE SMOOTH",
"507 492 LINE SMOOTH",
"507 425 OFFCURVE",
"463 381 OFFCURVE",
"398 381 CURVE SMOOTH",
"144 381 LINE",
"144 638 LINE"
);
}
);
};
layerId = "0B1DFD06-3317-40CA-B510-4969A0718C16";
paths = (
{
closed = 1;
nodes = (
"427 0 LINE SMOOTH",
"546 0 OFFCURVE",
"625 72 OFFCURVE",
"625 181 CURVE SMOOTH",
"625 229 LINE SMOOTH",
"625 294 OFFCURVE",
"580 349 OFFCURVE",
"513 367 CURVE",
"551 392 OFFCURVE",
"576 442 OFFCURVE",
"576 492 CURVE SMOOTH",
"576 545 LINE SMOOTH",
"576 638 OFFCURVE",
"497 700 OFFCURVE",
"378 700 CURVE SMOOTH",
"75 700 LINE",
"75 65 LINE SMOOTH",
"75 26 OFFCURVE",
"101 0 OFFCURVE",
"140 0 CURVE SMOOTH"
);
},
{
closed = 1;
nodes = (
"149 66 LINE",
"149 321 LINE",
"437 321 LINE SMOOTH",
"505 321 OFFCURVE",
"551 284 OFFCURVE",
"551 229 CURVE SMOOTH",
"551 181 LINE SMOOTH",
"551 112 OFFCURVE",
"497 66 OFFCURVE",
"417 66 CURVE SMOOTH"
);
},
{
closed = 1;
nodes = (
"378 634 LINE SMOOTH",
"452 634 OFFCURVE",
"502 598 OFFCURVE",
"502 545 CURVE SMOOTH",
"502 492 LINE SMOOTH",
"502 427 OFFCURVE",
"460 383 OFFCURVE",
"398 383 CURVE SMOOTH",
"149 383 LINE",
"149 634 LINE"
);
}
);
width = 670;
},
{
anchors = (
{
name = bottom;
position = "{335, 0}";
},
{
name = top;
position = "{335, 700}";
}
);
background = {
paths = (
{
closed = 1;
nodes = (
"427 0 LINE SMOOTH",
"546 0 OFFCURVE",
"625 72 OFFCURVE",
"625 181 CURVE SMOOTH",
"625 229 LINE SMOOTH",
"625 295 OFFCURVE",
"580 349 OFFCURVE",
"513 367 CURVE",
"553 393 OFFCURVE",
"576 441 OFFCURVE",
"576 492 CURVE SMOOTH",
"576 545 LINE SMOOTH",
"576 638 OFFCURVE",
"497 700 OFFCURVE",
"378 700 CURVE SMOOTH",
"75 700 LINE",
"75 65 LINE SMOOTH",
"75 24 OFFCURVE",
"99 0 OFFCURVE",
"140 0 CURVE SMOOTH"
);
},
{
closed = 1;
nodes = (
"144 62 LINE",
"144 323 LINE",
"437 323 LINE SMOOTH",
"507 323 OFFCURVE",
"554 285 OFFCURVE",
"554 229 CURVE SMOOTH",
"554 181 LINE SMOOTH",
"554 108 OFFCURVE",
"499 62 OFFCURVE",
"417 62 CURVE SMOOTH"
);
},
{
closed = 1;
nodes = (
"378 638 LINE SMOOTH",
"455 638 OFFCURVE",
"507 601 OFFCURVE",
"507 545 CURVE SMOOTH",
"507 492 LINE SMOOTH",
"507 425 OFFCURVE",
"463 381 OFFCURVE",
"398 381 CURVE SMOOTH",
"144 381 LINE",
"144 638 LINE"
);
}
);
};
layerId = "CFC55C35-7F83-4FA6-AE88-8407B7D31CBE";
paths = (
{
closed = 1;
nodes = (
"427 0 LINE SMOOTH",
"546 0 OFFCURVE",
"625 72 OFFCURVE",
"625 181 CURVE SMOOTH",
"625 229 LINE SMOOTH",
"625 294 OFFCURVE",
"580 349 OFFCURVE",
"513 367 CURVE",
"551 392 OFFCURVE",
"576 442 OFFCURVE",
"576 492 CURVE SMOOTH",
"576 545 LINE SMOOTH",
"576 638 OFFCURVE",
"497 700 OFFCURVE",
"378 700 CURVE SMOOTH",
"75 700 LINE",
"75 65 LINE SMOOTH",
"75 26 OFFCURVE",
"101 0 OFFCURVE",
"140 0 CURVE SMOOTH"
);
},
{
closed = 1;
nodes = (
"149 66 LINE",
"149 321 LINE",
"437 321 LINE SMOOTH",
"505 321 OFFCURVE",
"551 284 OFFCURVE",
"551 229 CURVE SMOOTH",
"551 181 LINE SMOOTH",
"551 112 OFFCURVE",
"497 66 OFFCURVE",
"417 66 CURVE SMOOTH"
);
},
{
closed = 1;
nodes = (
"378 634 LINE SMOOTH",
"452 634 OFFCURVE",
"502 598 OFFCURVE",
"502 545 CURVE SMOOTH",
"502 492 LINE SMOOTH",
"502 427 OFFCURVE",
"460 383 OFFCURVE",
"398 383 CURVE SMOOTH",
"149 383 LINE",
"149 634 LINE"
);
}
);
width = 670;
},
{
anchors = (
{
name = bottom;
position = "{335, 0}";
},
{
name = top;
position = "{335, 700}";
}
);
background = {
paths = (
{
closed = 1;
nodes = (
"427 0 LINE SMOOTH",
"546 0 OFFCURVE",
"625 72 OFFCURVE",
"625 181 CURVE SMOOTH",
"625 229 LINE SMOOTH",
"625 294 OFFCURVE",
"580 349 OFFCURVE",
"513 367 CURVE",
"551 392 OFFCURVE",
"576 442 OFFCURVE",
"576 492 CURVE SMOOTH",
"576 545 LINE SMOOTH",
"576 638 OFFCURVE",
"497 700 OFFCURVE",
"378 700 CURVE SMOOTH",
"75 700 LINE",
"75 65 LINE SMOOTH",
"75 26 OFFCURVE",
"101 0 OFFCURVE",
"140 0 CURVE SMOOTH"
);
},
{
closed = 1;
nodes = (
"149 66 LINE",
"149 321 LINE",
"437 321 LINE SMOOTH",
"505 321 OFFCURVE",
"551 284 OFFCURVE",
"551 229 CURVE SMOOTH",
"551 181 LINE SMOOTH",
"551 112 OFFCURVE",
"497 66 OFFCURVE",
"417 66 CURVE SMOOTH"
);
},
{
closed = 1;
nodes = (
"378 634 LINE SMOOTH",
"452 634 OFFCURVE",
"502 598 OFFCURVE",
"502 545 CURVE SMOOTH",
"502 492 LINE SMOOTH",
"502 427 OFFCURVE",
"460 383 OFFCURVE",
"398 383 CURVE SMOOTH",
"149 383 LINE",
"149 634 LINE"
);
}
);
};
layerId = "EA06CE92-4115-4482-8874-2441C279E756";
paths = (
{
closed = 1;
nodes = (
"427 1 LINE SMOOTH",
"565 1 OFFCURVE",
"657 83 OFFCURVE",
"657 206 CURVE SMOOTH",
"657 229 LINE SMOOTH",
"657 293 OFFCURVE",
"614 352 OFFCURVE",
"550 376 CURVE",
"585 399 OFFCURVE",
"608 444 OFFCURVE",
"608 488 CURVE SMOOTH",
"608 517 LINE SMOOTH",
"608 627 OFFCURVE",
"516 700 OFFCURVE",
"378 700 CURVE SMOOTH",
"43 700 LINE",
"43 94 LINE SMOOTH",
"43 40 OFFCURVE",
"81 1 OFFCURVE",
"138 1 CURVE SMOOTH"
);
},
{
closed = 1;
nodes = (
"179 121 LINE",
"179 293 LINE",
"437 293 LINE SMOOTH",
"489 293 OFFCURVE",
"519 269 OFFCURVE",
"519 229 CURVE SMOOTH",
"519 206 LINE SMOOTH",
"519 150 OFFCURVE",
"483 121 OFFCURVE",
"419 121 CURVE SMOOTH"
);
},
{
closed = 1;
nodes = (
"378 580 LINE SMOOTH",
"435 580 OFFCURVE",
"470 554 OFFCURVE",
"470 517 CURVE SMOOTH",
"470 488 LINE SMOOTH",
"470 440 OFFCURVE",
"443 411 OFFCURVE",
"398 411 CURVE SMOOTH",
"179 411 LINE",
"179 580 LINE"
);
}
);
width = 670;
}
);
note = B;
unicode = 0042;
},
{
color = 0;
glyphname = C;
lastChange = "2018-02-05 09:20:32 +0000";
layers = (
{
anchors = (
{
name = bottom;
position = "{347, 0}";
},
{
name = top;
position = "{347, 700}";
}
);
background = {
paths = (
{
closed = 1;
nodes = (
"378 -6 LINE SMOOTH",
"528 -6 OFFCURVE",
"630 92 OFFCURVE",
"634 238 CURVE",
"567 238 LINE",
"563 129 OFFCURVE",
"487 56 OFFCURVE",
"378 56 CURVE SMOOTH",
"282 56 LINE SMOOTH",
"190 56 OFFCURVE",
"129 123 OFFCURVE",
"129 223 CURVE SMOOTH",
"129 422 LINE SMOOTH",
"129 555 OFFCURVE",
"208 644 OFFCURVE",
"327 644 CURVE SMOOTH",
"423 644 LINE SMOOTH",
"504 644 OFFCURVE",
"561 579 OFFCURVE",
"565 482 CURVE",
"632 482 LINE",
"628 616 OFFCURVE",
"544 706 OFFCURVE",
"423 706 CURVE SMOOTH",
"327 706 LINE SMOOTH",
"167 706 OFFCURVE",
"60 592 OFFCURVE",
"60 422 CURVE SMOOTH",
"60 223 LINE SMOOTH",
"60 86 OFFCURVE",
"149 -6 OFFCURVE",
"282 -6 CURVE SMOOTH"
);
}
);
};
layerId = "0B1DFD06-3317-40CA-B510-4969A0718C16";
paths = (
{
closed = 1;
nodes = (
"378 -6 LINE SMOOTH",
"528 -6 OFFCURVE",
"630 92 OFFCURVE",
"634 238 CURVE",
"562 238 LINE",
"558 131 OFFCURVE",
"484 60 OFFCURVE",
"378 60 CURVE SMOOTH",
"282 60 LINE SMOOTH",
"193 60 OFFCURVE",
"134 125 OFFCURVE",
"134 223 CURVE SMOOTH",
"134 422 LINE SMOOTH",
"134 553 OFFCURVE",
"211 640 OFFCURVE",
"327 640 CURVE SMOOTH",
"423 640 LINE SMOOTH",
"501 640 OFFCURVE",
"556 577 OFFCURVE",
"560 482 CURVE",
"632 482 LINE",
"628 616 OFFCURVE",
"544 706 OFFCURVE",
"423 706 CURVE SMOOTH",
"327 706 LINE SMOOTH",
"167 706 OFFCURVE",
"60 592 OFFCURVE",
"60 422 CURVE SMOOTH",
"60 223 LINE SMOOTH",
"60 86 OFFCURVE",
"149 -6 OFFCURVE",
"282 -6 CURVE SMOOTH"
);
}
);
width = 694;
},
{
anchors = (
{
name = bottom;
position = "{347, 0}";
},
{
name = top;
position = "{347, 700}";
}
);
background = {
paths = (
{
closed = 1;
nodes = (
"378 -6 LINE SMOOTH",
"528 -6 OFFCURVE",
"630 92 OFFCURVE",
"634 238 CURVE",
"567 238 LINE",
"563 129 OFFCURVE",
"487 56 OFFCURVE",
"378 56 CURVE SMOOTH",
"282 56 LINE SMOOTH",
"190 56 OFFCURVE",
"129 123 OFFCURVE",
"129 223 CURVE SMOOTH",
"129 422 LINE SMOOTH",
"129 555 OFFCURVE",
"208 644 OFFCURVE",
"327 644 CURVE SMOOTH",
"423 644 LINE SMOOTH",
"504 644 OFFCURVE",
"561 579 OFFCURVE",
"565 482 CURVE",
"632 482 LINE",
"628 616 OFFCURVE",
"544 706 OFFCURVE",
"423 706 CURVE SMOOTH",
"327 706 LINE SMOOTH",
"167 706 OFFCURVE",
"60 592 OFFCURVE",
"60 422 CURVE SMOOTH",
"60 223 LINE SMOOTH",
"60 86 OFFCURVE",
"149 -6 OFFCURVE",
"282 -6 CURVE SMOOTH"
);
}
);
};
layerId = "CFC55C35-7F83-4FA6-AE88-8407B7D31CBE";
paths = (
{
closed = 1;
nodes = (
"378 -6 LINE SMOOTH",
"528 -6 OFFCURVE",
"630 92 OFFCURVE",
"634 238 CURVE",
"562 238 LINE",
"558 131 OFFCURVE",
"484 60 OFFCURVE",
"378 60 CURVE SMOOTH",
"282 60 LINE SMOOTH",
"193 60 OFFCURVE",
"134 125 OFFCURVE",
"134 223 CURVE SMOOTH",
"134 422 LINE SMOOTH",
"134 553 OFFCURVE",
"211 640 OFFCURVE",
"327 640 CURVE SMOOTH",
"423 640 LINE SMOOTH",
"501 640 OFFCURVE",
"556 577 OFFCURVE",
"560 482 CURVE",
"632 482 LINE",
"628 616 OFFCURVE",
"544 706 OFFCURVE",
"423 706 CURVE SMOOTH",
"327 706 LINE SMOOTH",
"167 706 OFFCURVE",
"60 592 OFFCURVE",
"60 422 CURVE SMOOTH",
"60 223 LINE SMOOTH",
"60 86 OFFCURVE",
"149 -6 OFFCURVE",
"282 -6 CURVE SMOOTH"
);
}
);
width = 694;
},
{
anchors = (
{
name = bottom;
position = "{347, 0}";
},
{
name = top;
position = "{347, 700}";
}
);
background = {
paths = (
{
closed = 1;
nodes = (
"378 -5 LINE SMOOTH",
"555 -5 OFFCURVE",
"675 118 OFFCURVE",
"666 295 CURVE",
"529 295 LINE",
"538 188 OFFCURVE",
"475 117 OFFCURVE",
"378 117 CURVE SMOOTH",
"282 117 LINE SMOOTH",
"211 117 OFFCURVE",
"166 169 OFFCURVE",
"166 252 CURVE SMOOTH",
"166 394 LINE SMOOTH",
"166 510 OFFCURVE",
"230 584 OFFCURVE",
"327 584 CURVE SMOOTH",
"423 584 LINE SMOOTH",
"489 584 OFFCURVE",
"534 521 OFFCURVE",
"528 426 CURVE",
"664 426 LINE",
"672 590 OFFCURVE",
"570 706 OFFCURVE",
"423 706 CURVE SMOOTH",
"327 706 LINE SMOOTH",
"150 706 OFFCURVE",
"28 580 OFFCURVE",
"28 394 CURVE SMOOTH",
"28 252 LINE SMOOTH",
"28 100 OFFCURVE",
"131 -5 OFFCURVE",
"282 -5 CURVE SMOOTH"
);
}
);
};
layerId = "EA06CE92-4115-4482-8874-2441C279E756";
paths = (
{
closed = 1;
nodes = (
"378 -5 LINE SMOOTH",
"551 -5 OFFCURVE",
"666 111 OFFCURVE",
"666 285 CURVE",
"529 285 LINE",
"529 184 OFFCURVE",
"469 117 OFFCURVE",
"378 117 CURVE SMOOTH",
"282 117 LINE SMOOTH",
"212 117 OFFCURVE",
"166 171 OFFCURVE",
"166 252 CURVE SMOOTH",
"166 394 LINE SMOOTH",
"166 508 OFFCURVE",
"230 584 OFFCURVE",
"327 584 CURVE SMOOTH",
"423 584 LINE SMOOTH",
"486 584 OFFCURVE",
"528 525 OFFCURVE",
"528 436 CURVE",
"664 436 LINE",
"664 598 OFFCURVE",
"568 706 OFFCURVE",
"423 706 CURVE SMOOTH",
"327 706 LINE SMOOTH",
"148 706 OFFCURVE",
"28 581 OFFCURVE",
"28 394 CURVE SMOOTH",
"28 252 LINE SMOOTH",
"28 98 OFFCURVE",
"130 -5 OFFCURVE",
"282 -5 CURVE SMOOTH"
);
}
);
width = 694;
}
);
note = C;
unicode = 0043;
},
{
color = 0;
glyphname = D;
lastChange = "2018-02-05 09:20:32 +0000";
layers = (
{
anchors = (
{
name = bottom;
position = "{342, 0}";
},
{
name = center;
position = "{342, 350}";
},
{
name = top;
position = "{342, 700}";
}
);
layerId = "0B1DFD06-3317-40CA-B510-4969A0718C16";
paths = (
{
closed = 1;
nodes = (
"376 0 LINE SMOOTH",
"532 0 OFFCURVE",
"624 100 OFFCURVE",
"624 270 CURVE SMOOTH",
"624 470 LINE SMOOTH",
"624 608 OFFCURVE",
"524 700 OFFCURVE",
"374 700 CURVE SMOOTH",
"75 700 LINE",
"75 65 LINE SMOOTH",
"75 24 OFFCURVE",
"99 0 OFFCURVE",
"140 0 CURVE SMOOTH"
);
},
{
closed = 1;
nodes = (
"149 634 LINE",
"374 634 LINE SMOOTH",
"480 634 OFFCURVE",
"550 568 OFFCURVE",
"550 470 CURVE SMOOTH",
"550 270 LINE SMOOTH",
"550 142 OFFCURVE",
"485 66 OFFCURVE",
"376 66 CURVE SMOOTH",
"149 66 LINE"
);
}
);
width = 684;
},
{
anchors = (
{
name = bottom;
position = "{342, 0}";
},
{
name = center;
position = "{342, 350}";
},
{
name = top;
position = "{342, 700}";
}
);
layerId = "CFC55C35-7F83-4FA6-AE88-8407B7D31CBE";
paths = (
{
closed = 1;
nodes = (
"376 0 LINE SMOOTH",
"532 0 OFFCURVE",
"624 100 OFFCURVE",
"624 270 CURVE SMOOTH",
"624 470 LINE SMOOTH",
"624 608 OFFCURVE",
"524 700 OFFCURVE",
"374 700 CURVE SMOOTH",
"75 700 LINE",
"75 65 LINE SMOOTH",
"75 24 OFFCURVE",
"99 0 OFFCURVE",
"140 0 CURVE SMOOTH"
);
},
{
closed = 1;
nodes = (
"149 634 LINE",
"374 634 LINE SMOOTH",
"480 634 OFFCURVE",
"550 568 OFFCURVE",
"550 470 CURVE SMOOTH",
"550 270 LINE SMOOTH",
"550 142 OFFCURVE",
"485 66 OFFCURVE",
"376 66 CURVE SMOOTH",
"149 66 LINE"
);
}
);
width = 684;
},
{
anchors = (
{
name = bottom;
position = "{342, 0}";
},
{
name = center;
position = "{342, 350}";
},
{
name = top;
position = "{342, 700}";
}
);
background = {
paths = (
{
closed = 1;
nodes = (
"376 0 LINE SMOOTH",
"532 0 OFFCURVE",
"624 100 OFFCURVE",
"624 270 CURVE SMOOTH",
"624 470 LINE SMOOTH",
"624 608 OFFCURVE",
"524 700 OFFCURVE",
"374 700 CURVE SMOOTH",
"75 700 LINE",
"75 65 LINE SMOOTH",
"75 24 OFFCURVE",
"99 0 OFFCURVE",
"140 0 CURVE SMOOTH"
);
},
{
closed = 1;
nodes = (
"149 634 LINE",
"374 634 LINE SMOOTH",
"480 634 OFFCURVE",
"550 568 OFFCURVE",
"550 470 CURVE SMOOTH",
"550 270 LINE SMOOTH",
"550 142 OFFCURVE",
"485 66 OFFCURVE",
"376 66 CURVE SMOOTH",
"149 66 LINE"
);
}
);
};
layerId = "EA06CE92-4115-4482-8874-2441C279E756";
paths = (
{
closed = 1;
nodes = (
"376 0 LINE SMOOTH",
"552 0 OFFCURVE",
"656 111 OFFCURVE",
"656 298 CURVE SMOOTH",
"656 442 LINE SMOOTH",
"656 597 OFFCURVE",
"543 700 OFFCURVE",
"374 700 CURVE SMOOTH",
"43 700 LINE",
"43 93 LINE SMOOTH",
"43 37 OFFCURVE",
"81 0 OFFCURVE",
"140 0 CURVE SMOOTH"
);
},
{
closed = 1;
nodes = (
"181 578 LINE",
"374 578 LINE SMOOTH",
"460 578 OFFCURVE",
"518 524 OFFCURVE",
"518 442 CURVE SMOOTH",
"518 298 LINE SMOOTH",
"518 187 OFFCURVE",
"465 122 OFFCURVE",
"376 122 CURVE SMOOTH",
"181 122 LINE"
);
}
);
width = 684;
}
);
note = D;
unicode = 0044;
},
{
color = 0;
glyphname = E;
lastChange = "2018-02-05 09:20:32 +0000";
layers = (
{
anchors = (
{
name = bottom;
position = "{300, 0}";
},
{
name = ogonek;
position = "{540, 10}";
},
{
name = top;
position = "{323, 700}";
},
{
name = topleft;
position = "{20, 700}";
}
);
background = {
paths = (
{
closed = 1;
nodes = (
"75 700 LINE",
"555 700 LINE",
"555 638 LINE",
"144 638 LINE",
"144 389 LINE",
"515 389 LINE",
"515 328 LINE",
"144 328 LINE",
"144 62 LINE",
"555 62 LINE",
"555 0 LINE",
"140 0 LINE SMOOTH",
"99 0 OFFCURVE",
"75 25 OFFCURVE",
"75 66 CURVE SMOOTH"
);
}
);
};
layerId = "0B1DFD06-3317-40CA-B510-4969A0718C16";
paths = (
{
closed = 1;
nodes = (
"555 0 LINE",
"555 64 LINE",
"149 64 LINE",
"149 326 LINE",
"515 326 LINE",
"515 390 LINE",
"149 390 LINE",
"149 636 LINE",
"555 636 LINE",
"555 700 LINE",
"75 700 LINE",
"75 66 LINE SMOOTH",
"75 25 OFFCURVE",
"99 0 OFFCURVE",
"140 0 CURVE SMOOTH"
);
}
);
width = 600;
},
{
anchors = (
{
name = bottom;
position = "{300, 0}";
},
{
name = ogonek;
position = "{540, 10}";
},
{
name = top;
position = "{323, 700}";
},
{
name = topleft;
position = "{20, 700}";
}
);
background = {
paths = (
{
closed = 1;
nodes = (
"75 700 LINE",
"555 700 LINE",
"555 638 LINE",
"144 638 LINE",
"144 389 LINE",
"515 389 LINE",
"515 328 LINE",
"144 328 LINE",
"144 62 LINE",
"555 62 LINE",
"555 0 LINE",
"140 0 LINE SMOOTH",
"99 0 OFFCURVE",
"75 25 OFFCURVE",
"75 66 CURVE SMOOTH"
);
}
);
};
layerId = "CFC55C35-7F83-4FA6-AE88-8407B7D31CBE";
paths = (
{
closed = 1;
nodes = (
"555 0 LINE",
"555 64 LINE",
"149 64 LINE",
"149 326 LINE",
"515 326 LINE",
"515 390 LINE",
"149 390 LINE",
"149 636 LINE",
"555 636 LINE",
"555 700 LINE",
"75 700 LINE",
"75 66 LINE SMOOTH",
"75 25 OFFCURVE",
"99 0 OFFCURVE",
"140 0 CURVE SMOOTH"
);
}
);
width = 600;
},
{
anchors = (
{
name = bottom;
position = "{300, 0}";
},
{
name = ogonek;
position = "{540, 10}";
},
{
name = top;
position = "{323, 700}";
},
{
name = topleft;
position = "{20, 700}";
}
);
background = {
paths = (
{
closed = 1;
nodes = (
"75 700 LINE",
"555 700 LINE",
"555 636 LINE",
"149 636 LINE",
"149 390 LINE",
"515 390 LINE",
"515 326 LINE",
"149 326 LINE",
"149 64 LINE",
"555 64 LINE",
"555 0 LINE",
"140 0 LINE SMOOTH",
"99 0 OFFCURVE",
"75 25 OFFCURVE",
"75 66 CURVE SMOOTH"
);
}
);
};
layerId = "EA06CE92-4115-4482-8874-2441C279E756";
paths = (
{
closed = 1;
nodes = (
"587 0 LINE",
"587 120 LINE",
"181 120 LINE",
"181 298 LINE",
"547 298 LINE",
"547 418 LINE",
"181 418 LINE",
"181 580 LINE",
"587 580 LINE",
"587 700 LINE",
"43 700 LINE",
"43 94 LINE SMOOTH",
"43 37 OFFCURVE",
"82 0 OFFCURVE",
"140 0 CURVE SMOOTH"
);
}
);
width = 600;
}
);
note = E;
unicode = 0045;
},
{
color = 0;
glyphname = F;
lastChange = "2018-02-05 09:20:32 +0000";
layers = (
{
anchors = (
{
name = bottom;
position = "{288, 0}";
},
{
name = top;
position = "{288, 700}";
}
);
layerId = "0B1DFD06-3317-40CA-B510-4969A0718C16";
paths = (
{
closed = 1;
nodes = (
"503 312 LINE",
"503 378 LINE",
"149 378 LINE",
"149 634 LINE",
"540 634 LINE",
"540 700 LINE",
"75 700 LINE",
"75 0 LINE",
"149 0 LINE",
"149 312 LINE"
);
}
);
width = 575;
},
{
anchors = (
{
name = bottom;
position = "{288, 0}";
},
{
name = top;
position = "{288, 700}";
}
);
layerId = "CFC55C35-7F83-4FA6-AE88-8407B7D31CBE";
paths = (
{
closed = 1;
nodes = (
"503 312 LINE",
"503 378 LINE",
"149 378 LINE",
"149 634 LINE",
"540 634 LINE",
"540 700 LINE",
"75 700 LINE",
"75 0 LINE",
"149 0 LINE",
"149 312 LINE"
);
}
);
width = 575;
},
{
anchors = (
{
name = bottom;
position = "{288, 0}";
},
{
name = top;
position = "{288, 700}";
}
);
background = {
paths = (
{
closed = 1;
nodes = (
"535 284 LINE",
"535 406 LINE",
"181 406 LINE",
"181 606 LINE",
"572 606 LINE",
"572 728 LINE",
"43 728 LINE",
"43 -28 LINE",
"181 -28 LINE",
"181 284 LINE"
);
}
);
};
layerId = "EA06CE92-4115-4482-8874-2441C279E756";
paths = (
{
closed = 1;
nodes = (
"535 256 LINE",
"535 378 LINE",
"181 378 LINE",
"181 578 LINE",
"572 578 LINE",
"572 700 LINE",
"43 700 LINE",
"43 0 LINE",
"181 0 LINE",
"181 256 LINE"
);
}
);
width = 575;
}
);
note = F;
unicode = 0046;
},
{
color = 0;
glyphname = G;
lastChange = "2018-02-05 09:20:32 +0000";
layers = (
{
anchors = (
{
name = bottom;
position = "{335, 0}";
},
{
name = top;
position = "{335, 700}";
}
);
background = {
paths = (
{
closed = 1;
nodes = (
"368 -6 LINE SMOOTH",
"518 -6 OFFCURVE",
"620 92 OFFCURVE",
"624 238 CURVE",
"624 304 LINE",
"557 304 LINE",
"557 238 LINE",
"553 129 OFFCURVE",
"477 56 OFFCURVE",
"368 56 CURVE SMOOTH",
"272 56 LINE SMOOTH",
"181 56 OFFCURVE",
"119 123 OFFCURVE",
"119 223 CURVE SMOOTH",
"119 422 LINE SMOOTH",
"119 555 OFFCURVE",
"199 644 OFFCURVE",
"317 644 CURVE SMOOTH",
"413 644 LINE SMOOTH",
"494 644 OFFCURVE",
"551 579 OFFCURVE",
"555 482 CURVE",
"622 482 LINE",
"618 616 OFFCURVE",
"534 706 OFFCURVE",
"413 706 CURVE SMOOTH",
"317 706 LINE SMOOTH",
"158 706 OFFCURVE",
"50 592 OFFCURVE",
"50 422 CURVE SMOOTH",
"50 223 LINE SMOOTH",
"50 86 OFFCURVE",
"140 -6 OFFCURVE",
"272 -6 CURVE SMOOTH"
);
},
{
closed = 1;
nodes = (
"360 294 LINE",
"624 294 LINE",
"624 356 LINE",
"360 356 LINE"
);
}
);
};
layerId = "0B1DFD06-3317-40CA-B510-4969A0718C16";
paths = (
{
closed = 1;
nodes = (
"368 -6 LINE SMOOTH",
"518 -6 OFFCURVE",
"620 92 OFFCURVE",
"624 238 CURVE",
"624 304 LINE",
"552 304 LINE",
"552 238 LINE",
"548 131 OFFCURVE",
"474 60 OFFCURVE",
"368 60 CURVE SMOOTH",
"272 60 LINE SMOOTH",
"183 60 OFFCURVE",
"124 125 OFFCURVE",
"124 223 CURVE SMOOTH",
"124 422 LINE SMOOTH",
"124 553 OFFCURVE",
"201 640 OFFCURVE",
"317 640 CURVE SMOOTH",
"413 640 LINE SMOOTH",
"494 640 OFFCURVE",
"551 577 OFFCURVE",
"555 482 CURVE",
"622 482 LINE",
"618 616 OFFCURVE",
"534 706 OFFCURVE",
"413 706 CURVE SMOOTH",
"317 706 LINE SMOOTH",
"157 706 OFFCURVE",
"50 592 OFFCURVE",
"50 422 CURVE SMOOTH",
"50 223 LINE SMOOTH",
"50 86 OFFCURVE",
"139 -6 OFFCURVE",
"272 -6 CURVE SMOOTH"
);
},
{
closed = 1;
nodes = (
"624 292 LINE",
"624 356 LINE",
"360 356 LINE",
"360 292 LINE"
);
}
);
width = 674;
},
{
anchors = (
{
name = bottom;
position = "{335, 0}";
},
{
name = top;
position = "{335, 700}";
}
);
background = {
paths = (
{
closed = 1;
nodes = (
"368 -6 LINE SMOOTH",
"518 -6 OFFCURVE",
"620 92 OFFCURVE",
"624 238 CURVE",
"624 304 LINE",
"557 304 LINE",
"557 238 LINE",
"553 129 OFFCURVE",
"477 56 OFFCURVE",
"368 56 CURVE SMOOTH",
"272 56 LINE SMOOTH",
"181 56 OFFCURVE",
"119 123 OFFCURVE",
"119 223 CURVE SMOOTH",
"119 422 LINE SMOOTH",
"119 555 OFFCURVE",
"199 644 OFFCURVE",
"317 644 CURVE SMOOTH",
"413 644 LINE SMOOTH",
"494 644 OFFCURVE",
"551 579 OFFCURVE",
"555 482 CURVE",
"622 482 LINE",
"618 616 OFFCURVE",
"534 706 OFFCURVE",
"413 706 CURVE SMOOTH",
"317 706 LINE SMOOTH",
"158 706 OFFCURVE",
"50 592 OFFCURVE",
"50 422 CURVE SMOOTH",
"50 223 LINE SMOOTH",
"50 86 OFFCURVE",
"140 -6 OFFCURVE",
"272 -6 CURVE SMOOTH"
);
},
{
closed = 1;
nodes = (
"360 294 LINE",
"624 294 LINE",
"624 356 LINE",
"360 356 LINE"
);
}
);
};
layerId = "CFC55C35-7F83-4FA6-AE88-8407B7D31CBE";
paths = (
{
closed = 1;
nodes = (
"368 -6 LINE SMOOTH",
"518 -6 OFFCURVE",
"620 92 OFFCURVE",
"624 238 CURVE",
"624 304 LINE",
"552 304 LINE",
"552 238 LINE",
"548 131 OFFCURVE",
"474 60 OFFCURVE",
"368 60 CURVE SMOOTH",
"272 60 LINE SMOOTH",
"183 60 OFFCURVE",
"124 125 OFFCURVE",
"124 223 CURVE SMOOTH",
"124 422 LINE SMOOTH",
"124 553 OFFCURVE",
"201 640 OFFCURVE",
"317 640 CURVE SMOOTH",
"413 640 LINE SMOOTH",
"494 640 OFFCURVE",
"551 577 OFFCURVE",
"555 482 CURVE",
"622 482 LINE",
"618 616 OFFCURVE",
"534 706 OFFCURVE",
"413 706 CURVE SMOOTH",
"317 706 LINE SMOOTH",
"157 706 OFFCURVE",
"50 592 OFFCURVE",
"50 422 CURVE SMOOTH",
"50 223 LINE SMOOTH",
"50 86 OFFCURVE",
"139 -6 OFFCURVE",
"272 -6 CURVE SMOOTH"
);
},
{
closed = 1;
nodes = (
"624 292 LINE",
"624 356 LINE",
"360 356 LINE",
"360 292 LINE"
);
}
);
width = 674;
},
{
anchors = (
{
name = bottom;
position = "{335, 0}";
},
{
name = top;
position = "{335, 700}";
}
);
background = {
paths = (
{
closed = 1;
nodes = (
"368 -5 LINE SMOOTH",
"535 -5 OFFCURVE",
"656 105 OFFCURVE",
"656 266 CURVE SMOOTH",
"656 332 LINE",
"520 332 LINE",
"520 267 LINE",
"516 176 OFFCURVE",
"457 117 OFFCURVE",
"368 117 CURVE SMOOTH",
"272 117 LINE SMOOTH",
"201 117 OFFCURVE",
"156 169 OFFCURVE",
"156 252 CURVE SMOOTH",
"156 393 LINE SMOOTH",
"156 509 OFFCURVE",
"220 584 OFFCURVE",
"317 584 CURVE SMOOTH",
"413 584 LINE SMOOTH",
"479 584 OFFCURVE",
"523 525 OFFCURVE",
"523 436 CURVE",
"654 436 LINE",
"654 598 OFFCURVE",
"558 706 OFFCURVE",
"413 706 CURVE SMOOTH",
"317 706 LINE SMOOTH",
"140 706 OFFCURVE",
"18 579 OFFCURVE",
"18 393 CURVE SMOOTH",
"18 252 LINE SMOOTH",
"18 100 OFFCURVE",
"121 -5 OFFCURVE",
"272 -5 CURVE SMOOTH"
);
},
{
closed = 1;
nodes = (
"328 268 LINE",
"656 268 LINE",
"656 390 LINE",
"328 390 LINE"
);
}
);
};
layerId = "EA06CE92-4115-4482-8874-2441C279E756";
paths = (
{
closed = 1;
nodes = (
"368 -5 LINE SMOOTH",
"537 -5 OFFCURVE",
"656 110 OFFCURVE",
"656 258 CURVE SMOOTH",
"656 324 LINE",
"520 324 LINE",
"520 259 LINE",
"516 170 OFFCURVE",
"460 117 OFFCURVE",
"368 117 CURVE SMOOTH",
"272 117 LINE SMOOTH",
"201 117 OFFCURVE",
"156 169 OFFCURVE",
"156 252 CURVE SMOOTH",
"156 394 LINE SMOOTH",
"156 508 OFFCURVE",
"220 584 OFFCURVE",
"317 584 CURVE SMOOTH",
"413 584 LINE SMOOTH",
"476 584 OFFCURVE",
"518 525 OFFCURVE",
"518 436 CURVE",
"654 436 LINE",
"654 598 OFFCURVE",
"558 706 OFFCURVE",
"413 706 CURVE SMOOTH",
"317 706 LINE SMOOTH",
"138 706 OFFCURVE",
"18 581 OFFCURVE",
"18 394 CURVE SMOOTH",
"18 252 LINE SMOOTH",
"18 100 OFFCURVE",
"121 -5 OFFCURVE",
"272 -5 CURVE SMOOTH"
);
},
{
closed = 1;
nodes = (
"656 258 LINE",
"656 380 LINE",
"336 380 LINE",
"336 258 LINE"
);
}
);
width = 674;
}
);
note = G;
unicode = 0047;
},
{
color = 0;
glyphname = H;
lastChange = "2018-02-05 09:20:32 +0000";
layers = (
{
anchors = (
{
name = bottom;
position = "{340, 0}";
},
{
name = center;
position = "{340, 350}";
},
{
name = top;
position = "{340, 700}";
},
{
name = topleft;
position = "{20, 700}";
}
);
layerId = "0B1DFD06-3317-40CA-B510-4969A0718C16";
paths = (
{
closed = 1;
nodes = (
"531 0 LINE",
"605 0 LINE",
"605 700 LINE",
"531 700 LINE",
"531 394 LINE",
"149 394 LINE",
"149 700 LINE",
"75 700 LINE",
"75 0 LINE",
"149 0 LINE",
"149 328 LINE",
"531 328 LINE"
);
}
);
width = 680;
},
{
anchors = (
{
name = bottom;
position = "{340, 0}";
},
{
name = center;
position = "{340, 350}";
},
{
name = top;
position = "{340, 700}";
},
{
name = topleft;
position = "{20, 700}";
}
);
layerId = "CFC55C35-7F83-4FA6-AE88-8407B7D31CBE";
paths = (
{
closed = 1;
nodes = (
"531 0 LINE",
"605 0 LINE",
"605 700 LINE",
"531 700 LINE",
"531 394 LINE",
"149 394 LINE",
"149 700 LINE",
"75 700 LINE",
"75 0 LINE",
"149 0 LINE",
"149 328 LINE",
"531 328 LINE"
);
}
);
width = 680;
},
{
anchors = (
{
name = bottom;
position = "{340, 0}";
},
{
name = center;
position = "{340, 350}";
},
{
name = top;
position = "{340, 700}";
},
{
name = topleft;
position = "{20, 700}";
}
);
background = {
paths = (
{
closed = 1;
nodes = (
"531 0 LINE",
"605 0 LINE",
"605 700 LINE",
"531 700 LINE",
"531 394 LINE",
"149 394 LINE",
"149 700 LINE",
"75 700 LINE",
"75 0 LINE",
"149 0 LINE",
"149 328 LINE",
"531 328 LINE"
);
}
);
};
layerId = "EA06CE92-4115-4482-8874-2441C279E756";
paths = (
{
closed = 1;
nodes = (
"499 0 LINE",
"637 0 LINE",
"637 700 LINE",
"499 700 LINE",
"499 422 LINE",
"181 422 LINE",
"181 700 LINE",
"43 700 LINE",
"43 0 LINE",
"181 0 LINE",
"181 300 LINE",
"499 300 LINE"
);
}
);
width = 680;
}
);
note = H;
unicode = 0048;
},
{
color = 0;
glyphname = I;
lastChange = "2018-02-05 09:20:32 +0000";
layers = (
{
anchors = (
{
name = bottom;
position = "{115, 0}";
},
{
name = ogonek;
position = "{206, 10}";
},
{
name = top;
position = "{115, 700}";
},
{
name = topleft;
position = "{20, 700}";
}
);
layerId = "0B1DFD06-3317-40CA-B510-4969A0718C16";
paths = (
{
closed = 1;
nodes = (
"75 0 LINE",
"149 0 LINE",
"149 700 LINE",
"75 700 LINE"
);
}
);
width = 229;
},
{
anchors = (
{
name = bottom;
position = "{115, 0}";
},
{
name = ogonek;
position = "{206, 10}";
},
{
name = top;
position = "{115, 700}";
},
{
name = topleft;
position = "{20, 700}";
}
);
layerId = "CFC55C35-7F83-4FA6-AE88-8407B7D31CBE";
paths = (
{
closed = 1;
nodes = (
"75 0 LINE",
"149 0 LINE",
"149 700 LINE",
"75 700 LINE"
);
}
);
width = 229;
},
{
anchors = (
{
name = bottom;
position = "{115, 0}";
},
{
name = ogonek;
position = "{206, 10}";
},
{
name = top;
position = "{115, 700}";
},
{
name = topleft;
position = "{20, 700}";
}
);
layerId = "EA06CE92-4115-4482-8874-2441C279E756";
paths = (
{
closed = 1;
nodes = (
"43 0 LINE",
"181 0 LINE",
"181 700 LINE",
"43 700 LINE"
);
}
);
width = 229;
}
);
note = I;
unicode = 0049;
},
{
color = 0;
glyphname = J;
lastChange = "2018-02-05 09:20:32 +0000";
layers = (
{
anchors = (
{
name = bottom;
position = "{303, 0}";
},
{
name = top;
position = "{303, 700}";
}
);
background = {
paths = (
{
closed = 1;
nodes = (
"45 86 OFFCURVE",
"131 -6 OFFCURVE",
"255 -6 CURVE SMOOTH",
"306 -6 LINE SMOOTH",
"461 -6 OFFCURVE",
"546 96 OFFCURVE",
"546 249 CURVE SMOOTH",
"546 700 LINE",
"477 700 LINE",
"477 249 LINE SMOOTH",
"477 133 OFFCURVE",
"421 56 OFFCURVE",
"306 56 CURVE SMOOTH",
"255 56 LINE SMOOTH",
"166 56 OFFCURVE",
"113 118 OFFCURVE",
"103 223 CURVE",
"34 223 LINE"
);
}
);
};
layerId = "0B1DFD06-3317-40CA-B510-4969A0718C16";
paths = (
{
closed = 1;
nodes = (
"46 79 OFFCURVE",
"128 -6 OFFCURVE",
"255 -6 CURVE SMOOTH",
"306 -6 LINE SMOOTH",
"457 -6 OFFCURVE",
"546 89 OFFCURVE",
"546 249 CURVE SMOOTH",
"546 700 LINE",
"472 700 LINE",
"472 249 LINE SMOOTH",
"472 130 OFFCURVE",
"410 60 OFFCURVE",
"306 60 CURVE SMOOTH",
"255 60 LINE SMOOTH",
"172 60 OFFCURVE",
"118 121 OFFCURVE",
"108 223 CURVE",
"34 223 LINE"
);
}
);
width = 606;
},
{
anchors = (
{
name = bottom;
position = "{303, 0}";
},
{
name = top;
position = "{303, 700}";
}
);
background = {
paths = (
{
closed = 1;
nodes = (
"45 86 OFFCURVE",
"131 -6 OFFCURVE",
"255 -6 CURVE SMOOTH",
"306 -6 LINE SMOOTH",
"461 -6 OFFCURVE",
"546 96 OFFCURVE",
"546 249 CURVE SMOOTH",
"546 700 LINE",
"477 700 LINE",
"477 249 LINE SMOOTH",
"477 133 OFFCURVE",
"421 56 OFFCURVE",
"306 56 CURVE SMOOTH",
"255 56 LINE SMOOTH",
"166 56 OFFCURVE",
"113 118 OFFCURVE",
"103 223 CURVE",
"34 223 LINE"
);
}
);
};
layerId = "CFC55C35-7F83-4FA6-AE88-8407B7D31CBE";
paths = (
{
closed = 1;
nodes = (
"46 79 OFFCURVE",
"128 -6 OFFCURVE",
"255 -6 CURVE SMOOTH",
"306 -6 LINE SMOOTH",
"457 -6 OFFCURVE",
"546 89 OFFCURVE",
"546 249 CURVE SMOOTH",
"546 700 LINE",
"472 700 LINE",
"472 249 LINE SMOOTH",
"472 130 OFFCURVE",
"410 60 OFFCURVE",
"306 60 CURVE SMOOTH",
"255 60 LINE SMOOTH",
"172 60 OFFCURVE",
"118 121 OFFCURVE",
"108 223 CURVE",
"34 223 LINE"
);
}
);
width = 606;
},
{
anchors = (
{
name = bottom;
position = "{303, 0}";
},
{
name = top;
position = "{303, 700}";
}
);
background = {
paths = (
{
closed = 1;
nodes = (
"4 109 OFFCURVE",
"102 0 OFFCURVE",
"255 0 CURVE SMOOTH",
"306 0 LINE SMOOTH",
"475 0 OFFCURVE",
"578 107 OFFCURVE",
"578 283 CURVE SMOOTH",
"578 700 LINE",
"440 700 LINE",
"440 283 LINE SMOOTH",
"440 179 OFFCURVE",
"392 122 OFFCURVE",
"306 122 CURVE SMOOTH",
"255 122 LINE SMOOTH",
"185 122 OFFCURVE",
"141 180 OFFCURVE",
"138 285 CURVE",
"1 285 LINE"
);
}
);
};
layerId = "EA06CE92-4115-4482-8874-2441C279E756";
paths = (
{
closed = 1;
nodes = (
"4 110 OFFCURVE",
"106 0 OFFCURVE",
"255 0 CURVE SMOOTH",
"306 0 LINE SMOOTH",
"477 0 OFFCURVE",
"578 105 OFFCURVE",
"578 283 CURVE SMOOTH",
"578 700 LINE",
"440 700 LINE",
"440 283 LINE SMOOTH",
"440 182 OFFCURVE",
"390 122 OFFCURVE",
"306 122 CURVE SMOOTH",
"255 122 LINE SMOOTH",
"188 122 OFFCURVE",
"142 183 OFFCURVE",
"139 275 CURVE",
"1 275 LINE"
);
}
);
width = 606;
}
);
note = J;
unicode = 004A;
},
{
color = 0;
glyphname = K;
lastChange = "2018-02-05 09:20:32 +0000";
layers = (
{
anchors = (
{
name = bottom;
position = "{326, 0}";
},
{
name = top;
position = "{326, 700}";
}
);
background = {
paths = (
{
closed = 1;
nodes = (
"583 0 LINE",
"468 269 LINE SMOOTH",
"442 329 OFFCURVE",
"387 369 OFFCURVE",
"209 369 CURVE",
"583 700 LINE",
"483 700 LINE",
"144 394 LINE",
"144 700 LINE",
"75 700 LINE",
"75 0 LINE",
"144 0 LINE",
"144 324 LINE",
"278 324 OFFCURVE",
"359 319 OFFCURVE",
"382 262 CURVE SMOOTH",
"490 0 LINE"
);
}
);
};
layerId = "0B1DFD06-3317-40CA-B510-4969A0718C16";
paths = (
{
closed = 1;
nodes = (
"622 0 LINE",
"316 353 LINE",
"600 700 LINE",
"511 700 LINE",
"251 383 LINE",
"149 383 LINE",
"149 700 LINE",
"75 700 LINE",
"75 0 LINE",
"149 0 LINE",
"149 321 LINE",
"251 321 LINE",
"528 0 LINE"
);
}
);
width = 652;
},
{
anchors = (
{
name = bottom;
position = "{326, 0}";
},
{
name = top;
position = "{326, 700}";
}
);
background = {
paths = (
{
closed = 1;
nodes = (
"622 0 LINE",
"316 353 LINE",
"600 700 LINE",
"511 700 LINE",
"251 383 LINE",
"149 383 LINE",
"149 700 LINE",
"75 700 LINE",
"75 0 LINE",
"149 0 LINE",
"149 321 LINE",
"251 321 LINE",
"528 0 LINE"
);
}
);
};
layerId = "CFC55C35-7F83-4FA6-AE88-8407B7D31CBE";
paths = (
{
closed = 1;
nodes = (
"622 0 LINE",
"316 353 LINE",
"600 700 LINE",
"511 700 LINE",
"253 385 LINE",
"149 385 LINE",
"149 700 LINE",
"75 700 LINE",
"75 0 LINE",
"149 0 LINE",
"149 319 LINE",
"253 319 LINE",
"528 0 LINE"
);
}
);
width = 652;
},
{
anchors = (
{
name = bottom;
position = "{326, 0}";
},
{
name = top;
position = "{326, 700}";
}
);
background = {
paths = (
{
closed = 1;
nodes = (
"662 0 LINE",
"378 353 LINE",
"639 700 LINE",
"472 700 LINE",
"257 411 LINE",
"181 411 LINE",
"181 700 LINE",
"43 700 LINE",
"43 0 LINE",
"181 0 LINE",
"181 293 LINE",
"257 293 LINE",
"488 0 LINE"
);
}
);
};
layerId = "EA06CE92-4115-4482-8874-2441C279E756";
paths = (
{
closed = 1;
nodes = (
"662 0 LINE",
"385 353 LINE",
"639 700 LINE",
"472 700 LINE",
"265 413 LINE",
"181 413 LINE",
"181 700 LINE",
"43 700 LINE",
"43 0 LINE",
"181 0 LINE",
"181 291 LINE",
"266 291 LINE",
"488 0 LINE"
);
}
);
width = 652;
}
);
note = K;
unicode = 004B;
},
{
color = 0;
glyphname = L;
lastChange = "2018-02-05 09:20:32 +0000";
layers = (
{
anchors = (
{
name = bottom;
position = "{277, 0}";
},
{
name = center;
position = "{277, 350}";
},
{
name = top;
position = "{277, 700}";
},
{
name = topright;
position = "{533, 700}";
}
);
background = {
paths = (
{
closed = 1;
nodes = (
"77 65 LINE SMOOTH",
"77 24 OFFCURVE",
"101 0 OFFCURVE",
"142 0 CURVE SMOOTH",
"518 0 LINE",
"518 62 LINE",
"146 62 LINE",
"146 700 LINE",
"77 700 LINE"
);
}
);
};
layerId = "0B1DFD06-3317-40CA-B510-4969A0718C16";
paths = (
{
closed = 1;
nodes = (
"77 65 LINE SMOOTH",
"77 24 OFFCURVE",
"101 0 OFFCURVE",
"142 0 CURVE SMOOTH",
"518 0 LINE",
"518 66 LINE",
"151 66 LINE",
"151 700 LINE",
"77 700 LINE"
);
}
);
width = 553;
},
{
anchors = (
{
name = bottom;
position = "{277, 0}";
},
{
name = center;
position = "{277, 350}";
},
{
name = top;
position = "{277, 700}";
},
{
name = topright;
position = "{533, 700}";
}
);
background = {
paths = (
{
closed = 1;
nodes = (
"77 65 LINE SMOOTH",
"77 24 OFFCURVE",
"101 0 OFFCURVE",
"142 0 CURVE SMOOTH",
"518 0 LINE",
"518 62 LINE",
"146 62 LINE",
"146 700 LINE",
"77 700 LINE"
);
}
);
};
layerId = "CFC55C35-7F83-4FA6-AE88-8407B7D31CBE";
paths = (
{
closed = 1;
nodes = (
"77 65 LINE SMOOTH",
"77 24 OFFCURVE",
"101 0 OFFCURVE",
"142 0 CURVE SMOOTH",
"518 0 LINE",
"518 66 LINE",
"151 66 LINE",
"151 700 LINE",
"77 700 LINE"
);
}
);
width = 553;
},
{
anchors = (
{
name = bottom;
position = "{277, 0}";
},
{
name = center;
position = "{277, 350}";
},
{
name = top;
position = "{277, 700}";
},
{
name = topright;
position = "{533, 700}";
}
);
background = {
paths = (
{
closed = 1;
nodes = (
"77 65 LINE SMOOTH",
"77 24 OFFCURVE",
"101 0 OFFCURVE",
"142 0 CURVE SMOOTH",
"518 0 LINE",
"518 66 LINE",
"151 66 LINE",
"151 700 LINE",
"77 700 LINE"
);
}
);
};
layerId = "EA06CE92-4115-4482-8874-2441C279E756";
paths = (
{
closed = 1;
nodes = (
"45 93 LINE SMOOTH",
"45 37 OFFCURVE",
"83 0 OFFCURVE",
"142 0 CURVE SMOOTH",
"550 0 LINE",
"550 122 LINE",
"183 122 LINE",
"183 700 LINE",
"45 700 LINE"
);
}
);
width = 553;
}
);
note = L;
unicode = 004C;
},
{
color = 0;
glyphname = M;
lastChange = "2018-02-05 09:20:32 +0000";
layers = (
{
anchors = (
{
name = bottom;
position = "{400, 0}";
},
{
name = top;
position = "{400, 700}";
}
);
background = {
paths = (
{
closed = 1;
nodes = (
"403 143 LINE SMOOTH",
"422 143 OFFCURVE",
"429 155 OFFCURVE",
"442 178 CURVE SMOOTH",
"655 574 LINE",
"655 0 LINE",
"724 0 LINE",
"724 700 LINE",
"657 700 LINE",
"403 226 LINE",
"141 701 LINE",
"75 701 LINE",
"75 0 LINE",
"143 0 LINE",
"143 574 LINE",
"383 143 LINE"
);
}
);
};
layerId = "0B1DFD06-3317-40CA-B510-4969A0718C16";
paths = (
{
closed = 1;
nodes = (
"403 143 LINE SMOOTH",
"422 143 OFFCURVE",
"430 155 OFFCURVE",
"442 178 CURVE SMOOTH",
"650 562 LINE",
"650 0 LINE",
"724 0 LINE",
"724 700 LINE",
"653 700 LINE",
"403 235 LINE",
"146 701 LINE",
"75 701 LINE",
"75 0 LINE",
"148 0 LINE",
"148 562 LINE",
"383 143 LINE"
);
}
);
width = 799;
},
{
anchors = (
{
name = bottom;
position = "{400, 0}";
},
{
name = top;
position = "{400, 700}";
}
);
background = {
paths = (
{
closed = 1;
nodes = (
"403 143 LINE SMOOTH",
"422 143 OFFCURVE",
"429 155 OFFCURVE",
"442 178 CURVE SMOOTH",
"655 574 LINE",
"655 0 LINE",
"724 0 LINE",
"724 700 LINE",
"657 700 LINE",
"403 226 LINE",
"141 701 LINE",
"75 701 LINE",
"75 0 LINE",
"143 0 LINE",
"143 574 LINE",
"383 143 LINE"
);
}
);
};
layerId = "CFC55C35-7F83-4FA6-AE88-8407B7D31CBE";
paths = (
{
closed = 1;
nodes = (
"403 143 LINE SMOOTH",
"422 143 OFFCURVE",
"430 155 OFFCURVE",
"442 178 CURVE SMOOTH",
"650 562 LINE",
"650 0 LINE",
"724 0 LINE",
"724 700 LINE",
"653 700 LINE",
"403 235 LINE",
"146 701 LINE",
"75 701 LINE",
"75 0 LINE",
"148 0 LINE",
"148 562 LINE",
"383 143 LINE"
);
}
);
width = 799;
},
{
anchors = (
{
name = bottom;
position = "{400, 0}";
},
{
name = top;
position = "{400, 700}";
}
);
background = {
paths = (
{
closed = 1;
nodes = (
"403 115 LINE SMOOTH",
"433 115 OFFCURVE",
"449 131 OFFCURVE",
"470 165 CURVE SMOOTH",
"618 410 LINE",
"618 0 LINE",
"756 0 LINE",
"756 700 LINE",
"633 700 LINE",
"403 300 LINE",
"166 701 LINE",
"43 701 LINE",
"43 0 LINE",
"180 0 LINE",
"180 413 LINE",
"363 115 LINE"
);
}
);
};
layerId = "EA06CE92-4115-4482-8874-2441C279E756";
paths = (
{
closed = 1;
nodes = (
"403 115 LINE SMOOTH",
"433 115 OFFCURVE",
"450 130 OFFCURVE",
"470 165 CURVE SMOOTH",
"619 423 LINE",
"619 0 LINE",
"756 0 LINE",
"756 700 LINE",
"636 700 LINE",
"403 286 LINE",
"163 701 LINE",
"43 701 LINE",
"43 0 LINE",
"179 0 LINE",
"179 423 LINE",
"363 115 LINE"
);
}
);
width = 799;
}
);
note = M;
unicode = 004D;
},
{
color = 0;
glyphname = N;
lastChange = "2018-02-05 09:20:32 +0000";
layers = (
{
anchors = (
{
name = bottom;
position = "{342, 0}";
},
{
name = top;
position = "{342, 700}";
}
);
background = {
paths = (
{
closed = 1;
nodes = (
"142 701 LINE",
"75 701 LINE",
"75 0 LINE",
"144 0 LINE",
"144 588 LINE",
"542 0 LINE",
"609 0 LINE",
"609 701 LINE",
"540 701 LINE",
"540 113 LINE"
);
}
);
};
layerId = "0B1DFD06-3317-40CA-B510-4969A0718C16";
paths = (
{
closed = 1;
nodes = (
"147 701 LINE",
"75 701 LINE",
"75 0 LINE",
"149 0 LINE",
"149 577 LINE",
"537 0 LINE",
"609 0 LINE",
"609 701 LINE",
"535 701 LINE",
"535 124 LINE"
);
}
);
width = 684;
},
{
anchors = (
{
name = bottom;
position = "{342, 0}";
},
{
name = top;
position = "{342, 700}";
}
);
background = {
paths = (
{
closed = 1;
nodes = (
"142 701 LINE",
"75 701 LINE",
"75 0 LINE",
"144 0 LINE",
"144 588 LINE",
"542 0 LINE",
"609 0 LINE",
"609 701 LINE",
"540 701 LINE",
"540 113 LINE"
);
}
);
};
layerId = "CFC55C35-7F83-4FA6-AE88-8407B7D31CBE";
paths = (
{
closed = 1;
nodes = (
"147 701 LINE",
"75 701 LINE",
"75 0 LINE",
"149 0 LINE",
"149 577 LINE",
"537 0 LINE",
"609 0 LINE",
"609 701 LINE",
"535 701 LINE",
"535 124 LINE"
);
}
);
width = 684;
},
{
anchors = (
{
name = bottom;
position = "{342, 0}";
},
{
name = top;
position = "{342, 700}";
}
);
background = {
paths = (
{
closed = 1;
nodes = (
"165 729 LINE",
"43 729 LINE",
"43 -28 LINE",
"181 -28 LINE",
"181 474 LINE",
"519 -28 LINE",
"641 -28 LINE",
"641 729 LINE",
"503 729 LINE",
"503 227 LINE"
);
}
);
};
layerId = "EA06CE92-4115-4482-8874-2441C279E756";
paths = (
{
closed = 1;
nodes = (
"165 700 LINE",
"43 700 LINE",
"43 0 LINE",
"181 0 LINE",
"181 468 LINE",
"519 0 LINE",
"641 0 LINE",
"641 700 LINE",
"503 700 LINE",
"503 232 LINE"
);
}
);
width = 684;
}
);
note = N;
unicode = 004E;
},
{
color = 0;
glyphname = O;
lastChange = "2018-02-05 09:20:32 +0000";
layers = (
{
anchors = (
{
name = bottom;
position = "{351, 0}";
},
{
name = center;
position = "{351, 350}";
},
{
name = ogonek;
position = "{632, 10}";
},
{
name = top;
position = "{351, 700}";
},
{
name = topleft;
position = "{20, 700}";
},
{
name = topright;
position = "{682, 700}";
}
);
layerId = "0B1DFD06-3317-40CA-B510-4969A0718C16";
paths = (
{
closed = 1;
nodes = (
"130 422 LINE SMOOTH",
"130 553 OFFCURVE",
"206 640 OFFCURVE",
"321 640 CURVE SMOOTH",
"422 640 LINE SMOOTH",
"511 640 OFFCURVE",
"570 575 OFFCURVE",
"570 477 CURVE SMOOTH",
"570 278 LINE SMOOTH",
"570 147 OFFCURVE",
"494 60 OFFCURVE",
"381 60 CURVE SMOOTH",
"278 60 LINE SMOOTH",
"189 60 OFFCURVE",
"130 125 OFFCURVE",
"130 223 CURVE SMOOTH"
);
},
{
closed = 1;
nodes = (
"56 86 OFFCURVE",
"145 -6 OFFCURVE",
"278 -6 CURVE SMOOTH",
"381 -6 LINE SMOOTH",
"539 -6 OFFCURVE",
"644 108 OFFCURVE",
"644 278 CURVE SMOOTH",
"644 477 LINE SMOOTH",
"644 614 OFFCURVE",
"555 706 OFFCURVE",
"422 706 CURVE SMOOTH",
"321 706 LINE SMOOTH",
"162 706 OFFCURVE",
"56 592 OFFCURVE",
"56 422 CURVE SMOOTH",
"56 223 LINE SMOOTH"
);
}
);
width = 702;
},
{
anchors = (
{
name = bottom;
position = "{351, 0}";
},
{
name = center;
position = "{351, 350}";
},
{
name = ogonek;
position = "{632, 10}";
},
{
name = top;
position = "{351, 700}";
},
{
name = topleft;
position = "{20, 700}";
},
{
name = topright;
position = "{682, 700}";
}
);
layerId = "CFC55C35-7F83-4FA6-AE88-8407B7D31CBE";
paths = (
{
closed = 1;
nodes = (
"130 422 LINE SMOOTH",
"130 553 OFFCURVE",
"206 640 OFFCURVE",
"321 640 CURVE SMOOTH",
"422 640 LINE SMOOTH",
"511 640 OFFCURVE",
"570 575 OFFCURVE",
"570 477 CURVE SMOOTH",
"570 278 LINE SMOOTH",
"570 147 OFFCURVE",
"494 60 OFFCURVE",
"381 60 CURVE SMOOTH",
"278 60 LINE SMOOTH",
"189 60 OFFCURVE",
"130 125 OFFCURVE",
"130 223 CURVE SMOOTH"
);
},
{
closed = 1;
nodes = (
"56 86 OFFCURVE",
"145 -6 OFFCURVE",
"278 -6 CURVE SMOOTH",
"381 -6 LINE SMOOTH",
"539 -6 OFFCURVE",
"644 108 OFFCURVE",
"644 278 CURVE SMOOTH",
"644 477 LINE SMOOTH",
"644 614 OFFCURVE",
"555 706 OFFCURVE",
"422 706 CURVE SMOOTH",
"321 706 LINE SMOOTH",
"162 706 OFFCURVE",
"56 592 OFFCURVE",
"56 422 CURVE SMOOTH",
"56 223 LINE SMOOTH"
);
}
);
width = 702;
},
{
anchors = (
{
name = bottom;
position = "{351, 0}";
},
{
name = center;
position = "{351, 350}";
},
{
name = ogonek;
position = "{632, 10}";
},
{
name = top;
position = "{351, 700}";
},
{
name = topleft;
position = "{20, 700}";
},
{
name = topright;
position = "{682, 700}";
}
);
background = {
paths = (
{
closed = 1;
nodes = (
"162 393 LINE SMOOTH",
"162 509 OFFCURVE",
"225 583 OFFCURVE",
"321 583 CURVE SMOOTH",
"422 583 LINE SMOOTH",
"493 583 OFFCURVE",
"538 531 OFFCURVE",
"538 448 CURVE SMOOTH",
"538 307 LINE SMOOTH",
"538 192 OFFCURVE",
"476 117 OFFCURVE",
"381 117 CURVE SMOOTH",
"278 117 LINE SMOOTH",
"207 117 OFFCURVE",
"162 169 OFFCURVE",
"162 252 CURVE SMOOTH"
);
},
{
closed = 1;
nodes = (
"24 100 OFFCURVE",
"127 -5 OFFCURVE",
"278 -5 CURVE SMOOTH",
"381 -5 LINE SMOOTH",
"556 -5 OFFCURVE",
"676 121 OFFCURVE",
"676 307 CURVE SMOOTH",
"676 448 LINE SMOOTH",
"676 600 OFFCURVE",
"573 705 OFFCURVE",
"422 705 CURVE SMOOTH",
"321 705 LINE SMOOTH",
"145 705 OFFCURVE",
"24 579 OFFCURVE",
"24 393 CURVE SMOOTH",
"24 252 LINE SMOOTH"
);
}
);
};
layerId = "EA06CE92-4115-4482-8874-2441C279E756";
paths = (
{
closed = 1;
nodes = (
"162 393 LINE SMOOTH",
"162 507 OFFCURVE",
"226 583 OFFCURVE",
"321 583 CURVE SMOOTH",
"422 583 LINE SMOOTH",
"492 583 OFFCURVE",
"538 529 OFFCURVE",
"538 448 CURVE SMOOTH",
"538 307 LINE SMOOTH",
"538 193 OFFCURVE",
"475 117 OFFCURVE",
"381 117 CURVE SMOOTH",
"278 117 LINE SMOOTH",
"208 117 OFFCURVE",
"162 171 OFFCURVE",
"162 252 CURVE SMOOTH"
);
},
{
closed = 1;
nodes = (
"24 98 OFFCURVE",
"126 -5 OFFCURVE",
"278 -5 CURVE SMOOTH",
"381 -5 LINE SMOOTH",
"558 -5 OFFCURVE",
"676 120 OFFCURVE",
"676 307 CURVE SMOOTH",
"676 448 LINE SMOOTH",
"676 602 OFFCURVE",
"574 705 OFFCURVE",
"422 705 CURVE SMOOTH",
"321 705 LINE SMOOTH",
"143 705 OFFCURVE",
"24 580 OFFCURVE",
"24 393 CURVE SMOOTH",
"24 252 LINE SMOOTH"
);
}
);
width = 702;
}
);
note = O;
unicode = 004F;
},
{
color = 0;
glyphname = P;
lastChange = "2018-02-05 09:20:32 +0000";
layers = (
{
anchors = (
{
name = bottom;
position = "{316, 0}";
},
{
name = top;
position = "{316, 700}";
}
);
layerId = "0B1DFD06-3317-40CA-B510-4969A0718C16";
paths = (
{
closed = 1;
nodes = (
"432 634 LINE SMOOTH",
"489 634 OFFCURVE",
"527 598 OFFCURVE",
"527 545 CURVE SMOOTH",
"527 446 LINE SMOOTH",
"527 377 OFFCURVE",
"467 331 OFFCURVE",
"377 331 CURVE SMOOTH",
"149 331 LINE",
"149 634 LINE"
);
},
{
closed = 1;
nodes = (
"511 265 OFFCURVE",
"601 337 OFFCURVE",
"601 445 CURVE SMOOTH",
"601 541 LINE SMOOTH",
"601 636 OFFCURVE",
"533 700 OFFCURVE",
"432 700 CURVE SMOOTH",
"75 700 LINE",
"75 0 LINE",
"149 0 LINE",
"149 265 LINE",
"377 265 LINE SMOOTH"
);
}
);
width = 631;
},
{
anchors = (
{
name = bottom;
position = "{316, 0}";
},
{
name = top;
position = "{316, 700}";
}
);
layerId = "CFC55C35-7F83-4FA6-AE88-8407B7D31CBE";
paths = (
{
closed = 1;
nodes = (
"432 634 LINE SMOOTH",
"489 634 OFFCURVE",
"527 598 OFFCURVE",
"527 545 CURVE SMOOTH",
"527 446 LINE SMOOTH",
"527 377 OFFCURVE",
"467 331 OFFCURVE",
"377 331 CURVE SMOOTH",
"149 331 LINE",
"149 634 LINE"
);
},
{
closed = 1;
nodes = (
"511 265 OFFCURVE",
"601 337 OFFCURVE",
"601 445 CURVE SMOOTH",
"601 541 LINE SMOOTH",
"601 636 OFFCURVE",
"533 700 OFFCURVE",
"432 700 CURVE SMOOTH",
"75 700 LINE",
"75 0 LINE",
"149 0 LINE",
"149 265 LINE",
"377 265 LINE SMOOTH"
);
}
);
width = 631;
},
{
anchors = (
{
name = bottom;
position = "{316, 0}";
},
{
name = top;
position = "{316, 700}";
}
);
layerId = "EA06CE92-4115-4482-8874-2441C279E756";
paths = (
{
closed = 1;
nodes = (
"432 580 LINE SMOOTH",
"470 580 OFFCURVE",
"495 555 OFFCURVE",
"495 517 CURVE SMOOTH",
"495 422 LINE SMOOTH",
"495 369 OFFCURVE",
"448 333 OFFCURVE",
"377 333 CURVE SMOOTH",
"181 333 LINE",
"181 580 LINE"
);
},
{
closed = 1;
nodes = (
"531 213 OFFCURVE",
"633 296 OFFCURVE",
"633 421 CURVE SMOOTH",
"633 513 LINE SMOOTH",
"633 625 OFFCURVE",
"553 700 OFFCURVE",
"432 700 CURVE SMOOTH",
"43 700 LINE",
"43 0 LINE",
"181 0 LINE",
"181 213 LINE",
"377 213 LINE SMOOTH"
);
}
);
width = 631;
}
);
note = P;
unicode = 0050;
},
{
color = 0;
glyphname = Q;
lastChange = "2018-02-05 09:20:32 +0000";
layers = (
{
anchors = (
{
name = bottom;
position = "{342, 0}";
},
{
name = top;
position = "{342, 700}";
}
);
background = {
paths = (
{
closed = 1;
nodes = (
"620 -23 LINE",
"664 21 LINE",
"440 250 LINE",
"396 206 LINE"
);
},
{
closed = 1;
nodes = (
"120 422 LINE SMOOTH",
"120 555 OFFCURVE",
"198 644 OFFCURVE",
"314 644 CURVE SMOOTH",
"419 644 LINE SMOOTH",
"510 644 OFFCURVE",
"570 577 OFFCURVE",
"570 477 CURVE SMOOTH",
"570 278 LINE SMOOTH",
"570 145 OFFCURVE",
"493 56 OFFCURVE",
"378 56 CURVE SMOOTH",
"271 56 LINE SMOOTH",
"180 56 OFFCURVE",
"120 123 OFFCURVE",
"120 223 CURVE SMOOTH"
);
},
{
closed = 1;
nodes = (
"51 86 OFFCURVE",
"139 -6 OFFCURVE",
"271 -6 CURVE SMOOTH",
"378 -6 LINE SMOOTH",
"535 -6 OFFCURVE",
"639 108 OFFCURVE",
"639 278 CURVE SMOOTH",
"639 477 LINE SMOOTH",
"639 614 OFFCURVE",
"551 706 OFFCURVE",
"419 706 CURVE SMOOTH",
"314 706 LINE SMOOTH",
"156 706 OFFCURVE",
"51 592 OFFCURVE",
"51 422 CURVE SMOOTH",
"51 223 LINE SMOOTH"
);
}
);
};
layerId = "0B1DFD06-3317-40CA-B510-4969A0718C16";
paths = (
{
closed = 1;
nodes = (
"621 -23 LINE",
"668 24 LINE",
"444 253 LINE",
"397 206 LINE"
);
},
{
closed = 1;
nodes = (
"130 422 LINE SMOOTH",
"130 553 OFFCURVE",
"206 640 OFFCURVE",
"321 640 CURVE SMOOTH",
"422 640 LINE SMOOTH",
"511 640 OFFCURVE",
"570 575 OFFCURVE",
"570 477 CURVE SMOOTH",
"570 278 LINE SMOOTH",
"570 147 OFFCURVE",
"494 60 OFFCURVE",
"381 60 CURVE SMOOTH",
"278 60 LINE SMOOTH",
"189 60 OFFCURVE",
"130 125 OFFCURVE",
"130 223 CURVE SMOOTH"
);
},
{
closed = 1;
nodes = (
"56 86 OFFCURVE",
"145 -6 OFFCURVE",
"278 -6 CURVE SMOOTH",
"381 -6 LINE SMOOTH",
"539 -6 OFFCURVE",
"644 108 OFFCURVE",
"644 278 CURVE SMOOTH",
"644 477 LINE SMOOTH",
"644 614 OFFCURVE",
"555 706 OFFCURVE",
"422 706 CURVE SMOOTH",
"321 706 LINE SMOOTH",
"162 706 OFFCURVE",
"56 592 OFFCURVE",
"56 422 CURVE SMOOTH",
"56 223 LINE SMOOTH"
);
}
);
width = 684;
},
{
anchors = (
{
name = bottom;
position = "{342, 0}";
},
{
name = top;
position = "{342, 700}";
}
);
background = {
paths = (
{
closed = 1;
nodes = (
"620 -23 LINE",
"664 21 LINE",
"440 250 LINE",
"396 206 LINE"
);
},
{
closed = 1;
nodes = (
"120 422 LINE SMOOTH",
"120 555 OFFCURVE",
"198 644 OFFCURVE",
"314 644 CURVE SMOOTH",
"419 644 LINE SMOOTH",
"510 644 OFFCURVE",
"570 577 OFFCURVE",
"570 477 CURVE SMOOTH",
"570 278 LINE SMOOTH",
"570 145 OFFCURVE",
"493 56 OFFCURVE",
"378 56 CURVE SMOOTH",
"271 56 LINE SMOOTH",
"180 56 OFFCURVE",
"120 123 OFFCURVE",
"120 223 CURVE SMOOTH"
);
},
{
closed = 1;
nodes = (
"51 86 OFFCURVE",
"139 -6 OFFCURVE",
"271 -6 CURVE SMOOTH",
"378 -6 LINE SMOOTH",
"535 -6 OFFCURVE",
"639 108 OFFCURVE",
"639 278 CURVE SMOOTH",
"639 477 LINE SMOOTH",
"639 614 OFFCURVE",
"551 706 OFFCURVE",
"419 706 CURVE SMOOTH",
"314 706 LINE SMOOTH",
"156 706 OFFCURVE",
"51 592 OFFCURVE",
"51 422 CURVE SMOOTH",
"51 223 LINE SMOOTH"
);
}
);
};
layerId = "CFC55C35-7F83-4FA6-AE88-8407B7D31CBE";
paths = (
{
closed = 1;
nodes = (
"621 -23 LINE",
"668 24 LINE",
"444 253 LINE",
"397 206 LINE"
);
},
{
closed = 1;
nodes = (
"130 422 LINE SMOOTH",
"130 553 OFFCURVE",
"206 640 OFFCURVE",
"321 640 CURVE SMOOTH",
"422 640 LINE SMOOTH",
"511 640 OFFCURVE",
"570 575 OFFCURVE",
"570 477 CURVE SMOOTH",
"570 278 LINE SMOOTH",
"570 147 OFFCURVE",
"494 60 OFFCURVE",
"381 60 CURVE SMOOTH",
"278 60 LINE SMOOTH",
"189 60 OFFCURVE",
"130 125 OFFCURVE",
"130 223 CURVE SMOOTH"
);
},
{
closed = 1;
nodes = (
"56 86 OFFCURVE",
"145 -6 OFFCURVE",
"278 -6 CURVE SMOOTH",
"381 -6 LINE SMOOTH",
"539 -6 OFFCURVE",
"644 108 OFFCURVE",
"644 278 CURVE SMOOTH",
"644 477 LINE SMOOTH",
"644 614 OFFCURVE",
"555 706 OFFCURVE",
"422 706 CURVE SMOOTH",
"321 706 LINE SMOOTH",
"162 706 OFFCURVE",
"56 592 OFFCURVE",
"56 422 CURVE SMOOTH",
"56 223 LINE SMOOTH"
);
}
);
width = 684;
},
{
anchors = (
{
name = bottom;
position = "{342, 0}";
},
{
name = top;
position = "{342, 700}";
}
);
background = {
paths = (
{
closed = 1;
nodes = (
"621 -46 LINE",
"710 44 LINE",
"444 316 LINE",
"355 226 LINE"
);
},
{
closed = 1;
nodes = (
"162 393 LINE SMOOTH",
"162 507 OFFCURVE",
"226 583 OFFCURVE",
"321 583 CURVE SMOOTH",
"422 583 LINE SMOOTH",
"492 583 OFFCURVE",
"538 529 OFFCURVE",
"538 448 CURVE SMOOTH",
"538 307 LINE SMOOTH",
"538 193 OFFCURVE",
"475 117 OFFCURVE",
"381 117 CURVE SMOOTH",
"278 117 LINE SMOOTH",
"208 117 OFFCURVE",
"162 171 OFFCURVE",
"162 252 CURVE SMOOTH"
);
},
{
closed = 1;
nodes = (
"24 98 OFFCURVE",
"126 -5 OFFCURVE",
"278 -5 CURVE SMOOTH",
"381 -5 LINE SMOOTH",
"558 -5 OFFCURVE",
"676 120 OFFCURVE",
"676 307 CURVE SMOOTH",
"676 448 LINE SMOOTH",
"676 602 OFFCURVE",
"574 705 OFFCURVE",
"422 705 CURVE SMOOTH",
"321 705 LINE SMOOTH",
"143 705 OFFCURVE",
"24 580 OFFCURVE",
"24 393 CURVE SMOOTH",
"24 252 LINE SMOOTH"
);
}
);
};
layerId = "EA06CE92-4115-4482-8874-2441C279E756";
paths = (
{
closed = 1;
nodes = (
"611 -36 LINE",
"700 54 LINE",
"454 306 LINE",
"365 216 LINE"
);
},
{
closed = 1;
nodes = (
"162 393 LINE SMOOTH",
"162 507 OFFCURVE",
"226 583 OFFCURVE",
"321 583 CURVE SMOOTH",
"422 583 LINE SMOOTH",
"492 583 OFFCURVE",
"538 529 OFFCURVE",
"538 448 CURVE SMOOTH",
"538 307 LINE SMOOTH",
"538 193 OFFCURVE",
"475 117 OFFCURVE",
"381 117 CURVE SMOOTH",
"278 117 LINE SMOOTH",
"208 117 OFFCURVE",
"162 171 OFFCURVE",
"162 252 CURVE SMOOTH"
);
},
{
closed = 1;
nodes = (
"24 98 OFFCURVE",
"126 -5 OFFCURVE",
"278 -5 CURVE SMOOTH",
"381 -5 LINE SMOOTH",
"548 -5 OFFCURVE",
"676 130 OFFCURVE",
"676 307 CURVE SMOOTH",
"676 448 LINE SMOOTH",
"676 602 OFFCURVE",
"574 705 OFFCURVE",
"422 705 CURVE SMOOTH",
"321 705 LINE SMOOTH",
"143 705 OFFCURVE",
"24 580 OFFCURVE",
"24 393 CURVE SMOOTH",
"24 252 LINE SMOOTH"
);
}
);
width = 684;
}
);
note = Q;
unicode = 0051;
},
{
color = 0;
glyphname = R;
lastChange = "2018-02-05 09:20:32 +0000";
layers = (
{
anchors = (
{
name = bottom;
position = "{325, 0}";
},
{
name = top;
position = "{325, 700}";
}
);
background = {
paths = (
{
closed = 1;
nodes = (
"76 0 LINE",
"145 0 LINE",
"145 302 LINE",
"238 302 LINE SMOOTH",
"328 302 OFFCURVE",
"356 260 OFFCURVE",
"391 207 CURVE SMOOTH",
"528 0 LINE",
"606 0 LINE",
"471 207 LINE SMOOTH",
"444 249 OFFCURVE",
"421 280 OFFCURVE",
"381 304 CURVE",
"392 304 LINE SMOOTH",
"492 304 OFFCURVE",
"576 386 OFFCURVE",
"576 503 CURVE SMOOTH",
"576 621 OFFCURVE",
"498 700 OFFCURVE",
"382 700 CURVE SMOOTH",
"76 700 LINE"
);
},
{
closed = 1;
nodes = (
"382 638 LINE SMOOTH",
"456 638 OFFCURVE",
"505 584 OFFCURVE",
"505 503 CURVE SMOOTH",
"505 420 OFFCURVE",
"456 364 OFFCURVE",
"382 364 CURVE SMOOTH",
"145 364 LINE",
"145 638 LINE"
);
}
);
};
layerId = "0B1DFD06-3317-40CA-B510-4969A0718C16";
paths = (
{
closed = 1;
nodes = (
"75 700 LINE",
"75 0 LINE",
"149 0 LINE",
"149 296 LINE",
"356 296 LINE SMOOTH",
"416 296 OFFCURVE",
"464 256 OFFCURVE",
"485 187 CURVE SMOOTH",
"542 0 LINE",
"618 0 LINE",
"561 187 LINE SMOOTH",
"542 249 OFFCURVE",
"506 296 OFFCURVE",
"464 314 CURVE",
"538 335 OFFCURVE",
"588 397 OFFCURVE",
"588 469 CURVE SMOOTH",
"588 541 LINE SMOOTH",
"588 636 OFFCURVE",
"520 700 OFFCURVE",
"419 700 CURVE SMOOTH"
);
},
{
closed = 1;
nodes = (
"476 634 OFFCURVE",
"514 598 OFFCURVE",
"514 545 CURVE SMOOTH",
"514 469 LINE SMOOTH",
"514 405 OFFCURVE",
"466 362 OFFCURVE",
"394 362 CURVE SMOOTH",
"149 362 LINE",
"149 634 LINE",
"419 634 LINE SMOOTH"
);
}
);
width = 650;
},
{
anchors = (
{
name = bottom;
position = "{325, 0}";
},
{
name = top;
position = "{325, 700}";
}
);
background = {
paths = (
{
closed = 1;
nodes = (
"76 0 LINE",
"145 0 LINE",
"145 302 LINE",
"238 302 LINE SMOOTH",
"328 302 OFFCURVE",
"356 260 OFFCURVE",
"391 207 CURVE SMOOTH",
"528 0 LINE",
"606 0 LINE",
"471 207 LINE SMOOTH",
"444 249 OFFCURVE",
"421 280 OFFCURVE",
"381 304 CURVE",
"392 304 LINE SMOOTH",
"492 304 OFFCURVE",
"576 386 OFFCURVE",
"576 503 CURVE SMOOTH",
"576 621 OFFCURVE",
"498 700 OFFCURVE",
"382 700 CURVE SMOOTH",
"76 700 LINE"
);
},
{
closed = 1;
nodes = (
"382 638 LINE SMOOTH",
"456 638 OFFCURVE",
"505 584 OFFCURVE",
"505 503 CURVE SMOOTH",
"505 420 OFFCURVE",
"456 364 OFFCURVE",
"382 364 CURVE SMOOTH",
"145 364 LINE",
"145 638 LINE"
);
}
);
};
layerId = "CFC55C35-7F83-4FA6-AE88-8407B7D31CBE";
paths = (
{
closed = 1;
nodes = (
"75 700 LINE",
"75 0 LINE",
"149 0 LINE",
"149 296 LINE",
"356 296 LINE SMOOTH",
"416 296 OFFCURVE",
"464 256 OFFCURVE",
"485 187 CURVE SMOOTH",
"542 0 LINE",
"618 0 LINE",
"561 187 LINE SMOOTH",
"542 249 OFFCURVE",
"506 296 OFFCURVE",
"464 314 CURVE",
"538 335 OFFCURVE",
"588 397 OFFCURVE",
"588 469 CURVE SMOOTH",
"588 541 LINE SMOOTH",
"588 636 OFFCURVE",
"520 700 OFFCURVE",
"419 700 CURVE SMOOTH"
);
},
{
closed = 1;
nodes = (
"476 634 OFFCURVE",
"514 598 OFFCURVE",
"514 545 CURVE SMOOTH",
"514 469 LINE SMOOTH",
"514 405 OFFCURVE",
"466 362 OFFCURVE",
"394 362 CURVE SMOOTH",
"149 362 LINE",
"149 634 LINE",
"419 634 LINE SMOOTH"
);
}
);
width = 650;
},
{
anchors = (
{
name = bottom;
position = "{325, 0}";
},
{
name = top;
position = "{325, 700}";
}
);
background = {
paths = (
{
closed = 1;
nodes = (
"43 700 LINE",
"43 0 LINE",
"181 0 LINE",
"181 250 LINE",
"356 250 LINE SMOOTH",
"401 250 OFFCURVE",
"435 217 OFFCURVE",
"454 161 CURVE SMOOTH",
"509 0 LINE",
"652 0 LINE",
"592 177 LINE SMOOTH",
"576 224 OFFCURVE",
"554 263 OFFCURVE",
"524 291 CURVE",
"583 325 OFFCURVE",
"620 384 OFFCURVE",
"620 451 CURVE SMOOTH",
"620 513 LINE SMOOTH",
"620 623 OFFCURVE",
"537 700 OFFCURVE",
"419 700 CURVE SMOOTH"
);
},
{
closed = 1;
nodes = (
"458 578 OFFCURVE",
"482 555 OFFCURVE",
"482 517 CURVE SMOOTH",
"482 451 LINE SMOOTH",
"482 403 OFFCURVE",
"448 372 OFFCURVE",
"394 372 CURVE SMOOTH",
"181 372 LINE",
"181 578 LINE",
"419 578 LINE SMOOTH"
);
}
);
};
layerId = "EA06CE92-4115-4482-8874-2441C279E756";
paths = (
{
closed = 1;
nodes = (
"43 700 LINE",
"43 0 LINE",
"181 0 LINE",
"181 252 LINE",
"356 252 LINE SMOOTH",
"407 252 OFFCURVE",
"436 214 OFFCURVE",
"454 161 CURVE SMOOTH",
"509 0 LINE",
"652 0 LINE",
"592 177 LINE SMOOTH",
"576 226 OFFCURVE",
"546 275 OFFCURVE",
"518 299 CURVE",
"579 332 OFFCURVE",
"620 393 OFFCURVE",
"620 451 CURVE SMOOTH",
"620 513 LINE SMOOTH",
"620 625 OFFCURVE",
"540 700 OFFCURVE",
"419 700 CURVE SMOOTH"
);
},
{
closed = 1;
nodes = (
"457 580 OFFCURVE",
"482 556 OFFCURVE",
"482 519 CURVE SMOOTH",
"482 451 LINE SMOOTH",
"482 404 OFFCURVE",
"447 372 OFFCURVE",
"394 372 CURVE SMOOTH",
"181 372 LINE",
"181 580 LINE",
"419 580 LINE SMOOTH"
);
}
);
width = 650;
}
);
note = R;
unicode = 0052;
},
{
color = 0;
glyphname = S;
lastChange = "2018-02-05 09:20:32 +0000";
layers = (
{
anchors = (
{
name = bottom;
position = "{318, 0}";
},
{
name = top;
position = "{318, 700}";
}
);
background = {
paths = (
{
closed = 1;
nodes = (
"50 225 LINE",
"50 90 OFFCURVE",
"134 0 OFFCURVE",
"260 0 CURVE SMOOTH",
"362 0 LINE SMOOTH",
"499 0 OFFCURVE",
"591 72 OFFCURVE",
"591 179 CURVE SMOOTH",
"591 203 LINE SMOOTH",
"591 289 OFFCURVE",
"524 357 OFFCURVE",
"423 374 CURVE SMOOTH",
"220 409 LINE SMOOTH",
"165 419 OFFCURVE",
"129 452 OFFCURVE",
"129 492 CURVE SMOOTH",
"129 516 LINE SMOOTH",
"129 592 OFFCURVE",
"183 643 OFFCURVE",
"266 643 CURVE SMOOTH",
"382 643 LINE SMOOTH",
"456 643 OFFCURVE",
"505 585 OFFCURVE",
"505 498 CURVE",
"572 498 LINE",
"572 622 OFFCURVE",
"496 705 OFFCURVE",
"382 705 CURVE SMOOTH",
"266 705 LINE SMOOTH",
"141 705 OFFCURVE",
"60 629 OFFCURVE",
"60 516 CURVE SMOOTH",
"60 492 LINE SMOOTH",
"60 418 OFFCURVE",
"120 358 OFFCURVE",
"210 343 CURVE SMOOTH",
"416 308 LINE SMOOTH",
"480 299 OFFCURVE",
"522 257 OFFCURVE",
"522 203 CURVE SMOOTH",
"522 179 LINE SMOOTH",
"522 109 OFFCURVE",
"458 62 OFFCURVE",
"362 62 CURVE SMOOTH",
"260 62 LINE SMOOTH",
"174 62 OFFCURVE",
"117 127 OFFCURVE",
"117 225 CURVE"
);
}
);
};
layerId = "0B1DFD06-3317-40CA-B510-4969A0718C16";
paths = (
{
closed = 1;
nodes = (
"362 0 LINE SMOOTH",
"499 0 OFFCURVE",
"591 72 OFFCURVE",
"591 179 CURVE SMOOTH",
"591 203 LINE SMOOTH",
"591 293 OFFCURVE",
"529 356 OFFCURVE",
"423 374 CURVE SMOOTH",
"220 409 LINE SMOOTH",
"168 418 OFFCURVE",
"134 452 OFFCURVE",
"134 492 CURVE SMOOTH",
"134 516 LINE SMOOTH",
"134 590 OFFCURVE",
"187 639 OFFCURVE",
"266 639 CURVE SMOOTH",
"382 639 LINE SMOOTH",
"453 639 OFFCURVE",
"500 583 OFFCURVE",
"500 498 CURVE",
"572 498 LINE",
"572 622 OFFCURVE",
"496 705 OFFCURVE",
"382 705 CURVE SMOOTH",
"266 705 LINE SMOOTH",
"142 705 OFFCURVE",
"60 629 OFFCURVE",
"60 516 CURVE SMOOTH",
"60 492 LINE SMOOTH",
"60 418 OFFCURVE",
"120 358 OFFCURVE",
"210 343 CURVE SMOOTH",
"416 308 LINE SMOOTH",
"479 299 OFFCURVE",
"517 260 OFFCURVE",
"517 203 CURVE SMOOTH",
"517 179 LINE SMOOTH",
"517 111 OFFCURVE",
"455 66 OFFCURVE",
"362 66 CURVE SMOOTH",
"260 66 LINE SMOOTH",
"177 66 OFFCURVE",
"122 130 OFFCURVE",
"122 225 CURVE",
"50 225 LINE",
"50 90 OFFCURVE",
"134 0 OFFCURVE",
"260 0 CURVE SMOOTH"
);
}
);
width = 636;
},
{
anchors = (
{
name = bottom;
position = "{318, 0}";
},
{
name = top;
position = "{318, 700}";
}
);
background = {
paths = (
{
closed = 1;
nodes = (
"50 225 LINE",
"50 90 OFFCURVE",
"134 0 OFFCURVE",
"260 0 CURVE SMOOTH",
"362 0 LINE SMOOTH",
"499 0 OFFCURVE",
"591 72 OFFCURVE",
"591 179 CURVE SMOOTH",
"591 203 LINE SMOOTH",
"591 289 OFFCURVE",
"524 357 OFFCURVE",
"423 374 CURVE SMOOTH",
"220 409 LINE SMOOTH",
"165 419 OFFCURVE",
"129 452 OFFCURVE",
"129 492 CURVE SMOOTH",
"129 516 LINE SMOOTH",
"129 592 OFFCURVE",
"183 643 OFFCURVE",
"266 643 CURVE SMOOTH",
"382 643 LINE SMOOTH",
"456 643 OFFCURVE",
"505 585 OFFCURVE",
"505 498 CURVE",
"572 498 LINE",
"572 622 OFFCURVE",
"496 705 OFFCURVE",
"382 705 CURVE SMOOTH",
"266 705 LINE SMOOTH",
"141 705 OFFCURVE",
"60 629 OFFCURVE",
"60 516 CURVE SMOOTH",
"60 492 LINE SMOOTH",
"60 418 OFFCURVE",
"120 358 OFFCURVE",
"210 343 CURVE SMOOTH",
"416 308 LINE SMOOTH",
"480 299 OFFCURVE",
"522 257 OFFCURVE",
"522 203 CURVE SMOOTH",
"522 179 LINE SMOOTH",
"522 109 OFFCURVE",
"458 62 OFFCURVE",
"362 62 CURVE SMOOTH",
"260 62 LINE SMOOTH",
"174 62 OFFCURVE",
"117 127 OFFCURVE",
"117 225 CURVE"
);
}
);
};
layerId = "CFC55C35-7F83-4FA6-AE88-8407B7D31CBE";
paths = (
{
closed = 1;
nodes = (
"362 0 LINE SMOOTH",
"499 0 OFFCURVE",
"591 72 OFFCURVE",
"591 179 CURVE SMOOTH",
"591 203 LINE SMOOTH",
"591 293 OFFCURVE",
"529 356 OFFCURVE",
"423 374 CURVE SMOOTH",
"220 409 LINE SMOOTH",
"168 418 OFFCURVE",
"134 452 OFFCURVE",
"134 492 CURVE SMOOTH",
"134 516 LINE SMOOTH",
"134 590 OFFCURVE",
"187 639 OFFCURVE",
"266 639 CURVE SMOOTH",
"382 639 LINE SMOOTH",
"453 639 OFFCURVE",
"500 583 OFFCURVE",
"500 498 CURVE",
"572 498 LINE",
"572 622 OFFCURVE",
"496 705 OFFCURVE",
"382 705 CURVE SMOOTH",
"266 705 LINE SMOOTH",
"142 705 OFFCURVE",
"60 629 OFFCURVE",
"60 516 CURVE SMOOTH",
"60 492 LINE SMOOTH",
"60 418 OFFCURVE",
"120 358 OFFCURVE",
"210 343 CURVE SMOOTH",
"416 308 LINE SMOOTH",
"479 299 OFFCURVE",
"517 260 OFFCURVE",
"517 203 CURVE SMOOTH",
"517 179 LINE SMOOTH",
"517 111 OFFCURVE",
"455 66 OFFCURVE",
"362 66 CURVE SMOOTH",
"260 66 LINE SMOOTH",
"177 66 OFFCURVE",
"122 130 OFFCURVE",
"122 225 CURVE",
"50 225 LINE",
"50 90 OFFCURVE",
"134 0 OFFCURVE",
"260 0 CURVE SMOOTH"
);
}
);
width = 636;
},
{
anchors = (
{
name = bottom;
position = "{318, 0}";
},
{
name = top;
position = "{318, 700}";
}
);
background = {
paths = (
{
closed = 1;
nodes = (
"19 275 LINE",
"6 109 OFFCURVE",
"108 -6 OFFCURVE",
"260 -6 CURVE SMOOTH",
"362 -6 LINE SMOOTH",
"516 -6 OFFCURVE",
"623 66 OFFCURVE",
"623 189 CURVE SMOOTH",
"623 213 LINE SMOOTH",
"623 317 OFFCURVE",
"550 381 OFFCURVE",
"428 402 CURVE SMOOTH",
"225 437 LINE SMOOTH",
"189 443 OFFCURVE",
"166 460 OFFCURVE",
"166 487 CURVE SMOOTH",
"166 511 LINE SMOOTH",
"166 569 OFFCURVE",
"204 583 OFFCURVE",
"266 583 CURVE SMOOTH",
"382 583 LINE SMOOTH",
"441 583 OFFCURVE",
"476 528 OFFCURVE",
"466 442 CURVE",
"603 442 LINE",
"616 597 OFFCURVE",
"522 705 OFFCURVE",
"382 705 CURVE SMOOTH",
"266 705 LINE SMOOTH",
"125 705 OFFCURVE",
"28 640 OFFCURVE",
"28 511 CURVE SMOOTH",
"28 487 LINE SMOOTH",
"28 399 OFFCURVE",
"100 333 OFFCURVE",
"205 315 CURVE SMOOTH",
"411 280 LINE",
"411 280 LINE",
"459 273 OFFCURVE",
"485 256 OFFCURVE",
"485 213 CURVE SMOOTH",
"485 189 LINE SMOOTH",
"485 138 OFFCURVE",
"439 116 OFFCURVE",
"362 116 CURVE SMOOTH",
"260 116 LINE SMOOTH",
"189 116 OFFCURVE",
"145 179 OFFCURVE",
"156 275 CURVE"
);
}
);
};
layerId = "EA06CE92-4115-4482-8874-2441C279E756";
paths = (
{
closed = 1;
nodes = (
"362 -6 LINE SMOOTH",
"519 -6 OFFCURVE",
"623 72 OFFCURVE",
"623 189 CURVE SMOOTH",
"623 213 LINE SMOOTH",
"623 311 OFFCURVE",
"551 381 OFFCURVE",
"428 402 CURVE SMOOTH",
"225 437 LINE SMOOTH",
"188 443 OFFCURVE",
"166 462 OFFCURVE",
"166 487 CURVE SMOOTH",
"166 511 LINE SMOOTH",
"166 554 OFFCURVE",
"206 583 OFFCURVE",
"266 583 CURVE SMOOTH",
"382 583 LINE SMOOTH",
"432 583 OFFCURVE",
"467 535 OFFCURVE",
"467 462 CURVE",
"603 462 LINE",
"603 608 OFFCURVE",
"515 705 OFFCURVE",
"382 705 CURVE SMOOTH",
"266 705 LINE SMOOTH",
"123 705 OFFCURVE",
"28 627 OFFCURVE",
"28 511 CURVE SMOOTH",
"28 487 LINE SMOOTH",
"28 398 OFFCURVE",
"94 334 OFFCURVE",
"205 315 CURVE SMOOTH",
"411 280 LINE SMOOTH",
"458 274 OFFCURVE",
"485 249 OFFCURVE",
"485 213 CURVE SMOOTH",
"485 189 LINE SMOOTH",
"485 145 OFFCURVE",
"436 116 OFFCURVE",
"362 116 CURVE SMOOTH",
"260 116 LINE SMOOTH",
"198 116 OFFCURVE",
"155 172 OFFCURVE",
"155 255 CURVE",
"19 255 LINE",
"19 98 OFFCURVE",
"115 -6 OFFCURVE",
"260 -6 CURVE SMOOTH"
);
}
);
width = 636;
}
);
note = S;
unicode = 0053;
},
{
color = 0;
glyphname = T;
lastChange = "2018-02-05 09:20:32 +0000";
layers = (
{
anchors = (
{
name = bottom;
position = "{297, 0}";
},
{
name = center;
position = "{297, 350}";
},
{
name = top;
position = "{297, 700}";
}
);
layerId = "0B1DFD06-3317-40CA-B510-4969A0718C16";
paths = (
{
closed = 1;
nodes = (
"259 0 LINE",
"333 0 LINE",
"333 634 LINE",
"558 634 LINE",
"558 700 LINE",
"34 700 LINE",
"34 634 LINE",
"259 634 LINE"
);
}
);
width = 593;
},
{
anchors = (
{
name = bottom;
position = "{297, 0}";
},
{
name = center;
position = "{297, 350}";
},
{
name = top;
position = "{297, 700}";
}
);
layerId = "CFC55C35-7F83-4FA6-AE88-8407B7D31CBE";
paths = (
{
closed = 1;
nodes = (
"259 0 LINE",
"333 0 LINE",
"333 634 LINE",
"558 634 LINE",
"558 700 LINE",
"34 700 LINE",
"34 634 LINE",
"259 634 LINE"
);
}
);
width = 593;
},
{
anchors = (
{
name = bottom;
position = "{297, 0}";
},
{
name = center;
position = "{297, 350}";
},
{
name = top;
position = "{297, 700}";
}
);
background = {
paths = (
{
closed = 1;
nodes = (
"259 0 LINE",
"333 0 LINE",
"333 634 LINE",
"558 634 LINE",
"558 700 LINE",
"34 700 LINE",
"34 634 LINE",
"259 634 LINE"
);
}
);
};
layerId = "EA06CE92-4115-4482-8874-2441C279E756";
paths = (
{
closed = 1;
nodes = (
"227 0 LINE",
"365 0 LINE",
"365 578 LINE",
"590 578 LINE",
"590 700 LINE",
"2 700 LINE",
"2 578 LINE",
"227 578 LINE"
);
}
);
width = 593;
}
);
note = T;
unicode = 0054;
},
{
color = 0;
glyphname = U;
lastChange = "2018-02-05 09:20:32 +0000";
layers = (
{
anchors = (
{
name = bottom;
position = "{346, 0}";
},
{
name = ogonek;
position = "{622, 10}";
},
{
name = top;
position = "{346, 700}";
},
{
name = topright;
position = "{671, 700}";
}
);
background = {
paths = (
{
closed = 1;
nodes = (
"70 95 OFFCURVE",
"154 -6 OFFCURVE",
"281 -6 CURVE SMOOTH",
"381 -6 LINE SMOOTH",
"525 -6 OFFCURVE",
"621 102 OFFCURVE",
"621 265 CURVE SMOOTH",
"621 700 LINE",
"552 700 LINE",
"552 265 LINE SMOOTH",
"552 134 OFFCURVE",
"488 56 OFFCURVE",
"381 56 CURVE SMOOTH",
"281 56 LINE SMOOTH",
"196 56 OFFCURVE",
"139 125 OFFCURVE",
"139 223 CURVE SMOOTH",
"139 700 LINE",
"70 700 LINE",
"70 223 LINE SMOOTH"
);
}
);
};
layerId = "0B1DFD06-3317-40CA-B510-4969A0718C16";
paths = (
{
closed = 1;
nodes = (
"70 86 OFFCURVE",
"154 -6 OFFCURVE",
"281 -6 CURVE SMOOTH",
"381 -6 LINE SMOOTH",
"525 -6 OFFCURVE",
"621 102 OFFCURVE",
"621 265 CURVE SMOOTH",
"621 700 LINE",
"547 700 LINE",
"547 265 LINE SMOOTH",
"547 142 OFFCURVE",
"481 60 OFFCURVE",
"381 60 CURVE SMOOTH",
"281 60 LINE SMOOTH",
"199 60 OFFCURVE",
"144 125 OFFCURVE",
"144 223 CURVE SMOOTH",
"144 700 LINE",
"70 700 LINE",
"70 223 LINE SMOOTH"
);
}
);
width = 691;
},
{
anchors = (
{
name = bottom;
position = "{346, 0}";
},
{
name = ogonek;
position = "{622, 10}";
},
{
name = top;
position = "{346, 700}";
},
{
name = topright;
position = "{671, 700}";
}
);
background = {
paths = (
{
closed = 1;
nodes = (
"70 95 OFFCURVE",
"154 -6 OFFCURVE",
"281 -6 CURVE SMOOTH",
"381 -6 LINE SMOOTH",
"525 -6 OFFCURVE",
"621 102 OFFCURVE",
"621 265 CURVE SMOOTH",
"621 700 LINE",
"552 700 LINE",
"552 265 LINE SMOOTH",
"552 134 OFFCURVE",
"488 56 OFFCURVE",
"381 56 CURVE SMOOTH",
"281 56 LINE SMOOTH",
"196 56 OFFCURVE",
"139 125 OFFCURVE",
"139 223 CURVE SMOOTH",
"139 700 LINE",
"70 700 LINE",
"70 223 LINE SMOOTH"
);
}
);
};
layerId = "CFC55C35-7F83-4FA6-AE88-8407B7D31CBE";
paths = (
{
closed = 1;
nodes = (
"70 86 OFFCURVE",
"154 -6 OFFCURVE",
"281 -6 CURVE SMOOTH",
"381 -6 LINE SMOOTH",
"525 -6 OFFCURVE",
"621 102 OFFCURVE",
"621 265 CURVE SMOOTH",
"621 700 LINE",
"547 700 LINE",
"547 265 LINE SMOOTH",
"547 142 OFFCURVE",
"481 60 OFFCURVE",
"381 60 CURVE SMOOTH",
"281 60 LINE SMOOTH",
"199 60 OFFCURVE",
"144 125 OFFCURVE",
"144 223 CURVE SMOOTH",
"144 700 LINE",
"70 700 LINE",
"70 223 LINE SMOOTH"
);
}
);
width = 691;
},
{
anchors = (
{
name = bottom;
position = "{346, 0}";
},
{
name = ogonek;
position = "{622, 10}";
},
{
name = top;
position = "{346, 700}";
},
{
name = topright;
position = "{671, 700}";
}
);
background = {
paths = (
{
closed = 1;
nodes = (
"70 86 OFFCURVE",
"154 -6 OFFCURVE",
"281 -6 CURVE SMOOTH",
"381 -6 LINE SMOOTH",
"525 -6 OFFCURVE",
"621 102 OFFCURVE",
"621 265 CURVE SMOOTH",
"621 700 LINE",
"547 700 LINE",
"547 265 LINE SMOOTH",
"547 142 OFFCURVE",
"481 60 OFFCURVE",
"381 60 CURVE SMOOTH",
"281 60 LINE SMOOTH",
"199 60 OFFCURVE",
"144 125 OFFCURVE",
"144 223 CURVE SMOOTH",
"144 700 LINE",
"70 700 LINE",
"70 223 LINE SMOOTH"
);
}
);
};
layerId = "EA06CE92-4115-4482-8874-2441C279E756";
paths = (
{
closed = 1;
nodes = (
"38 96 OFFCURVE",
"135 -7 OFFCURVE",
"281 -7 CURVE SMOOTH",
"381 -7 LINE SMOOTH",
"544 -7 OFFCURVE",
"653 113 OFFCURVE",
"653 292 CURVE SMOOTH",
"653 700 LINE",
"515 700 LINE",
"515 292 LINE SMOOTH",
"515 186 OFFCURVE",
"461 115 OFFCURVE",
"381 115 CURVE SMOOTH",
"281 115 LINE SMOOTH",
"218 115 OFFCURVE",
"176 169 OFFCURVE",
"176 250 CURVE SMOOTH",
"176 700 LINE",
"38 700 LINE",
"38 250 LINE SMOOTH"
);
}
);
width = 691;
}
);
note = U;
unicode = 0055;
},
{
color = 0;
glyphname = V;
lastChange = "2018-02-05 09:20:32 +0000";
layers = (
{
anchors = (
{
name = bottom;
position = "{336, 0}";
},
{
name = top;
position = "{336, 700}";
}
);
background = {
paths = (
{
closed = 1;
nodes = (
"294 12 OFFCURVE",
"313 -6 OFFCURVE",
"349 -6 CURVE SMOOTH",
"369 -6 LINE",
"642 700 LINE",
"566 700 LINE",
"336 91 LINE",
"106 700 LINE",
"30 700 LINE",
"279 51 LINE SMOOTH"
);
}
);
};
layerId = "0B1DFD06-3317-40CA-B510-4969A0718C16";
paths = (
{
closed = 1;
nodes = (
"293 12 OFFCURVE",
"313 -6 OFFCURVE",
"349 -6 CURVE SMOOTH",
"369 -6 LINE",
"642 700 LINE",
"566 700 LINE",
"336 91 LINE",
"335 91 LINE",
"106 700 LINE",
"30 700 LINE",
"278 51 LINE SMOOTH"
);
}
);
width = 672;
},
{
anchors = (
{
name = bottom;
position = "{336, 0}";
},
{
name = top;
position = "{336, 700}";
}
);
background = {
paths = (
{
closed = 1;
nodes = (
"294 12 OFFCURVE",
"313 -6 OFFCURVE",
"349 -6 CURVE SMOOTH",
"369 -6 LINE",
"642 700 LINE",
"566 700 LINE",
"336 91 LINE",
"106 700 LINE",
"30 700 LINE",
"279 51 LINE SMOOTH"
);
}
);
};
layerId = "CFC55C35-7F83-4FA6-AE88-8407B7D31CBE";
paths = (
{
closed = 1;
nodes = (
"293 12 OFFCURVE",
"313 -6 OFFCURVE",
"349 -6 CURVE SMOOTH",
"369 -6 LINE",
"642 700 LINE",
"566 700 LINE",
"336 91 LINE",
"335 91 LINE",
"106 700 LINE",
"30 700 LINE",
"278 51 LINE SMOOTH"
);
}
);
width = 672;
},
{
anchors = (
{
name = bottom;
position = "{336, 0}";
},
{
name = top;
position = "{336, 700}";
}
);
background = {
paths = (
{
closed = 1;
nodes = (
"268 18 OFFCURVE",
"300 -6 OFFCURVE",
"349 -6 CURVE SMOOTH",
"392 -6 LINE",
"677 700 LINE",
"533 700 LINE",
"313 147 LINE",
"358 147 LINE",
"139 700 LINE",
"-4 700 LINE",
"248 69 LINE SMOOTH"
);
}
);
};
layerId = "EA06CE92-4115-4482-8874-2441C279E756";
paths = (
{
closed = 1;
nodes = (
"268 18 OFFCURVE",
"301 -6 OFFCURVE",
"352 -6 CURVE SMOOTH",
"392 -6 LINE",
"677 700 LINE",
"533 700 LINE",
"313 111 LINE",
"358 111 LINE",
"139 700 LINE",
"-4 700 LINE",
"248 69 LINE SMOOTH"
);
}
);
width = 672;
}
);
note = V;
unicode = 0056;
},
{
color = 0;
glyphname = W;
lastChange = "2018-02-05 09:20:32 +0000";
layers = (
{
anchors = (
{
name = bottom;
position = "{410, 0}";
},
{
name = top;
position = "{410, 700}";
}
);
background = {
paths = (
{
closed = 1;
nodes = (
"448 616 OFFCURVE",
"429 633 OFFCURVE",
"403 633 CURVE SMOOTH",
"379 633 LINE",
"206 93 LINE",
"205 93 LINE",
"107 700 LINE",
"32 700 LINE",
"144 59 LINE SMOOTH",
"152 15 OFFCURVE",
"172 -6 OFFCURVE",
"213 -6 CURVE SMOOTH",
"237 -6 LINE",
"411 526 LINE",
"582 -6 LINE",
"606 -6 LINE SMOOTH",
"648 -6 OFFCURVE",
"667 15 OFFCURVE",
"675 59 CURVE SMOOTH",
"787 700 LINE",
"712 700 LINE",
"614 93 LINE",
"613 93 LINE",
"458 583 LINE SMOOTH"
);
}
);
};
layerId = "0B1DFD06-3317-40CA-B510-4969A0718C16";
paths = (
{
closed = 1;
nodes = (
"237 -6 LINE",
"410 528 LINE",
"411 528 LINE",
"582 -6 LINE",
"606 -6 LINE SMOOTH",
"648 -6 OFFCURVE",
"667 15 OFFCURVE",
"675 59 CURVE SMOOTH",
"787 700 LINE",
"712 700 LINE",
"614 94 LINE",
"613 94 LINE",
"458 583 LINE SMOOTH",
"446 619 OFFCURVE",
"431 633 OFFCURVE",
"404 633 CURVE SMOOTH",
"380 633 LINE",
"206 94 LINE",
"205 94 LINE",
"107 700 LINE",
"32 700 LINE",
"144 59 LINE SMOOTH",
"152 15 OFFCURVE",
"172 -6 OFFCURVE",
"213 -6 CURVE SMOOTH"
);
}
);
width = 819;
},
{
anchors = (
{
name = bottom;
position = "{410, 0}";
},
{
name = top;
position = "{410, 700}";
}
);
background = {
paths = (
{
closed = 1;
nodes = (
"448 616 OFFCURVE",
"429 633 OFFCURVE",
"403 633 CURVE SMOOTH",
"379 633 LINE",
"206 93 LINE",
"205 93 LINE",
"107 700 LINE",
"32 700 LINE",
"144 59 LINE SMOOTH",
"152 15 OFFCURVE",
"172 -6 OFFCURVE",
"213 -6 CURVE SMOOTH",
"237 -6 LINE",
"411 526 LINE",
"582 -6 LINE",
"606 -6 LINE SMOOTH",
"648 -6 OFFCURVE",
"667 15 OFFCURVE",
"675 59 CURVE SMOOTH",
"787 700 LINE",
"712 700 LINE",
"614 93 LINE",
"613 93 LINE",
"458 583 LINE SMOOTH"
);
}
);
};
layerId = "CFC55C35-7F83-4FA6-AE88-8407B7D31CBE";
paths = (
{
closed = 1;
nodes = (
"237 -6 LINE",
"410 528 LINE",
"411 528 LINE",
"582 -6 LINE",
"606 -6 LINE SMOOTH",
"648 -6 OFFCURVE",
"667 15 OFFCURVE",
"675 59 CURVE SMOOTH",
"787 700 LINE",
"712 700 LINE",
"614 94 LINE",
"613 94 LINE",
"458 583 LINE SMOOTH",
"446 619 OFFCURVE",
"431 633 OFFCURVE",
"404 633 CURVE SMOOTH",
"380 633 LINE",
"206 94 LINE",
"205 94 LINE",
"107 700 LINE",
"32 700 LINE",
"144 59 LINE SMOOTH",
"152 15 OFFCURVE",
"172 -6 OFFCURVE",
"213 -6 CURVE SMOOTH"
);
}
);
width = 819;
},
{
anchors = (
{
name = bottom;
position = "{410, 0}";
},
{
name = top;
position = "{410, 700}";
}
);
background = {
paths = (
{
closed = 1;
nodes = (
"603 229 LINE",
"489 591 LINE SMOOTH",
"473 638 OFFCURVE",
"446 661 OFFCURVE",
"404 661 CURVE SMOOTH",
"356 661 LINE",
"216 227 LINE",
"135 728 LINE",
"-5 728 LINE",
"112 54 LINE SMOOTH",
"123 -4 OFFCURVE",
"157 -34 OFFCURVE",
"213 -34 CURVE SMOOTH",
"261 -34 LINE",
"410 427 LINE",
"558 -34 LINE",
"606 -34 LINE SMOOTH",
"662 -34 OFFCURVE",
"696 -4 OFFCURVE",
"706 54 CURVE SMOOTH",
"824 728 LINE",
"684 728 LINE"
);
}
);
};
layerId = "EA06CE92-4115-4482-8874-2441C279E756";
paths = (
{
closed = 1;
nodes = (
"261 -6 LINE",
"426 497 LINE",
"395 497 LINE",
"558 -6 LINE",
"606 -6 LINE SMOOTH",
"662 -6 OFFCURVE",
"695 24 OFFCURVE",
"706 82 CURVE SMOOTH",
"820 700 LINE",
"680 700 LINE",
"596 153 LINE",
"616 153 LINE",
"485 563 LINE SMOOTH",
"470 611 OFFCURVE",
"442 633 OFFCURVE",
"400 633 CURVE SMOOTH",
"360 633 LINE",
"203 153 LINE",
"223 153 LINE",
"139 700 LINE",
"-1 700 LINE",
"112 82 LINE SMOOTH",
"123 24 OFFCURVE",
"157 -6 OFFCURVE",
"213 -6 CURVE SMOOTH"
);
}
);
width = 819;
}
);
note = W;
unicode = 0057;
},
{
color = 0;
glyphname = X;
lastChange = "2018-02-05 09:20:32 +0000";
layers = (
{
anchors = (
{
name = bottom;
position = "{332, 0}";
},
{
name = top;
position = "{332, 700}";
}
);
background = {
paths = (
{
closed = 1;
nodes = (
"375 355 LINE",
"622 700 LINE",
"539 700 LINE",
"332 410 LINE",
"126 700 LINE",
"43 700 LINE",
"290 355 LINE",
"35 0 LINE",
"118 0 LINE",
"332 300 LINE",
"545 0 LINE",
"628 0 LINE"
);
}
);
};
layerId = "0B1DFD06-3317-40CA-B510-4969A0718C16";
paths = (
{
closed = 1;
nodes = (
"545 0 LINE",
"628 0 LINE",
"126 700 LINE",
"43 700 LINE"
);
},
{
closed = 1;
nodes = (
"540 700 LINE",
"37 0 LINE",
"120 0 LINE",
"622 700 LINE"
);
}
);
width = 663;
},
{
anchors = (
{
name = bottom;
position = "{332, 0}";
},
{
name = top;
position = "{332, 700}";
}
);
background = {
paths = (
{
closed = 1;
nodes = (
"375 355 LINE",
"622 700 LINE",
"539 700 LINE",
"332 410 LINE",
"126 700 LINE",
"43 700 LINE",
"290 355 LINE",
"35 0 LINE",
"118 0 LINE",
"332 300 LINE",
"545 0 LINE",
"628 0 LINE"
);
}
);
};
layerId = "CFC55C35-7F83-4FA6-AE88-8407B7D31CBE";
paths = (
{
closed = 1;
nodes = (
"545 0 LINE",
"628 0 LINE",
"128 700 LINE",
"45 700 LINE"
);
},
{
closed = 1;
nodes = (
"538 700 LINE",
"37 0 LINE",
"120 0 LINE",
"620 700 LINE"
);
}
);
width = 663;
},
{
anchors = (
{
name = bottom;
position = "{332, 0}";
},
{
name = top;
position = "{332, 700}";
}
);
background = {
paths = (
{
closed = 1;
nodes = (
"527 -28 LINE",
"686 -28 LINE",
"144 728 LINE",
"-15 728 LINE"
);
},
{
closed = 1;
nodes = (
"522 728 LINE",
"-21 -28 LINE",
"138 -28 LINE",
"680 728 LINE"
);
}
);
};
layerId = "EA06CE92-4115-4482-8874-2441C279E756";
paths = (
{
closed = 1;
nodes = (
"507 0 LINE",
"666 0 LINE",
"146 700 LINE",
"-13 700 LINE"
);
},
{
closed = 1;
nodes = (
"500 700 LINE",
"-1 0 LINE",
"158 0 LINE",
"658 700 LINE"
);
}
);
width = 663;
}
);
note = X;
unicode = 0058;
},
{
color = 0;
glyphname = Y;
lastChange = "2018-02-05 09:20:32 +0000";
layers = (
{
anchors = (
{
name = bottom;
position = "{335, 0}";
},
{
name = top;
position = "{335, 700}";
},
{
name = topleft;
position = "{20, 700}";
}
);
layerId = "0B1DFD06-3317-40CA-B510-4969A0718C16";
paths = (
{
closed = 1;
nodes = (
"371 293 LINE",
"639 700 LINE",
"558 700 LINE",
"335 357 LINE",
"111 700 LINE",
"30 700 LINE",
"298 293 LINE",
"298 0 LINE",
"371 0 LINE"
);
}
);
width = 669;
},
{
anchors = (
{
name = bottom;
position = "{335, 0}";
},
{
name = top;
position = "{335, 700}";
},
{
name = topleft;
position = "{20, 700}";
}
);
layerId = "CFC55C35-7F83-4FA6-AE88-8407B7D31CBE";
paths = (
{
closed = 1;
nodes = (
"371 293 LINE",
"639 700 LINE",
"558 700 LINE",
"335 357 LINE",
"111 700 LINE",
"30 700 LINE",
"298 293 LINE",
"298 0 LINE",
"371 0 LINE"
);
}
);
width = 669;
},
{
anchors = (
{
name = bottom;
position = "{335, 0}";
},
{
name = top;
position = "{335, 700}";
},
{
name = topleft;
position = "{20, 700}";
}
);
background = {
paths = (
{
closed = 1;
nodes = (
"403 286 LINE",
"694 728 LINE",
"539 728 LINE",
"335 413 LINE",
"130 728 LINE",
"-25 728 LINE",
"266 286 LINE",
"266 0 LINE",
"403 0 LINE"
);
}
);
};
layerId = "EA06CE92-4115-4482-8874-2441C279E756";
paths = (
{
closed = 1;
nodes = (
"403 286 LINE",
"676 700 LINE",
"521 700 LINE",
"335 411 LINE",
"148 700 LINE",
"-7 700 LINE",
"266 286 LINE",
"266 0 LINE",
"403 0 LINE"
);
}
);
width = 669;
}
);
note = Y;
unicode = 0059;
},
{
color = 0;
glyphname = Z;
lastChange = "2018-02-05 09:20:32 +0000";
layers = (
{
anchors = (
{
name = bottom;
position = "{305, 0}";
},
{
name = top;
position = "{305, 700}";
}
);
background = {
paths = (
{
closed = 1;
nodes = (
"465 639 LINE",
"40 30 LINE",
"40 0 LINE",
"559 0 LINE",
"559 61 LINE",
"144 61 LINE",
"569 670 LINE",
"569 700 LINE",
"60 700 LINE",
"60 639 LINE"
);
}
);
};
layerId = "0B1DFD06-3317-40CA-B510-4969A0718C16";
paths = (
{
closed = 1;
nodes = (
"460 636 LINE",
"40 33 LINE",
"40 0 LINE",
"559 0 LINE",
"559 64 LINE",
"149 64 LINE",
"569 667 LINE",
"569 700 LINE",
"60 700 LINE",
"60 636 LINE"
);
}
);
width = 609;
},
{
anchors = (
{
name = bottom;
position = "{305, 0}";
},
{
name = top;
position = "{305, 700}";
}
);
background = {
paths = (
{
closed = 1;
nodes = (
"465 639 LINE",
"40 30 LINE",
"40 0 LINE",
"559 0 LINE",
"559 61 LINE",
"144 61 LINE",
"569 670 LINE",
"569 700 LINE",
"60 700 LINE",
"60 639 LINE"
);
}
);
};
layerId = "CFC55C35-7F83-4FA6-AE88-8407B7D31CBE";
paths = (
{
closed = 1;
nodes = (
"460 636 LINE",
"40 33 LINE",
"40 0 LINE",
"559 0 LINE",
"559 64 LINE",
"149 64 LINE",
"569 667 LINE",
"569 700 LINE",
"60 700 LINE",
"60 636 LINE"
);
}
);
width = 609;
},
{
anchors = (
{
name = bottom;
position = "{305, 0}";
},
{
name = top;
position = "{305, 700}";
}
);
background = {
paths = (
{
closed = 1;
nodes = (
"403 608 LINE",
"8 41 LINE",
"8 -28 LINE",
"591 -28 LINE",
"591 92 LINE",
"206 92 LINE",
"601 659 LINE",
"601 728 LINE",
"28 728 LINE",
"28 608 LINE"
);
}
);
};
layerId = "EA06CE92-4115-4482-8874-2441C279E756";
paths = (
{
closed = 1;
nodes = (
"393 580 LINE",
"8 69 LINE",
"8 0 LINE",
"590 0 LINE",
"590 120 LINE",
"216 120 LINE",
"600 631 LINE",
"600 700 LINE",
"28 700 LINE",
"28 580 LINE"
);
}
);
width = 609;
}
);
note = Z;
unicode = 005A;
},
{
color = 0;
glyphname = a;
lastChange = "2018-02-05 09:20:32 +0000";
layers = (
{
anchors = (
{
name = bottom;
position = "{274, 0}";
},
{
name = top;
position = "{274, 470}";
}
);
background = {
paths = (
{
closed = 1;
nodes = (
"269 -10 LINE SMOOTH",
"321 -10 OFFCURVE",
"378 22 OFFCURVE",
"408 71 CURVE",
"408 0 LINE",
"478 0 LINE",
"478 501 LINE",
"408 501 LINE",
"408 446 LINE",
"382 483 OFFCURVE",
"343 507 OFFCURVE",
"310 507 CURVE SMOOTH",
"248 507 LINE SMOOTH",
"129 507 OFFCURVE",
"50 422 OFFCURVE",
"50 294 CURVE SMOOTH",
"50 167 LINE SMOOTH",
"50 61 OFFCURVE",
"113 -10 OFFCURVE",
"207 -10 CURVE SMOOTH"
);
},
{
closed = 1;
nodes = (
"156 54 OFFCURVE",
"122 99 OFFCURVE",
"122 167 CURVE SMOOTH",
"122 294 LINE SMOOTH",
"122 383 OFFCURVE",
"172 443 OFFCURVE",
"248 443 CURVE SMOOTH",
"305 443 LINE SMOOTH",
"356 443 OFFCURVE",
"397 395 OFFCURVE",
"406 324 CURVE",
"406 187 LINE",
"387 107 OFFCURVE",
"333 54 OFFCURVE",
"269 54 CURVE SMOOTH",
"207 54 LINE SMOOTH"
);
}
);
};
layerId = "0B1DFD06-3317-40CA-B510-4969A0718C16";
paths = (
{
closed = 1;
nodes = (
"269 -10 LINE SMOOTH",
"334 -10 OFFCURVE",
"397 28 OFFCURVE",
"426 84 CURVE",
"426 0 LINE",
"458 0 LINE",
"458 501 LINE",
"428 501 LINE",
"428 432 LINE",
"404 477 OFFCURVE",
"355 507 OFFCURVE",
"305 507 CURVE SMOOTH",
"243 507 LINE SMOOTH",
"139 507 OFFCURVE",
"70 429 OFFCURVE",
"70 311 CURVE SMOOTH",
"70 150 LINE SMOOTH",
"70 54 OFFCURVE",
"125 -10 OFFCURVE",
"207 -10 CURVE SMOOTH"
);
},
{
closed = 1;
nodes = (
"144 20 OFFCURVE",
"102 72 OFFCURVE",
"102 150 CURVE SMOOTH",
"102 311 LINE SMOOTH",
"102 411 OFFCURVE",
"158 477 OFFCURVE",
"243 477 CURVE SMOOTH",
"305 477 LINE SMOOTH",
"373 477 OFFCURVE",
"421 425 OFFCURVE",
"426 346 CURVE",
"426 179 LINE",
"420 84 OFFCURVE",
"357 20 OFFCURVE",
"269 20 CURVE SMOOTH",
"207 20 LINE SMOOTH"
);
}
);
width = 548;
},
{
anchors = (
{
name = bottom;
position = "{274, 0}";
},
{
name = top;
position = "{274, 470}";
}
);
background = {
paths = (
{
closed = 1;
nodes = (
"411 0 LINE",
"478 0 LINE",
"478 501 LINE",
"413 501 LINE",
"413 446 LINE",
"387 483 OFFCURVE",
"344 507 OFFCURVE",
"305 507 CURVE SMOOTH",
"243 507 LINE SMOOTH",
"127 507 OFFCURVE",
"50 422 OFFCURVE",
"50 294 CURVE SMOOTH",
"50 167 LINE SMOOTH",
"50 61 OFFCURVE",
"113 -10 OFFCURVE",
"207 -10 CURVE SMOOTH",
"269 -10 LINE SMOOTH",
"324 -10 OFFCURVE",
"381 22 OFFCURVE",
"411 71 CURVE"
);
},
{
closed = 1;
nodes = (
"411 196 LINE",
"406 119 OFFCURVE",
"344 51 OFFCURVE",
"269 51 CURVE SMOOTH",
"207 51 LINE SMOOTH",
"153 51 OFFCURVE",
"117 97 OFFCURVE",
"117 167 CURVE SMOOTH",
"117 294 LINE SMOOTH",
"117 385 OFFCURVE",
"167 446 OFFCURVE",
"243 446 CURVE SMOOTH",
"305 446 LINE SMOOTH",
"358 446 OFFCURVE",
"406 394 OFFCURVE",
"411 329 CURVE"
);
}
);
};
layerId = "CFC55C35-7F83-4FA6-AE88-8407B7D31CBE";
paths = (
{
closed = 1;
nodes = (
"269 -10 LINE SMOOTH",
"321 -10 OFFCURVE",
"378 22 OFFCURVE",
"408 71 CURVE",
"408 0 LINE",
"478 0 LINE",
"478 501 LINE",
"408 501 LINE",
"408 446 LINE",
"382 483 OFFCURVE",
"343 507 OFFCURVE",
"310 507 CURVE SMOOTH",
"248 507 LINE SMOOTH",
"129 507 OFFCURVE",
"50 422 OFFCURVE",
"50 294 CURVE SMOOTH",
"50 167 LINE SMOOTH",
"50 61 OFFCURVE",
"113 -10 OFFCURVE",
"207 -10 CURVE SMOOTH"
);
},
{
closed = 1;
nodes = (
"156 54 OFFCURVE",
"122 99 OFFCURVE",
"122 167 CURVE SMOOTH",
"122 294 LINE SMOOTH",
"122 383 OFFCURVE",
"172 443 OFFCURVE",
"248 443 CURVE SMOOTH",
"305 443 LINE SMOOTH",
"356 443 OFFCURVE",
"397 395 OFFCURVE",
"406 324 CURVE",
"406 187 LINE",
"387 107 OFFCURVE",
"333 54 OFFCURVE",
"269 54 CURVE SMOOTH",
"207 54 LINE SMOOTH"
);
}
);
width = 548;
},
{
anchors = (
{
name = bottom;
position = "{274, 0}";
},
{
name = top;
position = "{274, 470}";
}
);
background = {
paths = (
{
closed = 1;
nodes = (
"269 -10 LINE SMOOTH",
"308 -10 OFFCURVE",
"354 14 OFFCURVE",
"382 49 CURVE",
"382 0 LINE",
"510 0 LINE",
"510 501 LINE",
"382 501 LINE",
"382 463 LINE",
"357 489 OFFCURVE",
"322 507 OFFCURVE",
"295 507 CURVE SMOOTH",
"223 507 LINE SMOOTH",
"100 507 OFFCURVE",
"18 419 OFFCURVE",
"18 286 CURVE SMOOTH",
"18 175 LINE SMOOTH",
"18 64 OFFCURVE",
"86 -10 OFFCURVE",
"187 -10 CURVE SMOOTH"
);
},
{
closed = 1;
nodes = (
"175 108 OFFCURVE",
"154 136 OFFCURVE",
"154 175 CURVE SMOOTH",
"154 286 LINE SMOOTH",
"154 347 OFFCURVE",
"190 389 OFFCURVE",
"243 389 CURVE SMOOTH",
"295 389 LINE SMOOTH",
"338 389 OFFCURVE",
"370 356 OFFCURVE",
"374 310 CURVE",
"374 215 LINE",
"369 152 OFFCURVE",
"327 108 OFFCURVE",
"269 108 CURVE SMOOTH",
"207 108 LINE SMOOTH"
);
}
);
};
layerId = "EA06CE92-4115-4482-8874-2441C279E756";
paths = (
{
closed = 1;
nodes = (
"259 -10 LINE SMOOTH",
"306 -10 OFFCURVE",
"356 18 OFFCURVE",
"384 60 CURVE",
"384 0 LINE",
"510 0 LINE",
"510 501 LINE",
"384 501 LINE",
"384 451 LINE",
"356 486 OFFCURVE",
"318 507 OFFCURVE",
"281 507 CURVE SMOOTH",
"223 507 LINE SMOOTH",
"100 507 OFFCURVE",
"18 419 OFFCURVE",
"18 286 CURVE SMOOTH",
"18 175 LINE SMOOTH",
"18 64 OFFCURVE",
"86 -10 OFFCURVE",
"187 -10 CURVE SMOOTH"
);
},
{
closed = 1;
nodes = (
"180 108 OFFCURVE",
"154 135 OFFCURVE",
"154 175 CURVE SMOOTH",
"154 286 LINE SMOOTH",
"154 348 OFFCURVE",
"190 389 OFFCURVE",
"243 389 CURVE SMOOTH",
"295 389 LINE SMOOTH",
"338 389 OFFCURVE",
"370 357 OFFCURVE",
"374 310 CURVE",
"374 215 LINE",
"369 151 OFFCURVE",
"327 108 OFFCURVE",
"269 108 CURVE SMOOTH",
"215 108 LINE SMOOTH"
);
}
);
width = 548;
}
);
note = a;
unicode = 0061;
},
{
color = 0;
glyphname = b;
lastChange = "2018-02-05 09:20:32 +0000";
layers = (
{
anchors = (
{
name = bottom;
position = "{274, 0}";
},
{
name = top;
position = "{274, 470}";
}
);
background = {
paths = (
{
closed = 1;
nodes = (
"184 51 OFFCURVE",
"143 111 OFFCURVE",
"137 200 CURVE",
"137 335 LINE",
"144 404 OFFCURVE",
"208 446 OFFCURVE",
"262 446 CURVE SMOOTH",
"323 446 LINE SMOOTH",
"384 446 OFFCURVE",
"425 402 OFFCURVE",
"425 336 CURVE SMOOTH",
"425 206 LINE SMOOTH",
"425 113 OFFCURVE",
"381 51 OFFCURVE",
"299 51 CURVE SMOOTH",
"254 51 LINE SMOOTH"
);
},
{
closed = 1;
nodes = (
"299 -10 LINE SMOOTH",
"421 -10 OFFCURVE",
"492 76 OFFCURVE",
"492 206 CURVE SMOOTH",
"492 336 LINE SMOOTH",
"492 439 OFFCURVE",
"424 507 OFFCURVE",
"323 507 CURVE SMOOTH",
"262 507 LINE SMOOTH",
"215 507 OFFCURVE",
"166 482 OFFCURVE",
"137 445 CURVE",
"137 700 LINE",
"70 700 LINE",
"70 0 LINE",
"135 0 LINE",
"135 69 LINE",
"164 22 OFFCURVE",
"206 -10 OFFCURVE",
"254 -10 CURVE SMOOTH"
);
}
);
};
layerId = "0B1DFD06-3317-40CA-B510-4969A0718C16";
paths = (
{
closed = 1;
nodes = (
"142 700 LINE",
"70 700 LINE",
"70 -4 LINE",
"140 -4 LINE",
"140 53 LINE",
"169 16 OFFCURVE",
"208 -10 OFFCURVE",
"248 -10 CURVE SMOOTH",
"306 -10 LINE SMOOTH",
"422 -10 OFFCURVE",
"498 71 OFFCURVE",
"498 193 CURVE SMOOTH",
"498 330 LINE SMOOTH",
"498 436 OFFCURVE",
"435 507 OFFCURVE",
"341 507 CURVE SMOOTH",
"279 507 LINE SMOOTH",
"224 507 OFFCURVE",
"176 482 OFFCURVE",
"142 433 CURVE"
);
},
{
closed = 1;
nodes = (
"142 301 LINE",
"147 378 OFFCURVE",
"204 443 OFFCURVE",
"279 443 CURVE SMOOTH",
"341 443 LINE SMOOTH",
"395 443 OFFCURVE",
"426 400 OFFCURVE",
"426 330 CURVE SMOOTH",
"426 193 LINE SMOOTH",
"426 108 OFFCURVE",
"382 54 OFFCURVE",
"306 54 CURVE SMOOTH",
"248 54 LINE SMOOTH",
"195 54 OFFCURVE",
"147 105 OFFCURVE",
"142 170 CURVE"
);
}
);
width = 548;
},
{
anchors = (
{
name = bottom;
position = "{274, 0}";
},
{
name = top;
position = "{274, 470}";
}
);
background = {
paths = (
{
closed = 1;
nodes = (
"184 51 OFFCURVE",
"143 111 OFFCURVE",
"137 200 CURVE",
"137 335 LINE",
"144 404 OFFCURVE",
"208 446 OFFCURVE",
"262 446 CURVE SMOOTH",
"323 446 LINE SMOOTH",
"384 446 OFFCURVE",
"425 402 OFFCURVE",
"425 336 CURVE SMOOTH",
"425 206 LINE SMOOTH",
"425 113 OFFCURVE",
"381 51 OFFCURVE",
"299 51 CURVE SMOOTH",
"254 51 LINE SMOOTH"
);
},
{
closed = 1;
nodes = (
"299 -10 LINE SMOOTH",
"421 -10 OFFCURVE",
"492 76 OFFCURVE",
"492 206 CURVE SMOOTH",
"492 336 LINE SMOOTH",
"492 439 OFFCURVE",
"424 507 OFFCURVE",
"323 507 CURVE SMOOTH",
"262 507 LINE SMOOTH",
"215 507 OFFCURVE",
"166 482 OFFCURVE",
"137 445 CURVE",
"137 700 LINE",
"70 700 LINE",
"70 0 LINE",
"135 0 LINE",
"135 69 LINE",
"164 22 OFFCURVE",
"206 -10 OFFCURVE",
"254 -10 CURVE SMOOTH"
);
}
);
};
layerId = "CFC55C35-7F83-4FA6-AE88-8407B7D31CBE";
paths = (
{
closed = 1;
nodes = (
"142 700 LINE",
"70 700 LINE",
"70 -4 LINE",
"140 -4 LINE",
"140 53 LINE",
"169 16 OFFCURVE",
"208 -10 OFFCURVE",
"248 -10 CURVE SMOOTH",
"306 -10 LINE SMOOTH",
"422 -10 OFFCURVE",
"498 71 OFFCURVE",
"498 193 CURVE SMOOTH",
"498 330 LINE SMOOTH",
"498 436 OFFCURVE",
"435 507 OFFCURVE",
"341 507 CURVE SMOOTH",
"279 507 LINE SMOOTH",
"224 507 OFFCURVE",
"176 482 OFFCURVE",
"142 433 CURVE"
);
},
{
closed = 1;
nodes = (
"142 301 LINE",
"147 378 OFFCURVE",
"204 443 OFFCURVE",
"279 443 CURVE SMOOTH",
"341 443 LINE SMOOTH",
"395 443 OFFCURVE",
"426 400 OFFCURVE",
"426 330 CURVE SMOOTH",
"426 193 LINE SMOOTH",
"426 108 OFFCURVE",
"382 54 OFFCURVE",
"306 54 CURVE SMOOTH",
"248 54 LINE SMOOTH",
"195 54 OFFCURVE",
"147 105 OFFCURVE",
"142 170 CURVE"
);
}
);
width = 548;
},
{
anchors = (
{
name = bottom;
position = "{274, 0}";
},
{
name = top;
position = "{274, 470}";
}
);
background = {
paths = (
{
closed = 1;
nodes = (
"174 700 LINE",
"38 700 LINE",
"38 0 LINE",
"172 0 LINE",
"172 17 LINE",
"196 2 OFFCURVE",
"223 -6 OFFCURVE",
"248 -6 CURVE SMOOTH",
"306 -6 LINE SMOOTH",
"439 -6 OFFCURVE",
"530 87 OFFCURVE",
"530 225 CURVE SMOOTH",
"530 302 LINE SMOOTH",
"530 424 OFFCURVE",
"453 507 OFFCURVE",
"341 507 CURVE SMOOTH",
"279 507 LINE SMOOTH",
"241 507 OFFCURVE",
"205 497 OFFCURVE",
"174 477 CURVE"
);
},
{
closed = 1;
nodes = (
"174 272 LINE",
"179 337 OFFCURVE",
"225 387 OFFCURVE",
"279 387 CURVE SMOOTH",
"341 387 LINE SMOOTH",
"374 387 OFFCURVE",
"394 358 OFFCURVE",
"394 302 CURVE SMOOTH",
"394 225 LINE SMOOTH",
"394 154 OFFCURVE",
"362 114 OFFCURVE",
"306 114 CURVE SMOOTH",
"248 114 LINE SMOOTH",
"212 114 OFFCURVE",
"178 154 OFFCURVE",
"174 203 CURVE"
);
}
);
};
layerId = "EA06CE92-4115-4482-8874-2441C279E756";
paths = (
{
closed = 1;
nodes = (
"174 700 LINE",
"38 700 LINE",
"38 0 LINE",
"164 0 LINE",
"164 60 LINE",
"192 18 OFFCURVE",
"235 -10 OFFCURVE",
"276 -10 CURVE SMOOTH",
"334 -10 LINE SMOOTH",
"457 -10 OFFCURVE",
"530 77 OFFCURVE",
"530 225 CURVE SMOOTH",
"530 302 LINE SMOOTH",
"530 431 OFFCURVE",
"460 507 OFFCURVE",
"341 507 CURVE SMOOTH",
"279 507 LINE SMOOTH",
"245 507 OFFCURVE",
"203 489 OFFCURVE",
"174 461 CURVE"
);
},
{
closed = 1;
nodes = (
"174 282 LINE",
"179 345 OFFCURVE",
"221 387 OFFCURVE",
"279 387 CURVE SMOOTH",
"339 387 LINE SMOOTH",
"374 387 OFFCURVE",
"394 355 OFFCURVE",
"394 302 CURVE SMOOTH",
"394 225 LINE SMOOTH",
"394 151 OFFCURVE",
"364 108 OFFCURVE",
"314 108 CURVE SMOOTH",
"256 108 LINE SMOOTH",
"211 108 OFFCURVE",
"178 142 OFFCURVE",
"174 193 CURVE"
);
}
);
width = 548;
}
);
note = b;
unicode = 0062;
},
{
color = 0;
glyphname = c;
lastChange = "2018-02-05 09:20:32 +0000";
layers = (
{
background = {
paths = (
{
closed = 1;
nodes = (
"474 351 LINE",
"474 445 OFFCURVE",
"408 507 OFFCURVE",
"308 507 CURVE SMOOTH",
"238 507 LINE SMOOTH",
"125 507 OFFCURVE",
"50 425 OFFCURVE",
"50 301 CURVE SMOOTH",
"50 171 LINE SMOOTH",
"50 62 OFFCURVE",
"118 -10 OFFCURVE",
"220 -10 CURVE SMOOTH",
"291 -10 LINE SMOOTH",
"402 -10 OFFCURVE",
"476 64 OFFCURVE",
"476 175 CURVE",
"409 175 LINE",
"409 101 OFFCURVE",
"362 51 OFFCURVE",
"291 51 CURVE SMOOTH",
"220 51 LINE SMOOTH",
"158 51 OFFCURVE",
"117 99 OFFCURVE",
"117 171 CURVE SMOOTH",
"117 301 LINE SMOOTH",
"117 388 OFFCURVE",
"165 446 OFFCURVE",
"238 446 CURVE SMOOTH",
"308 446 LINE SMOOTH",
"368 446 OFFCURVE",
"408 408 OFFCURVE",
"408 351 CURVE"
);
}
);
};
layerId = "0B1DFD06-3317-40CA-B510-4969A0718C16";
paths = (
{
closed = 1;
nodes = (
"474 351 LINE",
"474 445 OFFCURVE",
"408 507 OFFCURVE",
"308 507 CURVE SMOOTH",
"238 507 LINE SMOOTH",
"125 507 OFFCURVE",
"50 425 OFFCURVE",
"50 301 CURVE SMOOTH",
"50 171 LINE SMOOTH",
"50 62 OFFCURVE",
"118 -10 OFFCURVE",
"220 -10 CURVE SMOOTH",
"291 -10 LINE SMOOTH",
"402 -10 OFFCURVE",
"476 64 OFFCURVE",
"476 175 CURVE",
"405 175 LINE",
"405 102 OFFCURVE",
"359 54 OFFCURVE",
"291 54 CURVE SMOOTH",
"220 54 LINE SMOOTH",
"161 54 OFFCURVE",
"122 101 OFFCURVE",
"122 171 CURVE SMOOTH",
"122 301 LINE SMOOTH",
"122 386 OFFCURVE",
"168 443 OFFCURVE",
"238 443 CURVE SMOOTH",
"308 443 LINE SMOOTH",
"366 443 OFFCURVE",
"404 406 OFFCURVE",
"404 351 CURVE"
);
}
);
width = 526;
},
{
background = {
paths = (
{
closed = 1;
nodes = (
"474 351 LINE",
"474 445 OFFCURVE",
"408 507 OFFCURVE",
"308 507 CURVE SMOOTH",
"238 507 LINE SMOOTH",
"125 507 OFFCURVE",
"50 425 OFFCURVE",
"50 301 CURVE SMOOTH",
"50 171 LINE SMOOTH",
"50 62 OFFCURVE",
"118 -10 OFFCURVE",
"220 -10 CURVE SMOOTH",
"291 -10 LINE SMOOTH",
"402 -10 OFFCURVE",
"476 64 OFFCURVE",
"476 175 CURVE",
"409 175 LINE",
"409 101 OFFCURVE",
"362 51 OFFCURVE",
"291 51 CURVE SMOOTH",
"220 51 LINE SMOOTH",
"158 51 OFFCURVE",
"117 99 OFFCURVE",
"117 171 CURVE SMOOTH",
"117 301 LINE SMOOTH",
"117 388 OFFCURVE",
"165 446 OFFCURVE",
"238 446 CURVE SMOOTH",
"308 446 LINE SMOOTH",
"368 446 OFFCURVE",
"408 408 OFFCURVE",
"408 351 CURVE"
);
}
);
};
layerId = "CFC55C35-7F83-4FA6-AE88-8407B7D31CBE";
paths = (
{
closed = 1;
nodes = (
"474 351 LINE",
"474 445 OFFCURVE",
"408 507 OFFCURVE",
"308 507 CURVE SMOOTH",
"238 507 LINE SMOOTH",
"125 507 OFFCURVE",
"50 425 OFFCURVE",
"50 301 CURVE SMOOTH",
"50 171 LINE SMOOTH",
"50 62 OFFCURVE",
"118 -10 OFFCURVE",
"220 -10 CURVE SMOOTH",
"291 -10 LINE SMOOTH",
"402 -10 OFFCURVE",
"476 64 OFFCURVE",
"476 175 CURVE",
"405 175 LINE",
"405 102 OFFCURVE",
"359 54 OFFCURVE",
"291 54 CURVE SMOOTH",
"220 54 LINE SMOOTH",
"161 54 OFFCURVE",
"122 101 OFFCURVE",
"122 171 CURVE SMOOTH",
"122 301 LINE SMOOTH",
"122 386 OFFCURVE",
"168 443 OFFCURVE",
"238 443 CURVE SMOOTH",
"308 443 LINE SMOOTH",
"366 443 OFFCURVE",
"404 406 OFFCURVE",
"404 351 CURVE"
);
}
);
width = 526;
},
{
background = {
paths = (
{
closed = 1;
nodes = (
"504 295 LINE",
"519 419 OFFCURVE",
"435 507 OFFCURVE",
"308 507 CURVE SMOOTH",
"238 507 LINE SMOOTH",
"107 507 OFFCURVE",
"18 412 OFFCURVE",
"18 273 CURVE SMOOTH",
"18 199 LINE SMOOTH",
"18 75 OFFCURVE",
"100 -10 OFFCURVE",
"220 -10 CURVE SMOOTH",
"291 -10 LINE SMOOTH",
"429 -10 OFFCURVE",
"521 90 OFFCURVE",
"507 231 CURVE",
"371 231 LINE",
"382 157 OFFCURVE",
"349 110 OFFCURVE",
"291 110 CURVE SMOOTH",
"220 110 LINE SMOOTH",
"180 110 OFFCURVE",
"154 144 OFFCURVE",
"154 199 CURVE SMOOTH",
"154 273 LINE SMOOTH",
"154 344 OFFCURVE",
"188 387 OFFCURVE",
"238 387 CURVE SMOOTH",
"308 387 LINE SMOOTH",
"357 387 OFFCURVE",
"382 351 OFFCURVE",
"369 295 CURVE"
);
}
);
};
layerId = "EA06CE92-4115-4482-8874-2441C279E756";
paths = (
{
closed = 1;
nodes = (
"504 315 LINE",
"504 430 OFFCURVE",
"426 507 OFFCURVE",
"308 507 CURVE SMOOTH",
"238 507 LINE SMOOTH",
"106 507 OFFCURVE",
"18 413 OFFCURVE",
"18 273 CURVE SMOOTH",
"18 199 LINE SMOOTH",
"18 74 OFFCURVE",
"99 -10 OFFCURVE",
"220 -10 CURVE SMOOTH",
"291 -10 LINE SMOOTH",
"420 -10 OFFCURVE",
"506 79 OFFCURVE",
"506 212 CURVE",
"370 212 LINE",
"370 151 OFFCURVE",
"338 110 OFFCURVE",
"291 110 CURVE SMOOTH",
"220 110 LINE SMOOTH",
"180 110 OFFCURVE",
"154 146 OFFCURVE",
"154 199 CURVE SMOOTH",
"154 273 LINE SMOOTH",
"154 341 OFFCURVE",
"188 387 OFFCURVE",
"238 387 CURVE SMOOTH",
"308 387 LINE SMOOTH",
"345 387 OFFCURVE",
"369 358 OFFCURVE",
"369 315 CURVE"
);
}
);
width = 526;
}
);
note = c;
unicode = 0063;
},
{
color = 0;
glyphname = d;
lastChange = "2018-02-05 09:20:32 +0000";
layers = (
{
anchors = (
{
name = bottom;
position = "{274, 0}";
},
{
name = center;
position = "{274, 235}";
},
{
name = top;
position = "{274, 470}";
},
{
name = topright;
position = "{528, 470}";
}
);
background = {
paths = (
{
closed = 1;
nodes = (
"269 -10 LINE SMOOTH",
"321 -10 OFFCURVE",
"378 22 OFFCURVE",
"408 71 CURVE",
"408 0 LINE",
"478 0 LINE",
"478 501 LINE",
"408 501 LINE",
"408 446 LINE",
"382 483 OFFCURVE",
"341 507 OFFCURVE",
"305 507 CURVE SMOOTH",
"243 507 LINE SMOOTH",
"127 507 OFFCURVE",
"50 422 OFFCURVE",
"50 294 CURVE SMOOTH",
"50 167 LINE SMOOTH",
"50 61 OFFCURVE",
"113 -10 OFFCURVE",
"207 -10 CURVE SMOOTH"
);
},
{
closed = 1;
nodes = (
"156 54 OFFCURVE",
"122 99 OFFCURVE",
"122 167 CURVE SMOOTH",
"122 294 LINE SMOOTH",
"122 383 OFFCURVE",
"170 443 OFFCURVE",
"243 443 CURVE SMOOTH",
"305 443 LINE SMOOTH",
"356 443 OFFCURVE",
"397 395 OFFCURVE",
"406 324 CURVE",
"406 187 LINE",
"387 107 OFFCURVE",
"333 54 OFFCURVE",
"269 54 CURVE SMOOTH",
"207 54 LINE SMOOTH"
);
}
);
};
layerId = "0B1DFD06-3317-40CA-B510-4969A0718C16";
paths = (
{
closed = 1;
nodes = (
"381 484 OFFCURVE",
"343 507 OFFCURVE",
"310 507 CURVE SMOOTH",
"248 507 LINE SMOOTH",
"129 507 OFFCURVE",
"50 422 OFFCURVE",
"50 294 CURVE SMOOTH",
"50 167 LINE SMOOTH",
"50 61 OFFCURVE",
"113 -10 OFFCURVE",
"207 -10 CURVE SMOOTH",
"269 -10 LINE SMOOTH",
"321 -10 OFFCURVE",
"378 22 OFFCURVE",
"408 71 CURVE",
"408 0 LINE",
"478 0 LINE",
"478 700 LINE",
"406 700 LINE",
"406 447 LINE"
);
},
{
closed = 1;
nodes = (
"122 383 OFFCURVE",
"172 443 OFFCURVE",
"248 443 CURVE SMOOTH",
"305 443 LINE SMOOTH",
"356 443 OFFCURVE",
"397 395 OFFCURVE",
"406 324 CURVE",
"406 187 LINE",
"387 107 OFFCURVE",
"333 54 OFFCURVE",
"269 54 CURVE SMOOTH",
"207 54 LINE SMOOTH",
"156 54 OFFCURVE",
"122 99 OFFCURVE",
"122 167 CURVE SMOOTH",
"122 294 LINE SMOOTH"
);
}
);
width = 548;
},
{
anchors = (
{
name = bottom;
position = "{274, 0}";
},
{
name = center;
position = "{274, 235}";
},
{
name = top;
position = "{274, 470}";
},
{
name = topright;
position = "{528, 470}";
}
);
background = {
paths = (
{
closed = 1;
nodes = (
"269 -10 LINE SMOOTH",
"321 -10 OFFCURVE",
"378 22 OFFCURVE",
"408 71 CURVE",
"408 0 LINE",
"478 0 LINE",
"478 501 LINE",
"408 501 LINE",
"408 446 LINE",
"382 483 OFFCURVE",
"341 507 OFFCURVE",
"305 507 CURVE SMOOTH",
"243 507 LINE SMOOTH",
"127 507 OFFCURVE",
"50 422 OFFCURVE",
"50 294 CURVE SMOOTH",
"50 167 LINE SMOOTH",
"50 61 OFFCURVE",
"113 -10 OFFCURVE",
"207 -10 CURVE SMOOTH"
);
},
{
closed = 1;
nodes = (
"156 54 OFFCURVE",
"122 99 OFFCURVE",
"122 167 CURVE SMOOTH",
"122 294 LINE SMOOTH",
"122 383 OFFCURVE",
"170 443 OFFCURVE",
"243 443 CURVE SMOOTH",
"305 443 LINE SMOOTH",
"356 443 OFFCURVE",
"397 395 OFFCURVE",
"406 324 CURVE",
"406 187 LINE",
"387 107 OFFCURVE",
"333 54 OFFCURVE",
"269 54 CURVE SMOOTH",
"207 54 LINE SMOOTH"
);
}
);
};
layerId = "CFC55C35-7F83-4FA6-AE88-8407B7D31CBE";
paths = (
{
closed = 1;
nodes = (
"381 484 OFFCURVE",
"343 507 OFFCURVE",
"310 507 CURVE SMOOTH",
"248 507 LINE SMOOTH",
"129 507 OFFCURVE",
"50 422 OFFCURVE",
"50 294 CURVE SMOOTH",
"50 167 LINE SMOOTH",
"50 61 OFFCURVE",
"113 -10 OFFCURVE",
"207 -10 CURVE SMOOTH",
"269 -10 LINE SMOOTH",
"321 -10 OFFCURVE",
"378 22 OFFCURVE",
"408 71 CURVE",
"408 0 LINE",
"478 0 LINE",
"478 700 LINE",
"406 700 LINE",
"406 447 LINE"
);
},
{
closed = 1;
nodes = (
"122 383 OFFCURVE",
"172 443 OFFCURVE",
"248 443 CURVE SMOOTH",
"305 443 LINE SMOOTH",
"356 443 OFFCURVE",
"397 395 OFFCURVE",
"406 324 CURVE",
"406 187 LINE",
"387 107 OFFCURVE",
"333 54 OFFCURVE",
"269 54 CURVE SMOOTH",
"207 54 LINE SMOOTH",
"156 54 OFFCURVE",
"122 99 OFFCURVE",
"122 167 CURVE SMOOTH",
"122 294 LINE SMOOTH"
);
}
);
width = 548;
},
{
anchors = (
{
name = bottom;
position = "{274, 0}";
},
{
name = center;
position = "{274, 235}";
},
{
name = top;
position = "{274, 470}";
},
{
name = topright;
position = "{528, 470}";
}
);
background = {
paths = (
{
closed = 1;
nodes = (
"259 -10 LINE SMOOTH",
"306 -10 OFFCURVE",
"356 18 OFFCURVE",
"384 60 CURVE",
"384 0 LINE",
"510 0 LINE",
"510 700 LINE",
"384 700 LINE",
"384 451 LINE",
"356 486 OFFCURVE",
"318 507 OFFCURVE",
"281 507 CURVE SMOOTH",
"223 507 LINE SMOOTH",
"100 507 OFFCURVE",
"18 419 OFFCURVE",
"18 286 CURVE SMOOTH",
"18 175 LINE SMOOTH",
"18 64 OFFCURVE",
"86 -10 OFFCURVE",
"187 -10 CURVE SMOOTH"
);
},
{
closed = 1;
nodes = (
"180 108 OFFCURVE",
"154 135 OFFCURVE",
"154 175 CURVE SMOOTH",
"154 286 LINE SMOOTH",
"154 348 OFFCURVE",
"190 389 OFFCURVE",
"243 389 CURVE SMOOTH",
"295 389 LINE SMOOTH",
"338 389 OFFCURVE",
"370 357 OFFCURVE",
"374 310 CURVE",
"374 215 LINE",
"369 151 OFFCURVE",
"327 108 OFFCURVE",
"269 108 CURVE SMOOTH",
"215 108 LINE SMOOTH"
);
}
);
};
layerId = "EA06CE92-4115-4482-8874-2441C279E756";
paths = (
{
closed = 1;
nodes = (
"259 -10 LINE SMOOTH",
"306 -10 OFFCURVE",
"356 18 OFFCURVE",
"384 60 CURVE",
"384 0 LINE",
"510 0 LINE",
"510 700 LINE",
"374 700 LINE",
"374 461 LINE",
"352 489 OFFCURVE",
"315 507 OFFCURVE",
"281 507 CURVE SMOOTH",
"223 507 LINE SMOOTH",
"100 507 OFFCURVE",
"18 419 OFFCURVE",
"18 286 CURVE SMOOTH",
"18 175 LINE SMOOTH",
"18 64 OFFCURVE",
"86 -10 OFFCURVE",
"187 -10 CURVE SMOOTH"
);
},
{
closed = 1;
nodes = (
"180 108 OFFCURVE",
"154 135 OFFCURVE",
"154 175 CURVE SMOOTH",
"154 286 LINE SMOOTH",
"154 348 OFFCURVE",
"190 389 OFFCURVE",
"243 389 CURVE SMOOTH",
"295 389 LINE SMOOTH",
"338 389 OFFCURVE",
"370 357 OFFCURVE",
"374 310 CURVE",
"374 215 LINE",
"369 151 OFFCURVE",
"327 108 OFFCURVE",
"269 108 CURVE SMOOTH",
"215 108 LINE SMOOTH"
);
}
);
width = 548;
}
);
note = d;
unicode = 0064;
},
{
color = 0;
glyphname = e;
lastChange = "2018-02-05 09:20:32 +0000";
layers = (
{
anchors = (
{
name = bottom;
position = "{267, 0}";
},
{
name = ogonek;
position = "{481, 10}";
},
{
name = top;
position = "{267, 470}";
}
);
background = {
paths = (
{
closed = 1;
nodes = (
"412 261 LINE",
"484 261 LINE",
"484 316 LINE SMOOTH",
"484 431 OFFCURVE",
"415 507 OFFCURVE",
"311 507 CURVE SMOOTH",
"239 507 LINE SMOOTH",
"126 507 OFFCURVE",
"50 425 OFFCURVE",
"50 301 CURVE SMOOTH",
"50 171 LINE SMOOTH",
"50 68 OFFCURVE",
"120 -10 OFFCURVE",
"224 -10 CURVE SMOOTH",
"295 -10 LINE SMOOTH",
"407 -10 OFFCURVE",
"482 60 OFFCURVE",
"482 165 CURVE",
"415 165 LINE",
"415 97 OFFCURVE",
"367 51 OFFCURVE",
"295 51 CURVE SMOOTH",
"224 51 LINE SMOOTH",
"160 51 OFFCURVE",
"117 105 OFFCURVE",
"117 171 CURVE SMOOTH",
"117 301 LINE SMOOTH",
"117 388 OFFCURVE",
"166 446 OFFCURVE",
"239 446 CURVE SMOOTH",
"311 446 LINE SMOOTH",
"375 446 OFFCURVE",
"412 394 OFFCURVE",
"412 316 CURVE"
);
},
{
closed = 1;
nodes = (
"61 236 LINE",
"484 236 LINE",
"484 295 LINE",
"61 295 LINE"
);
}
);
};
layerId = "0B1DFD06-3317-40CA-B510-4969A0718C16";
paths = (
{
closed = 1;
nodes = (
"412 261 LINE",
"484 261 LINE",
"484 326 LINE SMOOTH",
"484 435 OFFCURVE",
"414 507 OFFCURVE",
"310 507 CURVE SMOOTH",
"238 507 LINE SMOOTH",
"125 507 OFFCURVE",
"50 425 OFFCURVE",
"50 301 CURVE SMOOTH",
"50 171 LINE SMOOTH",
"50 62 OFFCURVE",
"118 -10 OFFCURVE",
"220 -10 CURVE SMOOTH",
"291 -10 LINE SMOOTH",
"406 -10 OFFCURVE",
"482 60 OFFCURVE",
"482 165 CURVE",
"411 165 LINE",
"411 98 OFFCURVE",
"363 54 OFFCURVE",
"291 54 CURVE SMOOTH",
"220 54 LINE SMOOTH",
"161 54 OFFCURVE",
"122 101 OFFCURVE",
"122 171 CURVE SMOOTH",
"122 301 LINE SMOOTH",
"122 386 OFFCURVE",
"168 443 OFFCURVE",
"238 443 CURVE SMOOTH",
"310 443 LINE SMOOTH",
"371 443 OFFCURVE",
"412 396 OFFCURVE",
"412 326 CURVE"
);
},
{
closed = 1;
nodes = (
"61 239 LINE",
"484 239 LINE",
"484 301 LINE",
"61 301 LINE"
);
}
);
width = 534;
},
{
anchors = (
{
name = bottom;
position = "{267, 0}";
},
{
name = ogonek;
position = "{481, 10}";
},
{
name = top;
position = "{267, 470}";
}
);
background = {
paths = (
{
closed = 1;
nodes = (
"412 261 LINE",
"484 261 LINE",
"484 316 LINE SMOOTH",
"484 431 OFFCURVE",
"415 507 OFFCURVE",
"311 507 CURVE SMOOTH",
"239 507 LINE SMOOTH",
"126 507 OFFCURVE",
"50 425 OFFCURVE",
"50 301 CURVE SMOOTH",
"50 171 LINE SMOOTH",
"50 68 OFFCURVE",
"120 -10 OFFCURVE",
"224 -10 CURVE SMOOTH",
"295 -10 LINE SMOOTH",
"407 -10 OFFCURVE",
"482 60 OFFCURVE",
"482 165 CURVE",
"415 165 LINE",
"415 97 OFFCURVE",
"367 51 OFFCURVE",
"295 51 CURVE SMOOTH",
"224 51 LINE SMOOTH",
"160 51 OFFCURVE",
"117 105 OFFCURVE",
"117 171 CURVE SMOOTH",
"117 301 LINE SMOOTH",
"117 388 OFFCURVE",
"166 446 OFFCURVE",
"239 446 CURVE SMOOTH",
"311 446 LINE SMOOTH",
"375 446 OFFCURVE",
"412 394 OFFCURVE",
"412 316 CURVE"
);
},
{
closed = 1;
nodes = (
"61 236 LINE",
"484 236 LINE",
"484 295 LINE",
"61 295 LINE"
);
}
);
};
layerId = "CFC55C35-7F83-4FA6-AE88-8407B7D31CBE";
paths = (
{
closed = 1;
nodes = (
"412 261 LINE",
"484 261 LINE",
"484 326 LINE SMOOTH",
"484 435 OFFCURVE",
"414 507 OFFCURVE",
"310 507 CURVE SMOOTH",
"238 507 LINE SMOOTH",
"125 507 OFFCURVE",
"50 425 OFFCURVE",
"50 301 CURVE SMOOTH",
"50 171 LINE SMOOTH",
"50 62 OFFCURVE",
"118 -10 OFFCURVE",
"220 -10 CURVE SMOOTH",
"291 -10 LINE SMOOTH",
"406 -10 OFFCURVE",
"482 60 OFFCURVE",
"482 165 CURVE",
"411 165 LINE",
"411 98 OFFCURVE",
"363 54 OFFCURVE",
"291 54 CURVE SMOOTH",
"220 54 LINE SMOOTH",
"161 54 OFFCURVE",
"122 101 OFFCURVE",
"122 171 CURVE SMOOTH",
"122 301 LINE SMOOTH",
"122 386 OFFCURVE",
"168 443 OFFCURVE",
"238 443 CURVE SMOOTH",
"310 443 LINE SMOOTH",
"371 443 OFFCURVE",
"412 396 OFFCURVE",
"412 326 CURVE"
);
},
{
closed = 1;
nodes = (
"61 239 LINE",
"484 239 LINE",
"484 301 LINE",
"61 301 LINE"
);
}
);
width = 534;
},
{
anchors = (
{
name = bottom;
position = "{267, 0}";
},
{
name = ogonek;
position = "{481, 10}";
},
{
name = top;
position = "{267, 470}";
}
);
background = {
anchors = (
{
name = bottom;
position = "{267, 0}";
},
{
name = ogonek;
position = "{481, 10}";
},
{
name = top;
position = "{267, 470}";
}
);
paths = (
{
closed = 1;
nodes = (
"380 233 LINE",
"516 233 LINE",
"516 298 LINE SMOOTH",
"516 422 OFFCURVE",
"432 507 OFFCURVE",
"310 507 CURVE SMOOTH",
"238 507 LINE SMOOTH",
"107 507 OFFCURVE",
"18 412 OFFCURVE",
"18 273 CURVE SMOOTH",
"18 199 LINE SMOOTH",
"18 75 OFFCURVE",
"100 -10 OFFCURVE",
"220 -10 CURVE SMOOTH",
"291 -10 LINE SMOOTH",
"433 -10 OFFCURVE",
"528 57 OFFCURVE",
"512 193 CURVE",
"376 193 LINE",
"390 126 OFFCURVE",
"355 110 OFFCURVE",
"291 110 CURVE SMOOTH",
"220 110 LINE SMOOTH",
"180 110 OFFCURVE",
"154 144 OFFCURVE",
"154 199 CURVE SMOOTH",
"154 273 LINE SMOOTH",
"154 344 OFFCURVE",
"188 387 OFFCURVE",
"238 387 CURVE SMOOTH",
"310 387 LINE SMOOTH",
"352 387 OFFCURVE",
"380 353 OFFCURVE",
"380 298 CURVE SMOOTH"
);
},
{
closed = 1;
nodes = (
"29 211 LINE",
"516 211 LINE",
"516 301 LINE",
"29 301 LINE"
);
}
);
};
layerId = "EA06CE92-4115-4482-8874-2441C279E756";
paths = (
{
closed = 1;
nodes = (
"380 233 LINE",
"516 233 LINE",
"516 298 LINE SMOOTH",
"516 423 OFFCURVE",
"434 507 OFFCURVE",
"310 507 CURVE SMOOTH",
"238 507 LINE SMOOTH",
"106 507 OFFCURVE",
"18 413 OFFCURVE",
"18 273 CURVE SMOOTH",
"18 199 LINE SMOOTH",
"18 74 OFFCURVE",
"99 -10 OFFCURVE",
"220 -10 CURVE SMOOTH",
"291 -10 LINE SMOOTH",
"424 -10 OFFCURVE",
"512 63 OFFCURVE",
"512 173 CURVE",
"376 173 LINE",
"376 135 OFFCURVE",
"342 110 OFFCURVE",
"291 110 CURVE SMOOTH",
"220 110 LINE SMOOTH",
"180 110 OFFCURVE",
"154 146 OFFCURVE",
"154 199 CURVE SMOOTH",
"154 273 LINE SMOOTH",
"154 341 OFFCURVE",
"188 387 OFFCURVE",
"238 387 CURVE SMOOTH",
"310 387 LINE SMOOTH",
"352 387 OFFCURVE",
"380 351 OFFCURVE",
"380 298 CURVE SMOOTH"
);
},
{
closed = 1;
nodes = (
"29 211 LINE",
"516 211 LINE",
"516 301 LINE",
"29 301 LINE"
);
}
);
width = 534;
}
);
note = e;
unicode = 0065;
},
{
color = 0;
glyphname = f;
lastChange = "2018-02-05 09:20:32 +0000";
layers = (
{
anchors = (
{
name = bottom;
position = "{160, 0}";
},
{
name = top;
position = "{160, 470}";
}
);
layerId = "0B1DFD06-3317-40CA-B510-4969A0718C16";
paths = (
{
closed = 1;
nodes = (
"183 0 LINE",
"183 437 LINE",
"303 437 LINE",
"303 501 LINE",
"183 501 LINE",
"183 538 LINE SMOOTH",
"183 609 OFFCURVE",
"212 642 OFFCURVE",
"276 642 CURVE SMOOTH",
"314 642 LINE",
"314 704 LINE",
"276 704 LINE SMOOTH",
"168 704 OFFCURVE",
"111 647 OFFCURVE",
"111 538 CURVE SMOOTH",
"111 501 LINE",
"25 501 LINE",
"25 437 LINE",
"111 437 LINE",
"111 0 LINE"
);
}
);
width = 319;
},
{
anchors = (
{
name = bottom;
position = "{160, 0}";
},
{
name = top;
position = "{160, 470}";
}
);
layerId = "CFC55C35-7F83-4FA6-AE88-8407B7D31CBE";
paths = (
{
closed = 1;
nodes = (
"183 0 LINE",
"183 437 LINE",
"303 437 LINE",
"303 501 LINE",
"183 501 LINE",
"183 538 LINE SMOOTH",
"183 609 OFFCURVE",
"212 642 OFFCURVE",
"276 642 CURVE SMOOTH",
"314 642 LINE",
"314 704 LINE",
"276 704 LINE SMOOTH",
"168 704 OFFCURVE",
"111 647 OFFCURVE",
"111 538 CURVE SMOOTH",
"111 501 LINE",
"25 501 LINE",
"25 437 LINE",
"111 437 LINE",
"111 0 LINE"
);
}
);
width = 319;
},
{
anchors = (
{
name = bottom;
position = "{160, 0}";
},
{
name = top;
position = "{160, 470}";
}
);
background = {
paths = (
{
closed = 1;
nodes = (
"183 0 LINE",
"183 437 LINE",
"303 437 LINE",
"303 501 LINE",
"183 501 LINE",
"183 538 LINE SMOOTH",
"183 609 OFFCURVE",
"212 642 OFFCURVE",
"276 642 CURVE SMOOTH",
"314 642 LINE",
"314 704 LINE",
"276 704 LINE SMOOTH",
"168 704 OFFCURVE",
"111 647 OFFCURVE",
"111 538 CURVE SMOOTH",
"111 501 LINE",
"25 501 LINE",
"25 437 LINE",
"111 437 LINE",
"111 0 LINE"
);
}
);
};
layerId = "EA06CE92-4115-4482-8874-2441C279E756";
paths = (
{
closed = 1;
nodes = (
"215 0 LINE",
"215 383 LINE",
"335 383 LINE",
"335 501 LINE",
"215 501 LINE",
"215 511 LINE SMOOTH",
"215 567 OFFCURVE",
"234 592 OFFCURVE",
"276 592 CURVE SMOOTH",
"346 592 LINE",
"346 710 LINE",
"276 710 LINE SMOOTH",
"141 710 OFFCURVE",
"79 647 OFFCURVE",
"79 511 CURVE SMOOTH",
"79 501 LINE",
"-7 501 LINE",
"-7 383 LINE",
"79 383 LINE",
"79 0 LINE"
);
}
);
width = 319;
}
);
note = f;
unicode = 0066;
},
{
color = 0;
glyphname = g;
lastChange = "2018-02-05 09:20:32 +0000";
layers = (
{
anchors = (
{
name = bottom;
position = "{274, 0}";
},
{
name = top;
position = "{274, 470}";
}
);
background = {
paths = (
{
closed = 1;
nodes = (
"406 226 LINE",
"400 141 OFFCURVE",
"345 84 OFFCURVE",
"269 84 CURVE SMOOTH",
"207 84 LINE SMOOTH",
"156 84 OFFCURVE",
"122 129 OFFCURVE",
"122 197 CURVE SMOOTH",
"122 294 LINE SMOOTH",
"122 383 OFFCURVE",
"170 443 OFFCURVE",
"243 443 CURVE SMOOTH",
"305 443 LINE SMOOTH",
"361 443 OFFCURVE",
"401 397 OFFCURVE",
"406 329 CURVE"
);
},
{
closed = 1;
nodes = (
"406 -87 OFFCURVE",
"357 -139 OFFCURVE",
"284 -139 CURVE SMOOTH",
"225 -139 LINE SMOOTH",
"183 -139 OFFCURVE",
"150 -111 OFFCURVE",
"142 -68 CURVE",
"70 -68 LINE",
"78 -149 OFFCURVE",
"140 -203 OFFCURVE",
"225 -203 CURVE SMOOTH",
"284 -203 LINE SMOOTH",
"400 -203 OFFCURVE",
"478 -126 OFFCURVE",
"478 -10 CURVE SMOOTH",
"478 501 LINE",
"408 501 LINE",
"408 446 LINE",
"382 483 OFFCURVE",
"341 507 OFFCURVE",
"305 507 CURVE SMOOTH",
"243 507 LINE SMOOTH",
"127 507 OFFCURVE",
"50 422 OFFCURVE",
"50 294 CURVE SMOOTH",
"50 197 LINE SMOOTH",
"50 91 OFFCURVE",
"113 20 OFFCURVE",
"207 20 CURVE SMOOTH",
"269 20 LINE SMOOTH",
"321 20 OFFCURVE",
"376 52 OFFCURVE",
"406 101 CURVE",
"406 -10 LINE SMOOTH"
);
}
);
};
layerId = "0B1DFD06-3317-40CA-B510-4969A0718C16";
paths = (
{
closed = 1;
nodes = (
"284 -201 LINE SMOOTH",
"400 -201 OFFCURVE",
"478 -124 OFFCURVE",
"478 -8 CURVE SMOOTH",
"478 501 LINE",
"408 501 LINE",
"408 446 LINE",
"382 483 OFFCURVE",
"343 507 OFFCURVE",
"310 507 CURVE SMOOTH",
"248 507 LINE SMOOTH",
"129 507 OFFCURVE",
"50 422 OFFCURVE",
"50 294 CURVE SMOOTH",
"50 197 LINE SMOOTH",
"50 91 OFFCURVE",
"113 20 OFFCURVE",
"207 20 CURVE SMOOTH",
"269 20 LINE SMOOTH",
"321 20 OFFCURVE",
"376 52 OFFCURVE",
"406 101 CURVE",
"406 -8 LINE SMOOTH",
"406 -87 OFFCURVE",
"357 -139 OFFCURVE",
"284 -139 CURVE SMOOTH",
"225 -139 LINE SMOOTH",
"182 -139 OFFCURVE",
"149 -110 OFFCURVE",
"142 -66 CURVE",
"70 -66 LINE",
"78 -147 OFFCURVE",
"140 -201 OFFCURVE",
"225 -201 CURVE SMOOTH"
);
},
{
closed = 1;
nodes = (
"156 84 OFFCURVE",
"122 129 OFFCURVE",
"122 197 CURVE SMOOTH",
"122 294 LINE SMOOTH",
"122 383 OFFCURVE",
"172 443 OFFCURVE",
"248 443 CURVE SMOOTH",
"305 443 LINE SMOOTH",
"356 443 OFFCURVE",
"397 395 OFFCURVE",
"406 324 CURVE",
"406 217 LINE",
"387 137 OFFCURVE",
"333 84 OFFCURVE",
"269 84 CURVE SMOOTH",
"207 84 LINE SMOOTH"
);
}
);
width = 548;
},
{
anchors = (
{
name = bottom;
position = "{274, 0}";
},
{
name = top;
position = "{274, 470}";
}
);
background = {
paths = (
{
closed = 1;
nodes = (
"406 226 LINE",
"400 141 OFFCURVE",
"345 84 OFFCURVE",
"269 84 CURVE SMOOTH",
"207 84 LINE SMOOTH",
"156 84 OFFCURVE",
"122 129 OFFCURVE",
"122 197 CURVE SMOOTH",
"122 294 LINE SMOOTH",
"122 383 OFFCURVE",
"170 443 OFFCURVE",
"243 443 CURVE SMOOTH",
"305 443 LINE SMOOTH",
"361 443 OFFCURVE",
"401 397 OFFCURVE",
"406 329 CURVE"
);
},
{
closed = 1;
nodes = (
"406 -87 OFFCURVE",
"357 -139 OFFCURVE",
"284 -139 CURVE SMOOTH",
"225 -139 LINE SMOOTH",
"183 -139 OFFCURVE",
"150 -111 OFFCURVE",
"142 -68 CURVE",
"70 -68 LINE",
"78 -149 OFFCURVE",
"140 -203 OFFCURVE",
"225 -203 CURVE SMOOTH",
"284 -203 LINE SMOOTH",
"400 -203 OFFCURVE",
"478 -126 OFFCURVE",
"478 -10 CURVE SMOOTH",
"478 501 LINE",
"408 501 LINE",
"408 446 LINE",
"382 483 OFFCURVE",
"341 507 OFFCURVE",
"305 507 CURVE SMOOTH",
"243 507 LINE SMOOTH",
"127 507 OFFCURVE",
"50 422 OFFCURVE",
"50 294 CURVE SMOOTH",
"50 197 LINE SMOOTH",
"50 91 OFFCURVE",
"113 20 OFFCURVE",
"207 20 CURVE SMOOTH",
"269 20 LINE SMOOTH",
"321 20 OFFCURVE",
"376 52 OFFCURVE",
"406 101 CURVE",
"406 -10 LINE SMOOTH"
);
}
);
};
layerId = "CFC55C35-7F83-4FA6-AE88-8407B7D31CBE";
paths = (
{
closed = 1;
nodes = (
"284 -201 LINE SMOOTH",
"400 -201 OFFCURVE",
"478 -124 OFFCURVE",
"478 -8 CURVE SMOOTH",
"478 501 LINE",
"408 501 LINE",
"408 446 LINE",
"382 483 OFFCURVE",
"343 507 OFFCURVE",
"310 507 CURVE SMOOTH",
"248 507 LINE SMOOTH",
"129 507 OFFCURVE",
"50 422 OFFCURVE",
"50 294 CURVE SMOOTH",
"50 197 LINE SMOOTH",
"50 91 OFFCURVE",
"113 20 OFFCURVE",
"207 20 CURVE SMOOTH",
"269 20 LINE SMOOTH",
"321 20 OFFCURVE",
"376 52 OFFCURVE",
"406 101 CURVE",
"406 -8 LINE SMOOTH",
"406 -87 OFFCURVE",
"357 -139 OFFCURVE",
"284 -139 CURVE SMOOTH",
"225 -139 LINE SMOOTH",
"182 -139 OFFCURVE",
"149 -110 OFFCURVE",
"142 -66 CURVE",
"70 -66 LINE",
"78 -147 OFFCURVE",
"140 -201 OFFCURVE",
"225 -201 CURVE SMOOTH"
);
},
{
closed = 1;
nodes = (
"156 84 OFFCURVE",
"122 129 OFFCURVE",
"122 197 CURVE SMOOTH",
"122 294 LINE SMOOTH",
"122 383 OFFCURVE",
"172 443 OFFCURVE",
"248 443 CURVE SMOOTH",
"305 443 LINE SMOOTH",
"356 443 OFFCURVE",
"397 395 OFFCURVE",
"406 324 CURVE",
"406 217 LINE",
"387 137 OFFCURVE",
"333 84 OFFCURVE",
"269 84 CURVE SMOOTH",
"207 84 LINE SMOOTH"
);
}
);
width = 548;
},
{
anchors = (
{
name = bottom;
position = "{274, 0}";
},
{
name = top;
position = "{274, 470}";
}
);
background = {
paths = (
{
closed = 1;
nodes = (
"376 507 LINE",
"376 493 LINE",
"355 506 OFFCURVE",
"332 513 OFFCURVE",
"310 513 CURVE SMOOTH",
"248 513 LINE SMOOTH",
"111 513 OFFCURVE",
"18 416 OFFCURVE",
"18 272 CURVE SMOOTH",
"18 195 LINE SMOOTH",
"18 73 OFFCURVE",
"95 -10 OFFCURVE",
"207 -10 CURVE SMOOTH",
"269 -10 LINE SMOOTH",
"305 -10 OFFCURVE",
"342 2 OFFCURVE",
"374 24 CURVE",
"374 -8 LINE SMOOTH",
"374 -71 OFFCURVE",
"339 -111 OFFCURVE",
"284 -111 CURVE SMOOTH",
"225 -111 LINE SMOOTH",
"192 -111 OFFCURVE",
"170 -83 OFFCURVE",
"173 -38 CURVE",
"37 -38 LINE",
"32 -149 OFFCURVE",
"113 -229 OFFCURVE",
"225 -229 CURVE SMOOTH",
"284 -229 LINE SMOOTH",
"418 -229 OFFCURVE",
"510 -139 OFFCURVE",
"510 -8 CURVE SMOOTH",
"510 507 LINE"
);
},
{
closed = 1;
nodes = (
"154 346 OFFCURVE",
"191 393 OFFCURVE",
"248 393 CURVE SMOOTH",
"305 393 LINE SMOOTH",
"337 393 OFFCURVE",
"366 356 OFFCURVE",
"374 300 CURVE",
"374 218 LINE",
"357 152 OFFCURVE",
"316 110 OFFCURVE",
"269 110 CURVE SMOOTH",
"207 110 LINE SMOOTH",
"176 110 OFFCURVE",
"154 143 OFFCURVE",
"154 195 CURVE SMOOTH",
"154 272 LINE SMOOTH"
);
}
);
};
layerId = "EA06CE92-4115-4482-8874-2441C279E756";
paths = (
{
closed = 1;
nodes = (
"284 -209 LINE SMOOTH",
"420 -209 OFFCURVE",
"510 -125 OFFCURVE",
"510 2 CURVE SMOOTH",
"510 501 LINE",
"384 501 LINE",
"384 451 LINE",
"356 486 OFFCURVE",
"318 507 OFFCURVE",
"281 507 CURVE SMOOTH",
"223 507 LINE SMOOTH",
"100 507 OFFCURVE",
"18 419 OFFCURVE",
"18 286 CURVE SMOOTH",
"18 205 LINE SMOOTH",
"18 94 OFFCURVE",
"86 20 OFFCURVE",
"187 20 CURVE SMOOTH",
"259 20 LINE SMOOTH",
"306 20 OFFCURVE",
"352 42 OFFCURVE",
"374 74 CURVE",
"374 2 LINE SMOOTH",
"374 -54 OFFCURVE",
"338 -91 OFFCURVE",
"284 -91 CURVE SMOOTH",
"226 -91 LINE SMOOTH",
"195 -91 OFFCURVE",
"175 -70 OFFCURVE",
"172 -38 CURVE",
"38 -38 LINE",
"46 -141 OFFCURVE",
"113 -209 OFFCURVE",
"226 -209 CURVE SMOOTH"
);
},
{
closed = 1;
nodes = (
"180 138 OFFCURVE",
"154 165 OFFCURVE",
"154 205 CURVE SMOOTH",
"154 286 LINE SMOOTH",
"154 348 OFFCURVE",
"190 389 OFFCURVE",
"243 389 CURVE SMOOTH",
"295 389 LINE SMOOTH",
"338 389 OFFCURVE",
"370 357 OFFCURVE",
"374 310 CURVE",
"374 245 LINE",
"370 181 OFFCURVE",
"328 138 OFFCURVE",
"269 138 CURVE SMOOTH",
"215 138 LINE SMOOTH"
);
}
);
width = 548;
}
);
note = g;
unicode = 0067;
},
{
color = 0;
glyphname = h;
lastChange = "2018-02-05 09:20:32 +0000";
layers = (
{
anchors = (
{
name = bottom;
position = "{279, 0}";
},
{
name = center;
position = "{279, 235}";
},
{
name = top;
position = "{279, 470}";
}
);
background = {
paths = (
{
closed = 1;
nodes = (
"420 0 LINE",
"492 0 LINE",
"492 336 LINE SMOOTH",
"492 439 OFFCURVE",
"430 507 OFFCURVE",
"336 507 CURVE SMOOTH",
"275 507 LINE SMOOTH",
"225 507 OFFCURVE",
"171 477 OFFCURVE",
"140 431 CURVE",
"140 501 LINE",
"70 501 LINE",
"70 0 LINE",
"142 0 LINE",
"142 320 LINE",
"159 386 OFFCURVE",
"212 443 OFFCURVE",
"275 443 CURVE SMOOTH",
"336 443 LINE SMOOTH",
"386 443 OFFCURVE",
"420 401 OFFCURVE",
"420 339 CURVE SMOOTH"
);
}
);
};
layerId = "0B1DFD06-3317-40CA-B510-4969A0718C16";
paths = (
{
closed = 1;
nodes = (
"420 0 LINE",
"492 0 LINE",
"492 336 LINE SMOOTH",
"492 439 OFFCURVE",
"430 507 OFFCURVE",
"336 507 CURVE SMOOTH",
"275 507 LINE SMOOTH",
"225 507 OFFCURVE",
"173 482 OFFCURVE",
"142 437 CURVE",
"142 700 LINE",
"70 700 LINE",
"70 0 LINE",
"142 0 LINE",
"142 324 LINE",
"159 390 OFFCURVE",
"212 443 OFFCURVE",
"275 443 CURVE SMOOTH",
"336 443 LINE SMOOTH",
"386 443 OFFCURVE",
"420 401 OFFCURVE",
"420 339 CURVE SMOOTH"
);
}
);
width = 557;
},
{
anchors = (
{
name = bottom;
position = "{279, 0}";
},
{
name = center;
position = "{279, 235}";
},
{
name = top;
position = "{279, 470}";
}
);
background = {
paths = (
{
closed = 1;
nodes = (
"420 0 LINE",
"492 0 LINE",
"492 336 LINE SMOOTH",
"492 439 OFFCURVE",
"430 507 OFFCURVE",
"336 507 CURVE SMOOTH",
"275 507 LINE SMOOTH",
"225 507 OFFCURVE",
"171 477 OFFCURVE",
"140 431 CURVE",
"140 501 LINE",
"70 501 LINE",
"70 0 LINE",
"142 0 LINE",
"142 320 LINE",
"159 386 OFFCURVE",
"212 443 OFFCURVE",
"275 443 CURVE SMOOTH",
"336 443 LINE SMOOTH",
"386 443 OFFCURVE",
"420 401 OFFCURVE",
"420 339 CURVE SMOOTH"
);
}
);
};
layerId = "CFC55C35-7F83-4FA6-AE88-8407B7D31CBE";
paths = (
{
closed = 1;
nodes = (
"420 0 LINE",
"492 0 LINE",
"492 336 LINE SMOOTH",
"492 439 OFFCURVE",
"430 507 OFFCURVE",
"336 507 CURVE SMOOTH",
"275 507 LINE SMOOTH",
"225 507 OFFCURVE",
"173 482 OFFCURVE",
"142 437 CURVE",
"142 700 LINE",
"70 700 LINE",
"70 0 LINE",
"142 0 LINE",
"142 324 LINE",
"159 390 OFFCURVE",
"212 443 OFFCURVE",
"275 443 CURVE SMOOTH",
"336 443 LINE SMOOTH",
"386 443 OFFCURVE",
"420 401 OFFCURVE",
"420 339 CURVE SMOOTH"
);
}
);
width = 557;
},
{
anchors = (
{
name = bottom;
position = "{279, 0}";
},
{
name = center;
position = "{279, 235}";
},
{
name = top;
position = "{279, 470}";
}
);
background = {
paths = (
{
closed = 1;
nodes = (
"388 0 LINE",
"524 0 LINE",
"524 320 LINE SMOOTH",
"524 438 OFFCURVE",
"458 507 OFFCURVE",
"347 507 CURVE SMOOTH",
"285 507 LINE SMOOTH",
"245 507 OFFCURVE",
"197 481 OFFCURVE",
"166 443 CURVE",
"166 701 LINE",
"38 701 LINE",
"38 0 LINE",
"174 0 LINE",
"174 297 LINE",
"186 351 OFFCURVE",
"230 387 OFFCURVE",
"283 387 CURVE SMOOTH",
"332 387 LINE SMOOTH",
"366 387 OFFCURVE",
"388 360 OFFCURVE",
"388 320 CURVE SMOOTH"
);
}
);
};
layerId = "EA06CE92-4115-4482-8874-2441C279E756";
paths = (
{
closed = 1;
nodes = (
"388 0 LINE",
"524 0 LINE",
"524 320 LINE SMOOTH",
"524 438 OFFCURVE",
"458 507 OFFCURVE",
"347 507 CURVE SMOOTH",
"285 507 LINE SMOOTH",
"249 507 OFFCURVE",
"205 485 OFFCURVE",
"174 452 CURVE",
"174 700 LINE",
"38 700 LINE",
"38 0 LINE",
"174 0 LINE",
"174 297 LINE",
"186 351 OFFCURVE",
"230 387 OFFCURVE",
"283 387 CURVE SMOOTH",
"332 387 LINE SMOOTH",
"366 387 OFFCURVE",
"388 360 OFFCURVE",
"388 320 CURVE SMOOTH"
);
}
);
width = 557;
}
);
note = h;
unicode = 0068;
},
{
color = 0;
glyphname = i;
lastChange = "2018-02-05 09:20:32 +0000";
layers = (
{
anchors = (
{
name = bottom;
position = "{119, 0}";
}
);
layerId = "0B1DFD06-3317-40CA-B510-4969A0718C16";
paths = (
{
closed = 1;
nodes = (
"82 0 LINE",
"154 0 LINE",
"154 501 LINE",
"82 501 LINE"
);
},
{
closed = 1;
nodes = (
"65 596 OFFCURVE",
"86 574 OFFCURVE",
"118 574 CURVE SMOOTH",
"150 574 OFFCURVE",
"172 596 OFFCURVE",
"172 628 CURVE SMOOTH",
"172 660 OFFCURVE",
"150 682 OFFCURVE",
"118 682 CURVE SMOOTH",
"86 682 OFFCURVE",
"65 660 OFFCURVE",
"65 628 CURVE SMOOTH"
);
}
);
width = 237;
},
{
anchors = (
{
name = bottom;
position = "{119, 0}";
}
);
layerId = "CFC55C35-7F83-4FA6-AE88-8407B7D31CBE";
paths = (
{
closed = 1;
nodes = (
"82 0 LINE",
"154 0 LINE",
"154 501 LINE",
"82 501 LINE"
);
},
{
closed = 1;
nodes = (
"64 596 OFFCURVE",
"86 574 OFFCURVE",
"118 574 CURVE SMOOTH",
"150 574 OFFCURVE",
"172 596 OFFCURVE",
"172 628 CURVE SMOOTH",
"172 660 OFFCURVE",
"150 682 OFFCURVE",
"118 682 CURVE SMOOTH",
"86 682 OFFCURVE",
"64 660 OFFCURVE",
"64 628 CURVE SMOOTH"
);
}
);
width = 237;
},
{
anchors = (
{
name = bottom;
position = "{119, 0}";
}
);
background = {
paths = (
{
closed = 1;
nodes = (
"82 0 LINE",
"154 0 LINE",
"154 501 LINE",
"82 501 LINE"
);
},
{
closed = 1;
nodes = (
"65 596 OFFCURVE",
"86 574 OFFCURVE",
"118 574 CURVE SMOOTH",
"150 574 OFFCURVE",
"172 596 OFFCURVE",
"172 628 CURVE SMOOTH",
"172 660 OFFCURVE",
"150 682 OFFCURVE",
"118 682 CURVE SMOOTH",
"86 682 OFFCURVE",
"65 660 OFFCURVE",
"65 628 CURVE SMOOTH"
);
}
);
};
layerId = "EA06CE92-4115-4482-8874-2441C279E756";
paths = (
{
closed = 1;
nodes = (
"50 0 LINE",
"186 0 LINE",
"186 501 LINE",
"50 501 LINE"
);
},
{
closed = 1;
nodes = (
"32 579 OFFCURVE",
"66 546 OFFCURVE",
"118 546 CURVE SMOOTH",
"170 546 OFFCURVE",
"204 579 OFFCURVE",
"204 628 CURVE SMOOTH",
"204 677 OFFCURVE",
"170 710 OFFCURVE",
"118 710 CURVE SMOOTH",
"66 710 OFFCURVE",
"32 677 OFFCURVE",
"32 628 CURVE SMOOTH"
);
}
);
width = 237;
}
);
note = i;
unicode = 0069;
},
{
color = 0;
glyphname = j;
lastChange = "2018-02-05 09:20:32 +0000";
layers = (
{
background = {
paths = (
{
closed = 1;
nodes = (
"97 -10 LINE SMOOTH",
"97 -91 OFFCURVE",
"75 -138 OFFCURVE",
"-5 -138 CURVE SMOOTH",
"-44 -138 LINE",
"-44 -199 LINE",
"-5 -199 LINE SMOOTH",
"114 -199 OFFCURVE",
"164 -129 OFFCURVE",
"164 -10 CURVE SMOOTH",
"164 501 LINE",
"97 501 LINE"
);
},
{
closed = 1;
nodes = (
"80 609 OFFCURVE",
"102 586 OFFCURVE",
"131 586 CURVE SMOOTH",
"161 586 OFFCURVE",
"183 609 OFFCURVE",
"183 638 CURVE SMOOTH",
"183 667 OFFCURVE",
"161 690 OFFCURVE",
"131 690 CURVE SMOOTH",
"102 690 OFFCURVE",
"80 667 OFFCURVE",
"80 638 CURVE SMOOTH"
);
}
);
};
layerId = "0B1DFD06-3317-40CA-B510-4969A0718C16";
paths = (
{
closed = 1;
nodes = (
"92 -101 OFFCURVE",
"64 -135 OFFCURVE",
"-5 -135 CURVE SMOOTH",
"-40 -135 LINE",
"-40 -199 LINE",
"-5 -199 LINE SMOOTH",
"116 -199 OFFCURVE",
"164 -145 OFFCURVE",
"164 -10 CURVE SMOOTH",
"164 501 LINE",
"92 501 LINE",
"92 -15 LINE SMOOTH"
);
},
{
closed = 1;
nodes = (
"75 596 OFFCURVE",
"96 574 OFFCURVE",
"128 574 CURVE SMOOTH",
"160 574 OFFCURVE",
"182 596 OFFCURVE",
"182 628 CURVE SMOOTH",
"182 660 OFFCURVE",
"160 682 OFFCURVE",
"128 682 CURVE SMOOTH",
"96 682 OFFCURVE",
"75 660 OFFCURVE",
"75 628 CURVE SMOOTH"
);
}
);
width = 248;
},
{
background = {
paths = (
{
closed = 1;
nodes = (
"97 -10 LINE SMOOTH",
"97 -91 OFFCURVE",
"75 -138 OFFCURVE",
"-5 -138 CURVE SMOOTH",
"-44 -138 LINE",
"-44 -199 LINE",
"-5 -199 LINE SMOOTH",
"114 -199 OFFCURVE",
"164 -129 OFFCURVE",
"164 -10 CURVE SMOOTH",
"164 501 LINE",
"97 501 LINE"
);
},
{
closed = 1;
nodes = (
"80 609 OFFCURVE",
"102 586 OFFCURVE",
"131 586 CURVE SMOOTH",
"161 586 OFFCURVE",
"183 609 OFFCURVE",
"183 638 CURVE SMOOTH",
"183 667 OFFCURVE",
"161 690 OFFCURVE",
"131 690 CURVE SMOOTH",
"102 690 OFFCURVE",
"80 667 OFFCURVE",
"80 638 CURVE SMOOTH"
);
}
);
};
layerId = "CFC55C35-7F83-4FA6-AE88-8407B7D31CBE";
paths = (
{
closed = 1;
nodes = (
"92 -101 OFFCURVE",
"64 -135 OFFCURVE",
"-5 -135 CURVE SMOOTH",
"-40 -135 LINE",
"-40 -199 LINE",
"-5 -199 LINE SMOOTH",
"116 -199 OFFCURVE",
"164 -145 OFFCURVE",
"164 -10 CURVE SMOOTH",
"164 501 LINE",
"92 501 LINE",
"92 -15 LINE SMOOTH"
);
},
{
closed = 1;
nodes = (
"75 596 OFFCURVE",
"96 574 OFFCURVE",
"128 574 CURVE SMOOTH",
"160 574 OFFCURVE",
"182 596 OFFCURVE",
"182 628 CURVE SMOOTH",
"182 660 OFFCURVE",
"160 682 OFFCURVE",
"128 682 CURVE SMOOTH",
"96 682 OFFCURVE",
"75 660 OFFCURVE",
"75 628 CURVE SMOOTH"
);
}
);
width = 248;
},
{
background = {
paths = (
{
closed = 1;
nodes = (
"60 -87 OFFCURVE",
"43 -107 OFFCURVE",
"-5 -107 CURVE SMOOTH",
"-72 -107 LINE",
"-72 -227 LINE",
"-5 -227 LINE SMOOTH",
"135 -227 OFFCURVE",
"196 -160 OFFCURVE",
"196 -10 CURVE SMOOTH",
"196 507 LINE",
"60 507 LINE",
"60 -15 LINE SMOOTH"
);
},
{
closed = 1;
nodes = (
"43 580 OFFCURVE",
"79 546 OFFCURVE",
"128 546 CURVE SMOOTH",
"178 546 OFFCURVE",
"214 581 OFFCURVE",
"214 628 CURVE SMOOTH",
"214 675 OFFCURVE",
"178 710 OFFCURVE",
"128 710 CURVE SMOOTH",
"79 710 OFFCURVE",
"43 676 OFFCURVE",
"43 628 CURVE SMOOTH"
);
}
);
};
layerId = "EA06CE92-4115-4482-8874-2441C279E756";
paths = (
{
closed = 1;
nodes = (
"60 -82 OFFCURVE",
"41 -109 OFFCURVE",
"-5 -109 CURVE SMOOTH",
"-72 -109 LINE",
"-72 -227 LINE",
"-5 -227 LINE SMOOTH",
"139 -227 OFFCURVE",
"196 -165 OFFCURVE",
"196 -10 CURVE SMOOTH",
"196 501 LINE",
"60 501 LINE",
"60 -15 LINE SMOOTH"
);
},
{
closed = 1;
nodes = (
"42 579 OFFCURVE",
"76 546 OFFCURVE",
"128 546 CURVE SMOOTH",
"180 546 OFFCURVE",
"214 579 OFFCURVE",
"214 628 CURVE SMOOTH",
"214 677 OFFCURVE",
"180 710 OFFCURVE",
"128 710 CURVE SMOOTH",
"76 710 OFFCURVE",
"42 677 OFFCURVE",
"42 628 CURVE SMOOTH"
);
}
);
width = 248;
}
);
note = j;
unicode = 006A;
},
{
color = 0;
glyphname = k;
lastChange = "2018-02-05 09:20:32 +0000";
layers = (
{
anchors = (
{
name = bottom;
position = "{258, 0}";
},
{
name = top;
position = "{258, 470}";
}
);
background = {
paths = (
{
closed = 1;
nodes = (
"486 501 LINE",
"404 501 LINE",
"226 285 LINE",
"137 285 LINE",
"137 700 LINE",
"70 700 LINE",
"70 0 LINE",
"137 0 LINE",
"137 224 LINE",
"226 224 LINE",
"422 0 LINE",
"506 0 LINE",
"284 255 LINE"
);
}
);
};
layerId = "0B1DFD06-3317-40CA-B510-4969A0718C16";
paths = (
{
closed = 1;
nodes = (
"484 501 LINE",
"401 501 LINE",
"224 287 LINE",
"142 287 LINE",
"142 700 LINE",
"70 700 LINE",
"70 0 LINE",
"142 0 LINE",
"142 223 LINE",
"224 223 LINE",
"419 0 LINE",
"504 0 LINE",
"284 255 LINE"
);
}
);
width = 514;
},
{
anchors = (
{
name = bottom;
position = "{258, 0}";
},
{
name = top;
position = "{258, 470}";
}
);
background = {
paths = (
{
closed = 1;
nodes = (
"486 501 LINE",
"404 501 LINE",
"226 285 LINE",
"137 285 LINE",
"137 700 LINE",
"70 700 LINE",
"70 0 LINE",
"137 0 LINE",
"137 224 LINE",
"226 224 LINE",
"422 0 LINE",
"506 0 LINE",
"284 255 LINE"
);
}
);
};
layerId = "CFC55C35-7F83-4FA6-AE88-8407B7D31CBE";
paths = (
{
closed = 1;
nodes = (
"484 501 LINE",
"401 501 LINE",
"224 287 LINE",
"142 287 LINE",
"142 700 LINE",
"70 700 LINE",
"70 0 LINE",
"142 0 LINE",
"142 223 LINE",
"224 223 LINE",
"419 0 LINE",
"504 0 LINE",
"284 255 LINE"
);
}
);
width = 514;
},
{
anchors = (
{
name = bottom;
position = "{258, 0}";
},
{
name = top;
position = "{258, 470}";
}
);
background = {
paths = (
{
closed = 1;
nodes = (
"546 529 LINE",
"385 529 LINE",
"208 315 LINE",
"174 315 LINE",
"174 728 LINE",
"38 728 LINE",
"38 -28 LINE",
"174 -28 LINE",
"174 195 LINE",
"208 195 LINE",
"403 -28 LINE",
"568 -28 LINE",
"324 255 LINE"
);
}
);
};
layerId = "EA06CE92-4115-4482-8874-2441C279E756";
paths = (
{
closed = 1;
nodes = (
"520 501 LINE",
"359 501 LINE",
"220 312 LINE",
"174 312 LINE",
"174 700 LINE",
"38 700 LINE",
"38 0 LINE",
"174 0 LINE",
"174 194 LINE",
"220 194 LINE",
"373 0 LINE",
"536 0 LINE",
"330 253 LINE"
);
}
);
width = 514;
}
);
note = k;
unicode = 006B;
},
{
color = 0;
glyphname = l;
lastChange = "2018-02-05 09:20:32 +0000";
layers = (
{
anchors = (
{
name = bottom;
position = "{109, 0}";
},
{
name = center;
position = "{109, 235}";
},
{
name = top;
position = "{109, 470}";
},
{
name = topright;
position = "{197, 470}";
}
);
layerId = "0B1DFD06-3317-40CA-B510-4969A0718C16";
paths = (
{
closed = 1;
nodes = (
"75 0 LINE",
"147 0 LINE",
"147 700 LINE",
"75 700 LINE"
);
}
);
width = 217;
},
{
anchors = (
{
name = bottom;
position = "{109, 0}";
},
{
name = center;
position = "{109, 235}";
},
{
name = top;
position = "{109, 470}";
},
{
name = topright;
position = "{197, 470}";
}
);
layerId = "CFC55C35-7F83-4FA6-AE88-8407B7D31CBE";
paths = (
{
closed = 1;
nodes = (
"75 0 LINE",
"147 0 LINE",
"147 700 LINE",
"75 700 LINE"
);
}
);
width = 217;
},
{
anchors = (
{
name = bottom;
position = "{109, 0}";
},
{
name = center;
position = "{109, 235}";
},
{
name = top;
position = "{109, 470}";
},
{
name = topright;
position = "{197, 470}";
}
);
layerId = "EA06CE92-4115-4482-8874-2441C279E756";
paths = (
{
closed = 1;
nodes = (
"43 0 LINE",
"179 0 LINE",
"179 700 LINE",
"43 700 LINE"
);
}
);
width = 217;
}
);
note = l;
unicode = 006C;
},
{
color = 0;
glyphname = m;
lastChange = "2018-02-05 09:20:32 +0000";
layers = (
{
background = {
paths = (
{
closed = 1;
nodes = (
"368 0 LINE",
"440 0 LINE",
"440 336 LINE SMOOTH",
"440 439 OFFCURVE",
"400 507 OFFCURVE",
"306 507 CURVE SMOOTH",
"265 507 LINE SMOOTH",
"215 507 OFFCURVE",
"171 479 OFFCURVE",
"140 433 CURVE",
"140 501 LINE",
"70 501 LINE",
"70 0 LINE",
"142 0 LINE",
"142 322 LINE",
"159 388 OFFCURVE",
"202 443 OFFCURVE",
"265 443 CURVE SMOOTH",
"306 443 LINE SMOOTH",
"356 443 OFFCURVE",
"368 401 OFFCURVE",
"368 339 CURVE SMOOTH"
);
},
{
closed = 1;
nodes = (
"665 0 LINE",
"737 0 LINE",
"737 336 LINE SMOOTH",
"737 439 OFFCURVE",
"698 507 OFFCURVE",
"604 507 CURVE SMOOTH",
"563 507 LINE SMOOTH",
"513 507 OFFCURVE",
"469 479 OFFCURVE",
"438 433 CURVE",
"368 251 LINE",
"368 0 LINE",
"440 0 LINE",
"440 322 LINE",
"457 388 OFFCURVE",
"500 443 OFFCURVE",
"563 443 CURVE SMOOTH",
"604 443 LINE SMOOTH",
"654 443 OFFCURVE",
"665 401 OFFCURVE",
"665 339 CURVE SMOOTH"
);
}
);
};
layerId = "0B1DFD06-3317-40CA-B510-4969A0718C16";
paths = (
{
closed = 1;
nodes = (
"563 507 LINE SMOOTH",
"494 507 OFFCURVE",
"432 476 OFFCURVE",
"397 386 CURVE",
"436 354 LINE",
"436 373 LINE SMOOTH",
"436 433 OFFCURVE",
"396 507 OFFCURVE",
"306 507 CURVE SMOOTH",
"265 507 LINE SMOOTH",
"215 507 OFFCURVE",
"171 479 OFFCURVE",
"140 433 CURVE",
"140 501 LINE",
"70 501 LINE",
"70 0 LINE",
"142 0 LINE",
"142 322 LINE",
"159 388 OFFCURVE",
"202 443 OFFCURVE",
"265 443 CURVE SMOOTH",
"306 443 LINE SMOOTH",
"356 443 OFFCURVE",
"368 401 OFFCURVE",
"368 339 CURVE SMOOTH",
"368 0 LINE",
"440 0 LINE",
"440 342 LINE",
"457 408 OFFCURVE",
"500 443 OFFCURVE",
"563 443 CURVE SMOOTH",
"604 443 LINE SMOOTH",
"654 443 OFFCURVE",
"665 401 OFFCURVE",
"665 339 CURVE SMOOTH",
"665 0 LINE",
"737 0 LINE",
"737 336 LINE SMOOTH",
"737 439 OFFCURVE",
"698 507 OFFCURVE",
"604 507 CURVE SMOOTH"
);
}
);
width = 802;
},
{
background = {
paths = (
{
closed = 1;
nodes = (
"368 0 LINE",
"440 0 LINE",
"440 336 LINE SMOOTH",
"440 439 OFFCURVE",
"400 507 OFFCURVE",
"306 507 CURVE SMOOTH",
"265 507 LINE SMOOTH",
"215 507 OFFCURVE",
"171 479 OFFCURVE",
"140 433 CURVE",
"140 501 LINE",
"70 501 LINE",
"70 0 LINE",
"142 0 LINE",
"142 322 LINE",
"159 388 OFFCURVE",
"202 443 OFFCURVE",
"265 443 CURVE SMOOTH",
"306 443 LINE SMOOTH",
"356 443 OFFCURVE",
"368 401 OFFCURVE",
"368 339 CURVE SMOOTH"
);
},
{
closed = 1;
nodes = (
"665 0 LINE",
"737 0 LINE",
"737 336 LINE SMOOTH",
"737 439 OFFCURVE",
"698 507 OFFCURVE",
"604 507 CURVE SMOOTH",
"563 507 LINE SMOOTH",
"513 507 OFFCURVE",
"469 479 OFFCURVE",
"438 433 CURVE",
"368 251 LINE",
"368 0 LINE",
"440 0 LINE",
"440 322 LINE",
"457 388 OFFCURVE",
"500 443 OFFCURVE",
"563 443 CURVE SMOOTH",
"604 443 LINE SMOOTH",
"654 443 OFFCURVE",
"665 401 OFFCURVE",
"665 339 CURVE SMOOTH"
);
}
);
};
layerId = "CFC55C35-7F83-4FA6-AE88-8407B7D31CBE";
paths = (
{
closed = 1;
nodes = (
"563 507 LINE SMOOTH",
"494 507 OFFCURVE",
"432 476 OFFCURVE",
"397 386 CURVE",
"436 354 LINE",
"436 373 LINE SMOOTH",
"436 433 OFFCURVE",
"396 507 OFFCURVE",
"306 507 CURVE SMOOTH",
"265 507 LINE SMOOTH",
"215 507 OFFCURVE",
"171 479 OFFCURVE",
"140 433 CURVE",
"140 501 LINE",
"70 501 LINE",
"70 0 LINE",
"142 0 LINE",
"142 322 LINE",
"159 388 OFFCURVE",
"202 443 OFFCURVE",
"265 443 CURVE SMOOTH",
"306 443 LINE SMOOTH",
"356 443 OFFCURVE",
"368 401 OFFCURVE",
"368 339 CURVE SMOOTH",
"368 0 LINE",
"440 0 LINE",
"440 342 LINE",
"457 408 OFFCURVE",
"500 443 OFFCURVE",
"563 443 CURVE SMOOTH",
"604 443 LINE SMOOTH",
"654 443 OFFCURVE",
"665 401 OFFCURVE",
"665 339 CURVE SMOOTH",
"665 0 LINE",
"737 0 LINE",
"737 336 LINE SMOOTH",
"737 439 OFFCURVE",
"698 507 OFFCURVE",
"604 507 CURVE SMOOTH"
);
}
);
width = 802;
},
{
background = {
paths = (
{
closed = 1;
nodes = (
"563 507 LINE SMOOTH",
"464 507 OFFCURVE",
"393 452 OFFCURVE",
"361 350 CURVE",
"468 261 LINE",
"468 345 LINE SMOOTH",
"468 437 OFFCURVE",
"399 507 OFFCURVE",
"306 507 CURVE SMOOTH",
"265 507 LINE SMOOTH",
"232 507 OFFCURVE",
"200 497 OFFCURVE",
"172 479 CURVE",
"172 501 LINE",
"38 501 LINE",
"38 0 LINE",
"174 0 LINE",
"174 291 LINE",
"191 351 OFFCURVE",
"225 387 OFFCURVE",
"265 387 CURVE SMOOTH",
"306 387 LINE SMOOTH",
"327 387 OFFCURVE",
"336 369 OFFCURVE",
"336 311 CURVE SMOOTH",
"336 0 LINE",
"472 0 LINE",
"472 311 LINE",
"486 363 OFFCURVE",
"516 387 OFFCURVE",
"563 387 CURVE SMOOTH",
"604 387 LINE SMOOTH",
"624 387 OFFCURVE",
"633 370 OFFCURVE",
"633 311 CURVE SMOOTH",
"633 0 LINE",
"769 0 LINE",
"769 308 LINE SMOOTH",
"769 435 OFFCURVE",
"710 507 OFFCURVE",
"604 507 CURVE SMOOTH"
);
}
);
};
layerId = "EA06CE92-4115-4482-8874-2441C279E756";
paths = (
{
closed = 1;
nodes = (
"570 507 LINE SMOOTH",
"504 507 OFFCURVE",
"438 459 OFFCURVE",
"405 388 CURVE",
"450 363 LINE",
"450 379 LINE SMOOTH",
"450 456 OFFCURVE",
"401 507 OFFCURVE",
"327 507 CURVE SMOOTH",
"275 507 LINE SMOOTH",
"236 507 OFFCURVE",
"191 479 OFFCURVE",
"164 443 CURVE",
"164 501 LINE",
"38 501 LINE",
"38 0 LINE",
"174 0 LINE",
"174 302 LINE",
"186 356 OFFCURVE",
"223 387 OFFCURVE",
"263 387 CURVE SMOOTH",
"296 387 LINE SMOOTH",
"323 387 OFFCURVE",
"336 363 OFFCURVE",
"336 310 CURVE SMOOTH",
"336 0 LINE",
"472 0 LINE",
"472 311 LINE",
"483 357 OFFCURVE",
"517 387 OFFCURVE",
"558 387 CURVE SMOOTH",
"591 387 LINE SMOOTH",
"620 387 OFFCURVE",
"633 363 OFFCURVE",
"633 310 CURVE SMOOTH",
"633 0 LINE",
"769 0 LINE",
"769 320 LINE SMOOTH",
"769 443 OFFCURVE",
"719 507 OFFCURVE",
"622 507 CURVE SMOOTH"
);
}
);
width = 802;
}
);
note = m;
unicode = 006D;
},
{
color = 0;
glyphname = n;
lastChange = "2018-02-05 09:20:32 +0000";
layers = (
{
anchors = (
{
name = bottom;
position = "{279, 0}";
},
{
name = top;
position = "{279, 470}";
}
);
background = {
paths = (
{
closed = 1;
nodes = (
"425 0 LINE",
"492 0 LINE",
"492 336 LINE SMOOTH",
"492 439 OFFCURVE",
"430 507 OFFCURVE",
"336 507 CURVE SMOOTH",
"275 507 LINE SMOOTH",
"220 507 OFFCURVE",
"169 477 OFFCURVE",
"135 427 CURVE",
"135 501 LINE",
"70 501 LINE",
"70 0 LINE",
"137 0 LINE",
"137 319 LINE",
"151 388 OFFCURVE",
"205 446 OFFCURVE",
"275 446 CURVE SMOOTH",
"336 446 LINE SMOOTH",
"389 446 OFFCURVE",
"425 403 OFFCURVE",
"425 339 CURVE SMOOTH"
);
}
);
};
layerId = "0B1DFD06-3317-40CA-B510-4969A0718C16";
paths = (
{
closed = 1;
nodes = (
"440 0 LINE",
"472 0 LINE",
"472 353 LINE SMOOTH",
"472 445 OFFCURVE",
"418 507 OFFCURVE",
"336 507 CURVE SMOOTH",
"275 507 LINE SMOOTH",
"215 507 OFFCURVE",
"154 465 OFFCURVE",
"122 401 CURVE",
"122 501 LINE",
"90 501 LINE",
"90 0 LINE",
"122 0 LINE",
"122 334 LINE",
"145 420 OFFCURVE",
"206 477 OFFCURVE",
"275 477 CURVE SMOOTH",
"336 477 LINE SMOOTH",
"398 477 OFFCURVE",
"440 429 OFFCURVE",
"440 356 CURVE SMOOTH"
);
}
);
width = 557;
},
{
anchors = (
{
name = bottom;
position = "{279, 0}";
},
{
name = top;
position = "{279, 470}";
}
);
background = {
paths = (
{
closed = 1;
nodes = (
"425 0 LINE",
"492 0 LINE",
"492 336 LINE SMOOTH",
"492 439 OFFCURVE",
"430 507 OFFCURVE",
"336 507 CURVE SMOOTH",
"275 507 LINE SMOOTH",
"220 507 OFFCURVE",
"169 477 OFFCURVE",
"135 427 CURVE",
"135 501 LINE",
"70 501 LINE",
"70 0 LINE",
"137 0 LINE",
"137 319 LINE",
"151 388 OFFCURVE",
"205 446 OFFCURVE",
"275 446 CURVE SMOOTH",
"336 446 LINE SMOOTH",
"389 446 OFFCURVE",
"425 403 OFFCURVE",
"425 339 CURVE SMOOTH"
);
}
);
};
layerId = "CFC55C35-7F83-4FA6-AE88-8407B7D31CBE";
paths = (
{
closed = 1;
nodes = (
"420 0 LINE",
"492 0 LINE",
"492 336 LINE SMOOTH",
"492 439 OFFCURVE",
"430 507 OFFCURVE",
"336 507 CURVE SMOOTH",
"275 507 LINE SMOOTH",
"225 507 OFFCURVE",
"172 479 OFFCURVE",
"140 433 CURVE",
"140 501 LINE",
"70 501 LINE",
"70 0 LINE",
"142 0 LINE",
"142 322 LINE",
"159 388 OFFCURVE",
"212 443 OFFCURVE",
"275 443 CURVE SMOOTH",
"336 443 LINE SMOOTH",
"386 443 OFFCURVE",
"420 401 OFFCURVE",
"420 339 CURVE SMOOTH"
);
}
);
width = 557;
},
{
anchors = (
{
name = bottom;
position = "{279, 0}";
},
{
name = top;
position = "{279, 470}";
}
);
background = {
paths = (
{
closed = 1;
nodes = (
"388 0 LINE",
"524 0 LINE",
"524 320 LINE SMOOTH",
"524 438 OFFCURVE",
"458 507 OFFCURVE",
"347 507 CURVE SMOOTH",
"285 507 LINE SMOOTH",
"245 507 OFFCURVE",
"196 481 OFFCURVE",
"166 443 CURVE",
"166 501 LINE",
"38 501 LINE",
"38 0 LINE",
"174 0 LINE",
"174 297 LINE",
"186 351 OFFCURVE",
"229 387 OFFCURVE",
"283 387 CURVE SMOOTH",
"332 387 LINE SMOOTH",
"366 387 OFFCURVE",
"388 360 OFFCURVE",
"388 320 CURVE SMOOTH"
);
}
);
};
layerId = "EA06CE92-4115-4482-8874-2441C279E756";
paths = (
{
closed = 1;
nodes = (
"388 0 LINE",
"524 0 LINE",
"524 320 LINE SMOOTH",
"524 438 OFFCURVE",
"458 507 OFFCURVE",
"347 507 CURVE SMOOTH",
"285 507 LINE SMOOTH",
"245 507 OFFCURVE",
"197 481 OFFCURVE",
"166 443 CURVE",
"166 501 LINE",
"38 501 LINE",
"38 0 LINE",
"174 0 LINE",
"174 297 LINE",
"186 351 OFFCURVE",
"230 387 OFFCURVE",
"283 387 CURVE SMOOTH",
"332 387 LINE SMOOTH",
"366 387 OFFCURVE",
"388 360 OFFCURVE",
"388 320 CURVE SMOOTH"
);
}
);
width = 557;
}
);
note = n;
unicode = 006E;
},
{
color = 0;
glyphname = o;
lastChange = "2018-02-05 09:20:32 +0000";
layers = (
{
anchors = (
{
name = bottom;
position = "{271, 0}";
},
{
name = center;
position = "{271, 235}";
},
{
name = ogonek;
position = "{488, 10}";
},
{
name = top;
position = "{271, 470}";
},
{
name = topright;
position = "{522, 470}";
}
);
background = {
paths = (
{
closed = 1;
nodes = (
"492 326 LINE SMOOTH",
"492 435 OFFCURVE",
"424 507 OFFCURVE",
"323 507 CURVE SMOOTH",
"252 507 LINE SMOOTH",
"131 507 OFFCURVE",
"50 425 OFFCURVE",
"50 301 CURVE SMOOTH",
"50 171 LINE SMOOTH",
"50 62 OFFCURVE",
"117 -10 OFFCURVE",
"217 -10 CURVE SMOOTH",
"289 -10 LINE SMOOTH",
"411 -10 OFFCURVE",
"492 72 OFFCURVE",
"492 196 CURVE SMOOTH"
);
},
{
closed = 1;
nodes = (
"425 196 LINE SMOOTH",
"425 109 OFFCURVE",
"371 51 OFFCURVE",
"289 51 CURVE SMOOTH",
"217 51 LINE SMOOTH",
"157 51 OFFCURVE",
"117 99 OFFCURVE",
"117 171 CURVE SMOOTH",
"117 301 LINE SMOOTH",
"117 388 OFFCURVE",
"171 446 OFFCURVE",
"252 446 CURVE SMOOTH",
"323 446 LINE SMOOTH",
"384 446 OFFCURVE",
"425 398 OFFCURVE",
"425 326 CURVE SMOOTH"
);
}
);
};
layerId = "0B1DFD06-3317-40CA-B510-4969A0718C16";
paths = (
{
closed = 1;
nodes = (
"492 326 LINE SMOOTH",
"492 435 OFFCURVE",
"424 507 OFFCURVE",
"323 507 CURVE SMOOTH",
"252 507 LINE SMOOTH",
"131 507 OFFCURVE",
"50 425 OFFCURVE",
"50 301 CURVE SMOOTH",
"50 171 LINE SMOOTH",
"50 62 OFFCURVE",
"117 -10 OFFCURVE",
"217 -10 CURVE SMOOTH",
"289 -10 LINE SMOOTH",
"411 -10 OFFCURVE",
"492 72 OFFCURVE",
"492 196 CURVE SMOOTH"
);
},
{
closed = 1;
nodes = (
"420 196 LINE SMOOTH",
"420 111 OFFCURVE",
"368 54 OFFCURVE",
"289 54 CURVE SMOOTH",
"217 54 LINE SMOOTH",
"160 54 OFFCURVE",
"122 101 OFFCURVE",
"122 171 CURVE SMOOTH",
"122 301 LINE SMOOTH",
"122 386 OFFCURVE",
"174 443 OFFCURVE",
"252 443 CURVE SMOOTH",
"323 443 LINE SMOOTH",
"381 443 OFFCURVE",
"420 396 OFFCURVE",
"420 326 CURVE SMOOTH"
);
}
);
width = 542;
},
{
anchors = (
{
name = bottom;
position = "{271, 0}";
},
{
name = center;
position = "{271, 235}";
},
{
name = ogonek;
position = "{488, 10}";
},
{
name = top;
position = "{271, 470}";
},
{
name = topright;
position = "{522, 470}";
}
);
background = {
paths = (
{
closed = 1;
nodes = (
"492 326 LINE SMOOTH",
"492 435 OFFCURVE",
"424 507 OFFCURVE",
"323 507 CURVE SMOOTH",
"252 507 LINE SMOOTH",
"131 507 OFFCURVE",
"50 425 OFFCURVE",
"50 301 CURVE SMOOTH",
"50 171 LINE SMOOTH",
"50 62 OFFCURVE",
"117 -10 OFFCURVE",
"217 -10 CURVE SMOOTH",
"289 -10 LINE SMOOTH",
"411 -10 OFFCURVE",
"492 72 OFFCURVE",
"492 196 CURVE SMOOTH"
);
},
{
closed = 1;
nodes = (
"420 196 LINE SMOOTH",
"420 111 OFFCURVE",
"368 54 OFFCURVE",
"289 54 CURVE SMOOTH",
"217 54 LINE SMOOTH",
"160 54 OFFCURVE",
"122 101 OFFCURVE",
"122 171 CURVE SMOOTH",
"122 301 LINE SMOOTH",
"122 386 OFFCURVE",
"174 443 OFFCURVE",
"252 443 CURVE SMOOTH",
"323 443 LINE SMOOTH",
"381 443 OFFCURVE",
"420 396 OFFCURVE",
"420 326 CURVE SMOOTH"
);
}
);
};
layerId = "CFC55C35-7F83-4FA6-AE88-8407B7D31CBE";
paths = (
{
closed = 1;
nodes = (
"492 326 LINE SMOOTH",
"492 435 OFFCURVE",
"424 507 OFFCURVE",
"323 507 CURVE SMOOTH",
"252 507 LINE SMOOTH",
"131 507 OFFCURVE",
"50 425 OFFCURVE",
"50 301 CURVE SMOOTH",
"50 171 LINE SMOOTH",
"50 62 OFFCURVE",
"117 -10 OFFCURVE",
"217 -10 CURVE SMOOTH",
"289 -10 LINE SMOOTH",
"411 -10 OFFCURVE",
"492 72 OFFCURVE",
"492 196 CURVE SMOOTH"
);
},
{
closed = 1;
nodes = (
"420 196 LINE SMOOTH",
"420 111 OFFCURVE",
"368 54 OFFCURVE",
"289 54 CURVE SMOOTH",
"217 54 LINE SMOOTH",
"160 54 OFFCURVE",
"122 101 OFFCURVE",
"122 171 CURVE SMOOTH",
"122 301 LINE SMOOTH",
"122 386 OFFCURVE",
"174 443 OFFCURVE",
"252 443 CURVE SMOOTH",
"323 443 LINE SMOOTH",
"381 443 OFFCURVE",
"420 396 OFFCURVE",
"420 326 CURVE SMOOTH"
);
}
);
width = 542;
},
{
anchors = (
{
name = bottom;
position = "{271, 0}";
},
{
name = center;
position = "{271, 235}";
},
{
name = ogonek;
position = "{488, 10}";
},
{
name = top;
position = "{271, 470}";
},
{
name = topright;
position = "{522, 470}";
}
);
background = {
paths = (
{
closed = 1;
nodes = (
"492 326 LINE SMOOTH",
"492 435 OFFCURVE",
"424 507 OFFCURVE",
"323 507 CURVE SMOOTH",
"252 507 LINE SMOOTH",
"131 507 OFFCURVE",
"50 425 OFFCURVE",
"50 301 CURVE SMOOTH",
"50 171 LINE SMOOTH",
"50 62 OFFCURVE",
"117 -10 OFFCURVE",
"217 -10 CURVE SMOOTH",
"289 -10 LINE SMOOTH",
"411 -10 OFFCURVE",
"492 72 OFFCURVE",
"492 196 CURVE SMOOTH"
);
},
{
closed = 1;
nodes = (
"420 196 LINE SMOOTH",
"420 111 OFFCURVE",
"368 54 OFFCURVE",
"289 54 CURVE SMOOTH",
"217 54 LINE SMOOTH",
"160 54 OFFCURVE",
"122 101 OFFCURVE",
"122 171 CURVE SMOOTH",
"122 301 LINE SMOOTH",
"122 386 OFFCURVE",
"174 443 OFFCURVE",
"252 443 CURVE SMOOTH",
"323 443 LINE SMOOTH",
"381 443 OFFCURVE",
"420 396 OFFCURVE",
"420 326 CURVE SMOOTH"
);
}
);
};
layerId = "EA06CE92-4115-4482-8874-2441C279E756";
paths = (
{
closed = 1;
nodes = (
"524 300 LINE SMOOTH",
"524 424 OFFCURVE",
"444 507 OFFCURVE",
"323 507 CURVE SMOOTH",
"252 507 LINE SMOOTH",
"112 507 OFFCURVE",
"18 414 OFFCURVE",
"18 275 CURVE SMOOTH",
"18 197 LINE SMOOTH",
"18 73 OFFCURVE",
"98 -10 OFFCURVE",
"217 -10 CURVE SMOOTH",
"289 -10 LINE SMOOTH",
"430 -10 OFFCURVE",
"524 83 OFFCURVE",
"524 222 CURVE SMOOTH"
);
},
{
closed = 1;
nodes = (
"388 222 LINE SMOOTH",
"388 154 OFFCURVE",
"348 108 OFFCURVE",
"289 108 CURVE SMOOTH",
"217 108 LINE SMOOTH",
"179 108 OFFCURVE",
"154 144 OFFCURVE",
"154 197 CURVE SMOOTH",
"154 275 LINE SMOOTH",
"154 343 OFFCURVE",
"193 389 OFFCURVE",
"252 389 CURVE SMOOTH",
"323 389 LINE SMOOTH",
"362 389 OFFCURVE",
"388 353 OFFCURVE",
"388 300 CURVE SMOOTH"
);
}
);
width = 542;
}
);
note = o;
unicode = 006F;
},
{
color = 0;
glyphname = p;
lastChange = "2018-02-05 09:20:32 +0000";
layers = (
{
anchors = (
{
name = bottom;
position = "{274, 0}";
},
{
name = top;
position = "{274, 470}";
}
);
background = {
paths = (
{
closed = 1;
nodes = (
"135 501 LINE",
"70 501 LINE",
"70 -201 LINE",
"137 -201 LINE",
"137 49 LINE",
"162 14 OFFCURVE",
"207 -10 OFFCURVE",
"249 -10 CURVE SMOOTH",
"311 -10 LINE SMOOTH",
"423 -10 OFFCURVE",
"498 75 OFFCURVE",
"498 203 CURVE SMOOTH",
"498 330 LINE SMOOTH",
"498 436 OFFCURVE",
"431 507 OFFCURVE",
"337 507 CURVE SMOOTH",
"275 507 LINE SMOOTH",
"220 507 OFFCURVE",
"165 475 OFFCURVE",
"135 426 CURVE"
);
},
{
closed = 1;
nodes = (
"137 301 LINE",
"142 378 OFFCURVE",
"200 446 OFFCURVE",
"275 446 CURVE SMOOTH",
"337 446 LINE SMOOTH",
"391 446 OFFCURVE",
"431 400 OFFCURVE",
"431 330 CURVE SMOOTH",
"431 203 LINE SMOOTH",
"431 112 OFFCURVE",
"383 51 OFFCURVE",
"311 51 CURVE SMOOTH",
"249 51 LINE SMOOTH",
"196 51 OFFCURVE",
"142 103 OFFCURVE",
"137 168 CURVE"
);
}
);
};
layerId = "0B1DFD06-3317-40CA-B510-4969A0718C16";
paths = (
{
closed = 1;
nodes = (
"142 -199 LINE",
"142 54 LINE",
"166 18 OFFCURVE",
"209 -6 OFFCURVE",
"249 -6 CURVE SMOOTH",
"311 -6 LINE SMOOTH",
"423 -6 OFFCURVE",
"498 79 OFFCURVE",
"498 207 CURVE SMOOTH",
"498 334 LINE SMOOTH",
"498 440 OFFCURVE",
"435 511 OFFCURVE",
"341 511 CURVE SMOOTH",
"279 511 LINE SMOOTH",
"225 511 OFFCURVE",
"170 479 OFFCURVE",
"140 430 CURVE",
"140 501 LINE",
"70 501 LINE",
"70 -199 LINE"
);
},
{
closed = 1;
nodes = (
"196 58 OFFCURVE",
"151 106 OFFCURVE",
"142 177 CURVE",
"142 314 LINE",
"161 394 OFFCURVE",
"216 447 OFFCURVE",
"279 447 CURVE SMOOTH",
"341 447 LINE SMOOTH",
"392 447 OFFCURVE",
"426 402 OFFCURVE",
"426 334 CURVE SMOOTH",
"426 207 LINE SMOOTH",
"426 118 OFFCURVE",
"380 58 OFFCURVE",
"311 58 CURVE SMOOTH",
"254 58 LINE SMOOTH"
);
}
);
width = 548;
},
{
anchors = (
{
name = bottom;
position = "{274, 0}";
},
{
name = top;
position = "{274, 470}";
}
);
background = {
paths = (
{
closed = 1;
nodes = (
"135 501 LINE",
"70 501 LINE",
"70 -201 LINE",
"137 -201 LINE",
"137 49 LINE",
"162 14 OFFCURVE",
"207 -10 OFFCURVE",
"249 -10 CURVE SMOOTH",
"311 -10 LINE SMOOTH",
"423 -10 OFFCURVE",
"498 75 OFFCURVE",
"498 203 CURVE SMOOTH",
"498 330 LINE SMOOTH",
"498 436 OFFCURVE",
"431 507 OFFCURVE",
"337 507 CURVE SMOOTH",
"275 507 LINE SMOOTH",
"220 507 OFFCURVE",
"165 475 OFFCURVE",
"135 426 CURVE"
);
},
{
closed = 1;
nodes = (
"137 301 LINE",
"142 378 OFFCURVE",
"200 446 OFFCURVE",
"275 446 CURVE SMOOTH",
"337 446 LINE SMOOTH",
"391 446 OFFCURVE",
"431 400 OFFCURVE",
"431 330 CURVE SMOOTH",
"431 203 LINE SMOOTH",
"431 112 OFFCURVE",
"383 51 OFFCURVE",
"311 51 CURVE SMOOTH",
"249 51 LINE SMOOTH",
"196 51 OFFCURVE",
"142 103 OFFCURVE",
"137 168 CURVE"
);
}
);
};
layerId = "CFC55C35-7F83-4FA6-AE88-8407B7D31CBE";
paths = (
{
closed = 1;
nodes = (
"142 -199 LINE",
"142 54 LINE",
"166 18 OFFCURVE",
"209 -6 OFFCURVE",
"249 -6 CURVE SMOOTH",
"311 -6 LINE SMOOTH",
"423 -6 OFFCURVE",
"498 79 OFFCURVE",
"498 207 CURVE SMOOTH",
"498 334 LINE SMOOTH",
"498 440 OFFCURVE",
"435 511 OFFCURVE",
"341 511 CURVE SMOOTH",
"279 511 LINE SMOOTH",
"225 511 OFFCURVE",
"170 479 OFFCURVE",
"140 430 CURVE",
"140 501 LINE",
"70 501 LINE",
"70 -199 LINE"
);
},
{
closed = 1;
nodes = (
"196 58 OFFCURVE",
"151 106 OFFCURVE",
"142 177 CURVE",
"142 314 LINE",
"161 394 OFFCURVE",
"216 447 OFFCURVE",
"279 447 CURVE SMOOTH",
"341 447 LINE SMOOTH",
"392 447 OFFCURVE",
"426 402 OFFCURVE",
"426 334 CURVE SMOOTH",
"426 207 LINE SMOOTH",
"426 118 OFFCURVE",
"380 58 OFFCURVE",
"311 58 CURVE SMOOTH",
"254 58 LINE SMOOTH"
);
}
);
width = 548;
},
{
anchors = (
{
name = bottom;
position = "{274, 0}";
},
{
name = top;
position = "{274, 470}";
}
);
background = {
paths = (
{
closed = 1;
nodes = (
"198 1 OFFCURVE",
"224 -6 OFFCURVE",
"249 -6 CURVE SMOOTH",
"311 -6 LINE SMOOTH",
"442 -6 OFFCURVE",
"530 92 OFFCURVE",
"530 235 CURVE SMOOTH",
"530 302 LINE SMOOTH",
"530 424 OFFCURVE",
"453 507 OFFCURVE",
"341 507 CURVE SMOOTH",
"279 507 LINE SMOOTH",
"242 507 OFFCURVE",
"204 495 OFFCURVE",
"172 473 CURVE",
"172 497 LINE",
"38 497 LINE",
"38 -199 LINE",
"174 -199 LINE",
"174 14 LINE"
);
},
{
closed = 1;
nodes = (
"394 161 OFFCURVE",
"360 114 OFFCURVE",
"311 114 CURVE SMOOTH",
"254 114 LINE SMOOTH",
"214 114 OFFCURVE",
"182 150 OFFCURVE",
"174 207 CURVE",
"174 279 LINE",
"191 345 OFFCURVE",
"233 387 OFFCURVE",
"279 387 CURVE SMOOTH",
"341 387 LINE SMOOTH",
"372 387 OFFCURVE",
"394 354 OFFCURVE",
"394 302 CURVE SMOOTH",
"394 235 LINE SMOOTH"
);
}
);
};
layerId = "EA06CE92-4115-4482-8874-2441C279E756";
paths = (
{
closed = 1;
nodes = (
"174 -203 LINE",
"174 36 LINE",
"196 8 OFFCURVE",
"235 -10 OFFCURVE",
"269 -10 CURVE SMOOTH",
"327 -10 LINE SMOOTH",
"450 -10 OFFCURVE",
"530 78 OFFCURVE",
"530 211 CURVE SMOOTH",
"530 322 LINE SMOOTH",
"530 433 OFFCURVE",
"460 507 OFFCURVE",
"359 507 CURVE SMOOTH",
"287 507 LINE SMOOTH",
"240 507 OFFCURVE",
"192 479 OFFCURVE",
"164 437 CURVE",
"164 497 LINE",
"38 497 LINE",
"38 -203 LINE"
);
},
{
closed = 1;
nodes = (
"212 108 OFFCURVE",
"178 140 OFFCURVE",
"174 187 CURVE",
"174 282 LINE",
"182 346 OFFCURVE",
"219 389 OFFCURVE",
"277 389 CURVE SMOOTH",
"331 389 LINE SMOOTH",
"366 389 OFFCURVE",
"394 362 OFFCURVE",
"394 322 CURVE SMOOTH",
"394 211 LINE SMOOTH",
"394 149 OFFCURVE",
"360 108 OFFCURVE",
"307 108 CURVE SMOOTH",
"255 108 LINE SMOOTH"
);
}
);
width = 548;
}
);
note = p;
unicode = 0070;
},
{
color = 0;
glyphname = q;
lastChange = "2018-02-05 09:20:32 +0000";
layers = (
{
background = {
paths = (
{
closed = 1;
nodes = (
"431 -203 LINE",
"498 -203 LINE",
"498 501 LINE",
"433 501 LINE",
"433 446 LINE",
"407 483 OFFCURVE",
"364 507 OFFCURVE",
"325 507 CURVE SMOOTH",
"263 507 LINE SMOOTH",
"147 507 OFFCURVE",
"70 422 OFFCURVE",
"70 294 CURVE SMOOTH",
"70 167 LINE SMOOTH",
"70 61 OFFCURVE",
"133 -10 OFFCURVE",
"227 -10 CURVE SMOOTH",
"289 -10 LINE SMOOTH",
"344 -10 OFFCURVE",
"401 22 OFFCURVE",
"431 71 CURVE"
);
},
{
closed = 1;
nodes = (
"431 196 LINE",
"426 119 OFFCURVE",
"364 51 OFFCURVE",
"289 51 CURVE SMOOTH",
"227 51 LINE SMOOTH",
"173 51 OFFCURVE",
"137 97 OFFCURVE",
"137 167 CURVE SMOOTH",
"137 294 LINE SMOOTH",
"137 385 OFFCURVE",
"187 446 OFFCURVE",
"263 446 CURVE SMOOTH",
"325 446 LINE SMOOTH",
"378 446 OFFCURVE",
"426 394 OFFCURVE",
"431 329 CURVE"
);
}
);
};
layerId = "0B1DFD06-3317-40CA-B510-4969A0718C16";
paths = (
{
closed = 1;
nodes = (
"426 -203 LINE",
"498 -203 LINE",
"498 501 LINE",
"428 501 LINE",
"428 442 LINE",
"401 483 OFFCURVE",
"360 507 OFFCURVE",
"320 507 CURVE SMOOTH",
"267 507 LINE SMOOTH",
"149 507 OFFCURVE",
"70 424 OFFCURVE",
"70 300 CURVE SMOOTH",
"70 167 LINE SMOOTH",
"70 61 OFFCURVE",
"133 -10 OFFCURVE",
"227 -10 CURVE SMOOTH",
"289 -10 LINE SMOOTH",
"344 -10 OFFCURVE",
"392 15 OFFCURVE",
"426 64 CURVE"
);
},
{
closed = 1;
nodes = (
"426 196 LINE",
"421 119 OFFCURVE",
"364 54 OFFCURVE",
"289 54 CURVE SMOOTH",
"227 54 LINE SMOOTH",
"173 54 OFFCURVE",
"142 97 OFFCURVE",
"142 167 CURVE SMOOTH",
"142 300 LINE SMOOTH",
"142 386 OFFCURVE",
"192 443 OFFCURVE",
"267 443 CURVE SMOOTH",
"320 443 LINE SMOOTH",
"373 443 OFFCURVE",
"421 390 OFFCURVE",
"426 325 CURVE"
);
}
);
width = 548;
},
{
background = {
paths = (
{
closed = 1;
nodes = (
"431 -203 LINE",
"498 -203 LINE",
"498 501 LINE",
"433 501 LINE",
"433 446 LINE",
"407 483 OFFCURVE",
"364 507 OFFCURVE",
"325 507 CURVE SMOOTH",
"263 507 LINE SMOOTH",
"147 507 OFFCURVE",
"70 422 OFFCURVE",
"70 294 CURVE SMOOTH",
"70 167 LINE SMOOTH",
"70 61 OFFCURVE",
"133 -10 OFFCURVE",
"227 -10 CURVE SMOOTH",
"289 -10 LINE SMOOTH",
"344 -10 OFFCURVE",
"401 22 OFFCURVE",
"431 71 CURVE"
);
},
{
closed = 1;
nodes = (
"431 196 LINE",
"426 119 OFFCURVE",
"364 51 OFFCURVE",
"289 51 CURVE SMOOTH",
"227 51 LINE SMOOTH",
"173 51 OFFCURVE",
"137 97 OFFCURVE",
"137 167 CURVE SMOOTH",
"137 294 LINE SMOOTH",
"137 385 OFFCURVE",
"187 446 OFFCURVE",
"263 446 CURVE SMOOTH",
"325 446 LINE SMOOTH",
"378 446 OFFCURVE",
"426 394 OFFCURVE",
"431 329 CURVE"
);
}
);
};
layerId = "CFC55C35-7F83-4FA6-AE88-8407B7D31CBE";
paths = (
{
closed = 1;
nodes = (
"426 -203 LINE",
"498 -203 LINE",
"498 501 LINE",
"428 501 LINE",
"428 442 LINE",
"401 483 OFFCURVE",
"360 507 OFFCURVE",
"320 507 CURVE SMOOTH",
"267 507 LINE SMOOTH",
"149 507 OFFCURVE",
"70 424 OFFCURVE",
"70 300 CURVE SMOOTH",
"70 167 LINE SMOOTH",
"70 61 OFFCURVE",
"133 -10 OFFCURVE",
"227 -10 CURVE SMOOTH",
"289 -10 LINE SMOOTH",
"344 -10 OFFCURVE",
"392 15 OFFCURVE",
"426 64 CURVE"
);
},
{
closed = 1;
nodes = (
"426 196 LINE",
"421 119 OFFCURVE",
"364 54 OFFCURVE",
"289 54 CURVE SMOOTH",
"227 54 LINE SMOOTH",
"173 54 OFFCURVE",
"142 97 OFFCURVE",
"142 167 CURVE SMOOTH",
"142 300 LINE SMOOTH",
"142 386 OFFCURVE",
"192 443 OFFCURVE",
"267 443 CURVE SMOOTH",
"320 443 LINE SMOOTH",
"373 443 OFFCURVE",
"421 390 OFFCURVE",
"426 325 CURVE"
);
}
);
width = 548;
},
{
background = {
paths = (
{
closed = 1;
nodes = (
"426 -203 LINE",
"498 -203 LINE",
"498 501 LINE",
"428 501 LINE",
"428 442 LINE",
"401 483 OFFCURVE",
"360 507 OFFCURVE",
"320 507 CURVE SMOOTH",
"267 507 LINE SMOOTH",
"149 507 OFFCURVE",
"70 424 OFFCURVE",
"70 300 CURVE SMOOTH",
"70 167 LINE SMOOTH",
"70 61 OFFCURVE",
"133 -10 OFFCURVE",
"227 -10 CURVE SMOOTH",
"289 -10 LINE SMOOTH",
"344 -10 OFFCURVE",
"392 15 OFFCURVE",
"426 64 CURVE"
);
},
{
closed = 1;
nodes = (
"426 196 LINE",
"421 119 OFFCURVE",
"364 54 OFFCURVE",
"289 54 CURVE SMOOTH",
"227 54 LINE SMOOTH",
"173 54 OFFCURVE",
"142 97 OFFCURVE",
"142 167 CURVE SMOOTH",
"142 300 LINE SMOOTH",
"142 386 OFFCURVE",
"192 443 OFFCURVE",
"267 443 CURVE SMOOTH",
"320 443 LINE SMOOTH",
"373 443 OFFCURVE",
"421 390 OFFCURVE",
"426 325 CURVE"
);
}
);
};
layerId = "EA06CE92-4115-4482-8874-2441C279E756";
paths = (
{
closed = 1;
nodes = (
"394 -203 LINE",
"530 -203 LINE",
"530 501 LINE",
"404 501 LINE",
"404 441 LINE",
"376 483 OFFCURVE",
"333 507 OFFCURVE",
"292 507 CURVE SMOOTH",
"234 507 LINE SMOOTH",
"111 507 OFFCURVE",
"38 420 OFFCURVE",
"38 272 CURVE SMOOTH",
"38 195 LINE SMOOTH",
"38 66 OFFCURVE",
"110 -10 OFFCURVE",
"229 -10 CURVE SMOOTH",
"289 -10 LINE SMOOTH",
"323 -10 OFFCURVE",
"365 8 OFFCURVE",
"394 36 CURVE"
);
},
{
closed = 1;
nodes = (
"394 215 LINE",
"389 152 OFFCURVE",
"347 110 OFFCURVE",
"289 110 CURVE SMOOTH",
"229 110 LINE SMOOTH",
"194 110 OFFCURVE",
"174 142 OFFCURVE",
"174 195 CURVE SMOOTH",
"174 272 LINE SMOOTH",
"174 346 OFFCURVE",
"204 389 OFFCURVE",
"256 389 CURVE SMOOTH",
"312 389 LINE SMOOTH",
"357 389 OFFCURVE",
"390 355 OFFCURVE",
"394 304 CURVE"
);
}
);
width = 548;
}
);
note = q;
unicode = 0071;
},
{
color = 0;
glyphname = r;
lastChange = "2018-02-05 09:20:32 +0000";
layers = (
{
anchors = (
{
name = bottom;
position = "{176, 0}";
},
{
name = top;
position = "{176, 470}";
}
);
layerId = "0B1DFD06-3317-40CA-B510-4969A0718C16";
paths = (
{
closed = 1;
nodes = (
"70 0 LINE",
"142 0 LINE",
"142 301 LINE SMOOTH",
"142 387 OFFCURVE",
"198 444 OFFCURVE",
"283 444 CURVE SMOOTH",
"327 444 LINE",
"327 507 LINE",
"283 507 LINE SMOOTH",
"225 507 OFFCURVE",
"167 475 OFFCURVE",
"140 428 CURVE",
"140 501 LINE",
"70 501 LINE"
);
}
);
width = 352;
},
{
anchors = (
{
name = bottom;
position = "{176, 0}";
},
{
name = top;
position = "{176, 470}";
}
);
layerId = "CFC55C35-7F83-4FA6-AE88-8407B7D31CBE";
paths = (
{
closed = 1;
nodes = (
"70 0 LINE",
"142 0 LINE",
"142 301 LINE SMOOTH",
"142 387 OFFCURVE",
"198 444 OFFCURVE",
"283 444 CURVE SMOOTH",
"327 444 LINE",
"327 507 LINE",
"283 507 LINE SMOOTH",
"225 507 OFFCURVE",
"167 475 OFFCURVE",
"140 428 CURVE",
"140 501 LINE",
"70 501 LINE"
);
}
);
width = 352;
},
{
anchors = (
{
name = bottom;
position = "{176, 0}";
},
{
name = top;
position = "{176, 470}";
}
);
background = {
paths = (
{
closed = 1;
nodes = (
"38 0 LINE",
"174 0 LINE",
"174 273 LINE SMOOTH",
"174 344 OFFCURVE",
"216 388 OFFCURVE",
"283 388 CURVE SMOOTH",
"359 388 LINE",
"359 507 LINE",
"283 507 LINE SMOOTH",
"244 507 OFFCURVE",
"205 495 OFFCURVE",
"172 474 CURVE",
"172 501 LINE",
"38 501 LINE"
);
}
);
};
layerId = "EA06CE92-4115-4482-8874-2441C279E756";
paths = (
{
closed = 1;
nodes = (
"38 0 LINE",
"174 0 LINE",
"174 273 LINE SMOOTH",
"174 343 OFFCURVE",
"222 389 OFFCURVE",
"293 389 CURVE SMOOTH",
"359 389 LINE",
"359 507 LINE",
"293 507 LINE SMOOTH",
"242 507 OFFCURVE",
"194 484 OFFCURVE",
"164 444 CURVE",
"164 501 LINE",
"38 501 LINE"
);
}
);
width = 352;
}
);
note = r;
unicode = 0072;
},
{
color = 0;
glyphname = s;
lastChange = "2018-02-05 09:20:32 +0000";
layers = (
{
anchors = (
{
name = bottom;
position = "{255, 0}";
},
{
name = top;
position = "{255, 470}";
}
);
background = {
paths = (
{
closed = 1;
nodes = (
"339 209 LINE SMOOTH",
"374 204 OFFCURVE",
"398 181 OFFCURVE",
"398 152 CURVE SMOOTH",
"398 132 LINE SMOOTH",
"398 82 OFFCURVE",
"354 49 OFFCURVE",
"288 49 CURVE SMOOTH",
"207 49 LINE SMOOTH",
"149 49 OFFCURVE",
"111 88 OFFCURVE",
"111 146 CURVE",
"45 146 LINE",
"45 52 OFFCURVE",
"110 -10 OFFCURVE",
"207 -10 CURVE SMOOTH",
"288 -10 LINE SMOOTH",
"394 -10 OFFCURVE",
"465 48 OFFCURVE",
"465 134 CURVE SMOOTH",
"465 152 LINE SMOOTH",
"465 212 OFFCURVE",
"421 258 OFFCURVE",
"355 268 CURVE SMOOTH",
"185 294 LINE SMOOTH",
"147 300 OFFCURVE",
"121 323 OFFCURVE",
"121 352 CURVE SMOOTH",
"121 371 LINE SMOOTH",
"121 417 OFFCURVE",
"166 448 OFFCURVE",
"234 448 CURVE SMOOTH",
"297 448 LINE SMOOTH",
"346 448 OFFCURVE",
"380 414 OFFCURVE",
"381 363 CURVE",
"448 363 LINE",
"448 449 OFFCURVE",
"388 507 OFFCURVE",
"297 507 CURVE SMOOTH",
"234 507 LINE SMOOTH",
"126 507 OFFCURVE",
"54 452 OFFCURVE",
"54 370 CURVE SMOOTH",
"54 351 LINE SMOOTH",
"54 292 OFFCURVE",
"100 246 OFFCURVE",
"169 235 CURVE"
);
}
);
};
layerId = "0B1DFD06-3317-40CA-B510-4969A0718C16";
paths = (
{
closed = 1;
nodes = (
"339 207 LINE SMOOTH",
"371 202 OFFCURVE",
"393 180 OFFCURVE",
"393 152 CURVE SMOOTH",
"393 132 LINE SMOOTH",
"393 84 OFFCURVE",
"351 52 OFFCURVE",
"288 52 CURVE SMOOTH",
"207 52 LINE SMOOTH",
"152 52 OFFCURVE",
"115 90 OFFCURVE",
"115 146 CURVE",
"45 146 LINE",
"45 52 OFFCURVE",
"110 -10 OFFCURVE",
"207 -10 CURVE SMOOTH",
"288 -10 LINE SMOOTH",
"394 -10 OFFCURVE",
"465 48 OFFCURVE",
"465 134 CURVE SMOOTH",
"465 152 LINE SMOOTH",
"465 212 OFFCURVE",
"421 259 OFFCURVE",
"355 269 CURVE SMOOTH",
"185 295 LINE SMOOTH",
"150 301 OFFCURVE",
"126 324 OFFCURVE",
"126 352 CURVE SMOOTH",
"126 371 LINE SMOOTH",
"126 415 OFFCURVE",
"169 445 OFFCURVE",
"234 445 CURVE SMOOTH",
"297 445 LINE SMOOTH",
"346 445 OFFCURVE",
"379 412 OFFCURVE",
"380 363 CURVE",
"450 363 LINE",
"450 449 OFFCURVE",
"389 507 OFFCURVE",
"297 507 CURVE SMOOTH",
"234 507 LINE SMOOTH",
"126 507 OFFCURVE",
"54 452 OFFCURVE",
"54 370 CURVE SMOOTH",
"54 351 LINE SMOOTH",
"54 291 OFFCURVE",
"100 244 OFFCURVE",
"169 233 CURVE"
);
}
);
width = 510;
},
{
anchors = (
{
name = bottom;
position = "{255, 0}";
},
{
name = top;
position = "{255, 470}";
}
);
background = {
paths = (
{
closed = 1;
nodes = (
"339 209 LINE SMOOTH",
"374 204 OFFCURVE",
"398 181 OFFCURVE",
"398 152 CURVE SMOOTH",
"398 132 LINE SMOOTH",
"398 82 OFFCURVE",
"354 49 OFFCURVE",
"288 49 CURVE SMOOTH",
"207 49 LINE SMOOTH",
"149 49 OFFCURVE",
"111 88 OFFCURVE",
"111 146 CURVE",
"45 146 LINE",
"45 52 OFFCURVE",
"110 -10 OFFCURVE",
"207 -10 CURVE SMOOTH",
"288 -10 LINE SMOOTH",
"394 -10 OFFCURVE",
"465 48 OFFCURVE",
"465 134 CURVE SMOOTH",
"465 152 LINE SMOOTH",
"465 212 OFFCURVE",
"421 258 OFFCURVE",
"355 268 CURVE SMOOTH",
"185 294 LINE SMOOTH",
"147 300 OFFCURVE",
"121 323 OFFCURVE",
"121 352 CURVE SMOOTH",
"121 371 LINE SMOOTH",
"121 417 OFFCURVE",
"166 448 OFFCURVE",
"234 448 CURVE SMOOTH",
"297 448 LINE SMOOTH",
"346 448 OFFCURVE",
"380 414 OFFCURVE",
"381 363 CURVE",
"448 363 LINE",
"448 449 OFFCURVE",
"388 507 OFFCURVE",
"297 507 CURVE SMOOTH",
"234 507 LINE SMOOTH",
"126 507 OFFCURVE",
"54 452 OFFCURVE",
"54 370 CURVE SMOOTH",
"54 351 LINE SMOOTH",
"54 292 OFFCURVE",
"100 246 OFFCURVE",
"169 235 CURVE"
);
}
);
};
layerId = "CFC55C35-7F83-4FA6-AE88-8407B7D31CBE";
paths = (
{
closed = 1;
nodes = (
"339 207 LINE SMOOTH",
"371 202 OFFCURVE",
"393 180 OFFCURVE",
"393 152 CURVE SMOOTH",
"393 132 LINE SMOOTH",
"393 84 OFFCURVE",
"351 52 OFFCURVE",
"288 52 CURVE SMOOTH",
"207 52 LINE SMOOTH",
"152 52 OFFCURVE",
"115 90 OFFCURVE",
"115 146 CURVE",
"45 146 LINE",
"45 52 OFFCURVE",
"110 -10 OFFCURVE",
"207 -10 CURVE SMOOTH",
"288 -10 LINE SMOOTH",
"394 -10 OFFCURVE",
"465 48 OFFCURVE",
"465 134 CURVE SMOOTH",
"465 152 LINE SMOOTH",
"465 212 OFFCURVE",
"421 259 OFFCURVE",
"355 269 CURVE SMOOTH",
"185 295 LINE SMOOTH",
"150 301 OFFCURVE",
"126 324 OFFCURVE",
"126 352 CURVE SMOOTH",
"126 371 LINE SMOOTH",
"126 415 OFFCURVE",
"169 445 OFFCURVE",
"234 445 CURVE SMOOTH",
"297 445 LINE SMOOTH",
"346 445 OFFCURVE",
"379 412 OFFCURVE",
"380 363 CURVE",
"450 363 LINE",
"450 449 OFFCURVE",
"389 507 OFFCURVE",
"297 507 CURVE SMOOTH",
"234 507 LINE SMOOTH",
"126 507 OFFCURVE",
"54 452 OFFCURVE",
"54 370 CURVE SMOOTH",
"54 351 LINE SMOOTH",
"54 291 OFFCURVE",
"100 244 OFFCURVE",
"169 233 CURVE"
);
}
);
width = 510;
},
{
anchors = (
{
name = bottom;
position = "{255, 0}";
},
{
name = top;
position = "{255, 470}";
}
);
background = {
paths = (
{
closed = 1;
nodes = (
"334 181 LINE SMOOTH",
"350 179 OFFCURVE",
"361 167 OFFCURVE",
"361 152 CURVE SMOOTH",
"361 136 LINE SMOOTH",
"361 119 OFFCURVE",
"332 108 OFFCURVE",
"288 108 CURVE SMOOTH",
"207 108 LINE SMOOTH",
"172 108 OFFCURVE",
"149 134 OFFCURVE",
"149 172 CURVE",
"15 172 LINE",
"15 63 OFFCURVE",
"92 -10 OFFCURVE",
"207 -10 CURVE SMOOTH",
"288 -10 LINE SMOOTH",
"413 -10 OFFCURVE",
"497 48 OFFCURVE",
"497 136 CURVE SMOOTH",
"497 152 LINE SMOOTH",
"497 216 OFFCURVE",
"442 268 OFFCURVE",
"360 281 CURVE SMOOTH",
"190 307 LINE SMOOTH",
"171 310 OFFCURVE",
"158 321 OFFCURVE",
"158 334 CURVE SMOOTH",
"158 353 LINE SMOOTH",
"158 375 OFFCURVE",
"188 389 OFFCURVE",
"234 389 CURVE SMOOTH",
"297 389 LINE SMOOTH",
"326 389 OFFCURVE",
"346 368 OFFCURVE",
"346 337 CURVE",
"480 337 LINE",
"480 439 OFFCURVE",
"407 507 OFFCURVE",
"297 507 CURVE SMOOTH",
"234 507 LINE SMOOTH",
"107 507 OFFCURVE",
"22 445 OFFCURVE",
"22 352 CURVE SMOOTH",
"22 333 LINE SMOOTH",
"22 270 OFFCURVE",
"79 220 OFFCURVE",
"164 207 CURVE SMOOTH"
);
}
);
};
layerId = "EA06CE92-4115-4482-8874-2441C279E756";
paths = (
{
closed = 1;
nodes = (
"334 183 LINE SMOOTH",
"351 180 OFFCURVE",
"363 169 OFFCURVE",
"363 156 CURVE SMOOTH",
"363 140 LINE SMOOTH",
"363 120 OFFCURVE",
"333 106 OFFCURVE",
"288 106 CURVE SMOOTH",
"207 106 LINE SMOOTH",
"172 106 OFFCURVE",
"147 132 OFFCURVE",
"147 170 CURVE",
"15 170 LINE",
"15 62 OFFCURVE",
"92 -10 OFFCURVE",
"207 -10 CURVE SMOOTH",
"288 -10 LINE SMOOTH",
"413 -10 OFFCURVE",
"497 50 OFFCURVE",
"497 140 CURVE SMOOTH",
"497 156 LINE SMOOTH",
"497 220 OFFCURVE",
"446 266 OFFCURVE",
"360 281 CURVE SMOOTH",
"190 311 LINE SMOOTH",
"169 315 OFFCURVE",
"156 326 OFFCURVE",
"156 340 CURVE SMOOTH",
"156 356 LINE SMOOTH",
"156 377 OFFCURVE",
"187 391 OFFCURVE",
"234 391 CURVE SMOOTH",
"297 391 LINE SMOOTH",
"326 391 OFFCURVE",
"348 369 OFFCURVE",
"348 337 CURVE",
"480 337 LINE",
"480 439 OFFCURVE",
"407 507 OFFCURVE",
"297 507 CURVE SMOOTH",
"234 507 LINE SMOOTH",
"107 507 OFFCURVE",
"22 446 OFFCURVE",
"22 355 CURVE SMOOTH",
"22 339 LINE SMOOTH",
"22 276 OFFCURVE",
"75 229 OFFCURVE",
"164 213 CURVE SMOOTH"
);
}
);
width = 510;
}
);
note = s;
unicode = 0073;
},
{
color = 0;
glyphname = t;
lastChange = "2018-02-05 09:20:32 +0000";
layers = (
{
anchors = (
{
name = bottom;
position = "{172, 0}";
},
{
name = center;
position = "{172, 235}";
},
{
name = top;
position = "{172, 470}";
},
{
name = topright;
position = "{324, 470}";
}
);
background = {
paths = (
{
closed = 1;
nodes = (
"117 439 LINE",
"30 439 LINE",
"30 501 LINE",
"117 501 LINE",
"117 700 LINE",
"189 700 LINE",
"189 501 LINE",
"309 501 LINE",
"309 439 LINE",
"189 439 LINE",
"189 146 LINE SMOOTH",
"189 86 OFFCURVE",
"211 64 OFFCURVE",
"265 64 CURVE SMOOTH",
"309 64 LINE",
"309 0 LINE",
"265 0 LINE SMOOTH",
"159 0 OFFCURVE",
"117 42 OFFCURVE",
"117 146 CURVE SMOOTH"
);
}
);
};
layerId = "0B1DFD06-3317-40CA-B510-4969A0718C16";
paths = (
{
closed = 1;
nodes = (
"309 0 LINE",
"309 64 LINE",
"265 64 LINE SMOOTH",
"211 64 OFFCURVE",
"189 87 OFFCURVE",
"189 146 CURVE SMOOTH",
"189 437 LINE",
"309 437 LINE",
"309 501 LINE",
"189 501 LINE",
"189 700 LINE",
"117 700 LINE",
"117 501 LINE",
"30 501 LINE",
"30 437 LINE",
"117 437 LINE",
"117 146 LINE SMOOTH",
"117 42 OFFCURVE",
"159 0 OFFCURVE",
"265 0 CURVE SMOOTH"
);
}
);
width = 344;
},
{
anchors = (
{
name = bottom;
position = "{172, 0}";
},
{
name = center;
position = "{172, 235}";
},
{
name = top;
position = "{172, 470}";
},
{
name = topright;
position = "{324, 470}";
}
);
background = {
paths = (
{
closed = 1;
nodes = (
"117 439 LINE",
"30 439 LINE",
"30 501 LINE",
"117 501 LINE",
"117 700 LINE",
"189 700 LINE",
"189 501 LINE",
"309 501 LINE",
"309 439 LINE",
"189 439 LINE",
"189 146 LINE SMOOTH",
"189 86 OFFCURVE",
"211 64 OFFCURVE",
"265 64 CURVE SMOOTH",
"309 64 LINE",
"309 0 LINE",
"265 0 LINE SMOOTH",
"159 0 OFFCURVE",
"117 42 OFFCURVE",
"117 146 CURVE SMOOTH"
);
}
);
};
layerId = "CFC55C35-7F83-4FA6-AE88-8407B7D31CBE";
paths = (
{
closed = 1;
nodes = (
"309 0 LINE",
"309 64 LINE",
"265 64 LINE SMOOTH",
"211 64 OFFCURVE",
"189 87 OFFCURVE",
"189 146 CURVE SMOOTH",
"189 437 LINE",
"309 437 LINE",
"309 501 LINE",
"189 501 LINE",
"189 650 LINE",
"117 650 LINE",
"117 501 LINE",
"30 501 LINE",
"30 437 LINE",
"117 437 LINE",
"117 146 LINE SMOOTH",
"117 42 OFFCURVE",
"159 0 OFFCURVE",
"265 0 CURVE SMOOTH"
);
}
);
width = 344;
},
{
anchors = (
{
name = bottom;
position = "{172, 0}";
},
{
name = center;
position = "{172, 235}";
},
{
name = top;
position = "{172, 470}";
},
{
name = topright;
position = "{324, 470}";
}
);
background = {
paths = (
{
closed = 1;
nodes = (
"117 439 LINE",
"30 439 LINE",
"30 501 LINE",
"117 501 LINE",
"117 700 LINE",
"189 700 LINE",
"189 501 LINE",
"309 501 LINE",
"309 439 LINE",
"189 439 LINE",
"189 146 LINE SMOOTH",
"189 86 OFFCURVE",
"211 64 OFFCURVE",
"265 64 CURVE SMOOTH",
"309 64 LINE",
"309 0 LINE",
"265 0 LINE SMOOTH",
"159 0 OFFCURVE",
"117 42 OFFCURVE",
"117 146 CURVE SMOOTH"
);
}
);
};
layerId = "EA06CE92-4115-4482-8874-2441C279E756";
paths = (
{
closed = 1;
nodes = (
"341 0 LINE",
"341 118 LINE",
"265 118 LINE SMOOTH",
"234 118 OFFCURVE",
"221 134 OFFCURVE",
"221 174 CURVE SMOOTH",
"221 383 LINE",
"341 383 LINE",
"341 501 LINE",
"221 501 LINE",
"221 651 LINE",
"85 651 LINE",
"85 501 LINE",
"-2 501 LINE",
"-2 383 LINE",
"85 383 LINE",
"85 174 LINE SMOOTH",
"85 50 OFFCURVE",
"136 0 OFFCURVE",
"265 0 CURVE SMOOTH"
);
}
);
width = 344;
}
);
note = t;
unicode = 0074;
},
{
color = 0;
glyphname = u;
lastChange = "2018-02-05 09:20:32 +0000";
layers = (
{
anchors = (
{
name = bottom;
position = "{279, 0}";
},
{
name = ogonek;
position = "{501, 10}";
},
{
name = top;
position = "{279, 470}";
},
{
name = topright;
position = "{537, 470}";
}
);
background = {
paths = (
{
closed = 1;
nodes = (
"142 501 LINE",
"70 501 LINE",
"70 165 LINE SMOOTH",
"70 62 OFFCURVE",
"132 -6 OFFCURVE",
"226 -6 CURVE SMOOTH",
"287 -6 LINE SMOOTH",
"337 -6 OFFCURVE",
"390 24 OFFCURVE",
"422 68 CURVE",
"422 0 LINE",
"492 0 LINE",
"492 501 LINE",
"420 501 LINE",
"420 177 LINE",
"403 113 OFFCURVE",
"350 58 OFFCURVE",
"287 58 CURVE SMOOTH",
"226 58 LINE SMOOTH",
"176 58 OFFCURVE",
"142 100 OFFCURVE",
"142 162 CURVE SMOOTH"
);
}
);
};
layerId = "0B1DFD06-3317-40CA-B510-4969A0718C16";
paths = (
{
closed = 1;
nodes = (
"142 501 LINE",
"70 501 LINE",
"70 161 LINE SMOOTH",
"70 58 OFFCURVE",
"132 -10 OFFCURVE",
"226 -10 CURVE SMOOTH",
"287 -10 LINE SMOOTH",
"337 -10 OFFCURVE",
"390 26 OFFCURVE",
"422 70 CURVE",
"422 0 LINE",
"492 0 LINE",
"492 501 LINE",
"420 501 LINE",
"420 179 LINE",
"403 117 OFFCURVE",
"350 54 OFFCURVE",
"287 54 CURVE SMOOTH",
"226 54 LINE SMOOTH",
"176 54 OFFCURVE",
"142 96 OFFCURVE",
"142 158 CURVE SMOOTH"
);
}
);
width = 557;
},
{
anchors = (
{
name = bottom;
position = "{279, 0}";
},
{
name = ogonek;
position = "{501, 10}";
},
{
name = top;
position = "{279, 470}";
},
{
name = topright;
position = "{537, 470}";
}
);
background = {
paths = (
{
closed = 1;
nodes = (
"142 501 LINE",
"70 501 LINE",
"70 165 LINE SMOOTH",
"70 62 OFFCURVE",
"132 -6 OFFCURVE",
"226 -6 CURVE SMOOTH",
"287 -6 LINE SMOOTH",
"337 -6 OFFCURVE",
"390 24 OFFCURVE",
"422 68 CURVE",
"422 0 LINE",
"492 0 LINE",
"492 501 LINE",
"420 501 LINE",
"420 177 LINE",
"403 113 OFFCURVE",
"350 58 OFFCURVE",
"287 58 CURVE SMOOTH",
"226 58 LINE SMOOTH",
"176 58 OFFCURVE",
"142 100 OFFCURVE",
"142 162 CURVE SMOOTH"
);
}
);
};
layerId = "CFC55C35-7F83-4FA6-AE88-8407B7D31CBE";
paths = (
{
closed = 1;
nodes = (
"142 501 LINE",
"70 501 LINE",
"70 161 LINE SMOOTH",
"70 58 OFFCURVE",
"132 -10 OFFCURVE",
"226 -10 CURVE SMOOTH",
"287 -10 LINE SMOOTH",
"337 -10 OFFCURVE",
"390 26 OFFCURVE",
"422 70 CURVE",
"422 0 LINE",
"492 0 LINE",
"492 501 LINE",
"420 501 LINE",
"420 179 LINE",
"403 117 OFFCURVE",
"350 54 OFFCURVE",
"287 54 CURVE SMOOTH",
"226 54 LINE SMOOTH",
"176 54 OFFCURVE",
"142 96 OFFCURVE",
"142 158 CURVE SMOOTH"
);
}
);
width = 557;
},
{
anchors = (
{
name = bottom;
position = "{279, 0}";
},
{
name = ogonek;
position = "{501, 10}";
},
{
name = top;
position = "{279, 470}";
},
{
name = topright;
position = "{537, 470}";
}
);
background = {
paths = (
{
closed = 1;
nodes = (
"174 501 LINE",
"38 501 LINE",
"38 189 LINE SMOOTH",
"38 70 OFFCURVE",
"113 -10 OFFCURVE",
"226 -10 CURVE SMOOTH",
"287 -10 LINE SMOOTH",
"322 -10 OFFCURVE",
"365 17 OFFCURVE",
"396 57 CURVE",
"396 0 LINE",
"524 0 LINE",
"524 501 LINE",
"388 501 LINE",
"388 210 LINE",
"374 149 OFFCURVE",
"333 108 OFFCURVE",
"287 108 CURVE SMOOTH",
"226 108 LINE SMOOTH",
"195 108 OFFCURVE",
"174 139 OFFCURVE",
"174 186 CURVE SMOOTH"
);
}
);
};
layerId = "EA06CE92-4115-4482-8874-2441C279E756";
paths = (
{
closed = 1;
nodes = (
"174 501 LINE",
"38 501 LINE",
"38 181 LINE SMOOTH",
"38 66 OFFCURVE",
"108 -10 OFFCURVE",
"213 -10 CURVE SMOOTH",
"275 -10 LINE SMOOTH",
"315 -10 OFFCURVE",
"363 17 OFFCURVE",
"396 58 CURVE",
"396 0 LINE",
"524 0 LINE",
"524 501 LINE",
"388 501 LINE",
"388 204 LINE",
"375 148 OFFCURVE",
"331 110 OFFCURVE",
"277 110 CURVE SMOOTH",
"228 110 LINE SMOOTH",
"196 110 OFFCURVE",
"174 138 OFFCURVE",
"174 181 CURVE SMOOTH"
);
}
);
width = 557;
}
);
note = u;
unicode = 0075;
},
{
color = 0;
glyphname = v;
lastChange = "2018-02-05 09:20:32 +0000";
layers = (
{
anchors = (
{
name = bottom;
position = "{257, 0}";
},
{
name = top;
position = "{257, 470}";
}
);
background = {
paths = (
{
closed = 1;
nodes = (
"484 501 LINE",
"411 501 LINE",
"256 70 LINE",
"103 501 LINE",
"30 501 LINE",
"196 56 LINE SMOOTH",
"215 5 OFFCURVE",
"237 -10 OFFCURVE",
"289 -10 CURVE"
);
}
);
};
layerId = "0B1DFD06-3317-40CA-B510-4969A0718C16";
paths = (
{
closed = 1;
nodes = (
"484 501 LINE",
"408 501 LINE",
"256 79 LINE",
"106 501 LINE",
"30 501 LINE",
"195 59 LINE SMOOTH",
"214 8 OFFCURVE",
"231 -10 OFFCURVE",
"265 -10 CURVE SMOOTH",
"289 -10 LINE"
);
}
);
width = 514;
},
{
anchors = (
{
name = bottom;
position = "{257, 0}";
},
{
name = top;
position = "{257, 470}";
}
);
background = {
paths = (
{
closed = 1;
nodes = (
"484 501 LINE",
"411 501 LINE",
"256 70 LINE",
"103 501 LINE",
"30 501 LINE",
"196 56 LINE SMOOTH",
"215 5 OFFCURVE",
"237 -10 OFFCURVE",
"289 -10 CURVE"
);
}
);
};
layerId = "CFC55C35-7F83-4FA6-AE88-8407B7D31CBE";
paths = (
{
closed = 1;
nodes = (
"484 501 LINE",
"408 501 LINE",
"256 79 LINE",
"106 501 LINE",
"30 501 LINE",
"195 59 LINE SMOOTH",
"214 8 OFFCURVE",
"231 -10 OFFCURVE",
"265 -10 CURVE SMOOTH",
"289 -10 LINE"
);
}
);
width = 514;
},
{
anchors = (
{
name = bottom;
position = "{257, 0}";
},
{
name = top;
position = "{257, 470}";
}
);
background = {
paths = (
{
closed = 1;
nodes = (
"518 501 LINE",
"375 501 LINE",
"256 174 LINE",
"140 501 LINE",
"-4 501 LINE",
"163 77 LINE SMOOTH",
"183 25 OFFCURVE",
"226 -10 OFFCURVE",
"266 -10 CURVE SMOOTH",
"314 -10 LINE"
);
}
);
};
layerId = "EA06CE92-4115-4482-8874-2441C279E756";
paths = (
{
closed = 1;
nodes = (
"518 501 LINE",
"375 501 LINE",
"256 172 LINE",
"140 501 LINE",
"-4 501 LINE",
"164 75 LINE SMOOTH",
"188 17 OFFCURVE",
"219 -10 OFFCURVE",
"262 -10 CURVE SMOOTH",
"314 -10 LINE"
);
}
);
width = 514;
}
);
note = v;
unicode = 0076;
},
{
color = 0;
glyphname = w;
lastChange = "2018-02-05 09:20:32 +0000";
layers = (
{
anchors = (
{
name = bottom;
position = "{360, 0}";
},
{
name = top;
position = "{360, 470}";
}
);
background = {
paths = (
{
closed = 1;
nodes = (
"521 72 LINE",
"385 501 LINE",
"335 501 LINE",
"199 72 LINE",
"102 501 LINE",
"30 501 LINE",
"139 56 LINE SMOOTH",
"152 5 OFFCURVE",
"180 -10 OFFCURVE",
"232 -10 CURVE",
"360 389 LINE",
"488 -10 LINE",
"540 -10 OFFCURVE",
"569 5 OFFCURVE",
"581 56 CURVE SMOOTH",
"689 501 LINE",
"617 501 LINE"
);
}
);
};
layerId = "0B1DFD06-3317-40CA-B510-4969A0718C16";
paths = (
{
closed = 1;
nodes = (
"230 -10 LINE",
"362 377 LINE",
"490 -10 LINE",
"512 -10 LINE SMOOTH",
"551 -10 OFFCURVE",
"569 7 OFFCURVE",
"581 58 CURVE SMOOTH",
"689 501 LINE",
"613 501 LINE",
"521 82 LINE",
"399 455 LINE SMOOTH",
"391 479 OFFCURVE",
"377 487 OFFCURVE",
"357 487 CURVE SMOOTH",
"334 487 LINE",
"199 82 LINE",
"106 501 LINE",
"30 501 LINE",
"139 58 LINE SMOOTH",
"151 7 OFFCURVE",
"169 -10 OFFCURVE",
"206 -10 CURVE SMOOTH"
);
}
);
width = 719;
},
{
anchors = (
{
name = bottom;
position = "{360, 0}";
},
{
name = top;
position = "{360, 470}";
}
);
background = {
paths = (
{
closed = 1;
nodes = (
"521 72 LINE",
"385 501 LINE",
"335 501 LINE",
"199 72 LINE",
"102 501 LINE",
"30 501 LINE",
"139 56 LINE SMOOTH",
"152 5 OFFCURVE",
"180 -10 OFFCURVE",
"232 -10 CURVE",
"360 389 LINE",
"488 -10 LINE",
"540 -10 OFFCURVE",
"569 5 OFFCURVE",
"581 56 CURVE SMOOTH",
"689 501 LINE",
"617 501 LINE"
);
}
);
};
layerId = "CFC55C35-7F83-4FA6-AE88-8407B7D31CBE";
paths = (
{
closed = 1;
nodes = (
"230 -10 LINE",
"362 377 LINE",
"490 -10 LINE",
"512 -10 LINE SMOOTH",
"551 -10 OFFCURVE",
"569 7 OFFCURVE",
"581 58 CURVE SMOOTH",
"689 501 LINE",
"613 501 LINE",
"521 82 LINE",
"399 455 LINE SMOOTH",
"391 479 OFFCURVE",
"377 487 OFFCURVE",
"357 487 CURVE SMOOTH",
"334 487 LINE",
"199 82 LINE",
"106 501 LINE",
"30 501 LINE",
"139 58 LINE SMOOTH",
"151 7 OFFCURVE",
"169 -10 OFFCURVE",
"206 -10 CURVE SMOOTH"
);
}
);
width = 719;
},
{
anchors = (
{
name = bottom;
position = "{360, 0}";
},
{
name = top;
position = "{360, 470}";
}
);
background = {
paths = (
{
closed = 1;
nodes = (
"254 -38 LINE",
"362 278 LINE",
"466 -38 LINE",
"512 -38 LINE SMOOTH",
"568 -38 OFFCURVE",
"597 -11 OFFCURVE",
"612 52 CURVE SMOOTH",
"729 529 LINE",
"587 529 LINE",
"515 202 LINE",
"429 464 LINE SMOOTH",
"418 497 OFFCURVE",
"393 515 OFFCURVE",
"357 515 CURVE SMOOTH",
"310 515 LINE",
"205 201 LINE",
"132 529 LINE",
"-10 529 LINE",
"108 51 LINE SMOOTH",
"122 -11 OFFCURVE",
"152 -38 OFFCURVE",
"206 -38 CURVE SMOOTH"
);
}
);
};
layerId = "EA06CE92-4115-4482-8874-2441C279E756";
paths = (
{
closed = 1;
nodes = (
"252 -10 LINE",
"362 316 LINE",
"468 -10 LINE",
"512 -10 LINE SMOOTH",
"568 -10 OFFCURVE",
"595 16 OFFCURVE",
"612 80 CURVE SMOOTH",
"722 501 LINE",
"582 501 LINE",
"511 184 LINE",
"429 436 LINE SMOOTH",
"418 469 OFFCURVE",
"393 487 OFFCURVE",
"357 487 CURVE SMOOTH",
"310 487 LINE",
"209 183 LINE",
"137 501 LINE",
"-3 501 LINE",
"109 79 LINE SMOOTH",
"125 17 OFFCURVE",
"153 -10 OFFCURVE",
"207 -10 CURVE SMOOTH"
);
}
);
width = 719;
}
);
note = w;
unicode = 0077;
},
{
color = 0;
glyphname = x;
lastChange = "2018-02-05 09:20:32 +0000";
layers = (
{
anchors = (
{
name = bottom;
position = "{267, 0}";
},
{
name = top;
position = "{267, 470}";
}
);
background = {
paths = (
{
closed = 1;
nodes = (
"250 314 LINE",
"106 500 LINE",
"23 500 LINE",
"206 264 LINE",
"-3 0 LINE",
"81 0 LINE",
"250 214 LINE",
"421 0 LINE",
"505 0 LINE",
"294 264 LINE",
"478 500 LINE",
"396 500 LINE"
);
}
);
};
layerId = "0B1DFD06-3317-40CA-B510-4969A0718C16";
paths = (
{
closed = 1;
nodes = (
"412 0 LINE",
"494 0 LINE",
"124 501 LINE",
"42 501 LINE"
);
},
{
closed = 1;
nodes = (
"410 501 LINE",
"40 0 LINE",
"122 0 LINE",
"492 501 LINE"
);
}
);
width = 534;
},
{
anchors = (
{
name = bottom;
position = "{267, 0}";
},
{
name = top;
position = "{267, 470}";
}
);
background = {
paths = (
{
closed = 1;
nodes = (
"250 314 LINE",
"106 500 LINE",
"23 500 LINE",
"206 264 LINE",
"-3 0 LINE",
"81 0 LINE",
"250 214 LINE",
"421 0 LINE",
"505 0 LINE",
"294 264 LINE",
"478 500 LINE",
"396 500 LINE"
);
}
);
};
layerId = "CFC55C35-7F83-4FA6-AE88-8407B7D31CBE";
paths = (
{
closed = 1;
nodes = (
"412 0 LINE",
"494 0 LINE",
"124 501 LINE",
"42 501 LINE"
);
},
{
closed = 1;
nodes = (
"410 501 LINE",
"40 0 LINE",
"122 0 LINE",
"492 501 LINE"
);
}
);
width = 534;
},
{
anchors = (
{
name = bottom;
position = "{267, 0}";
},
{
name = top;
position = "{267, 470}";
}
);
background = {
paths = (
{
closed = 1;
nodes = (
"395 -28 LINE",
"553 -28 LINE",
"141 529 LINE",
"-17 529 LINE"
);
},
{
closed = 1;
nodes = (
"393 529 LINE",
"-19 -28 LINE",
"139 -28 LINE",
"551 529 LINE"
);
}
);
};
layerId = "EA06CE92-4115-4482-8874-2441C279E756";
paths = (
{
closed = 1;
nodes = (
"377 0 LINE",
"533 0 LINE",
"160 501 LINE",
"4 501 LINE"
);
},
{
closed = 1;
nodes = (
"374 501 LINE",
"1 0 LINE",
"157 0 LINE",
"530 501 LINE"
);
}
);
width = 534;
}
);
note = x;
unicode = 0078;
},
{
color = 0;
glyphname = y;
lastChange = "2018-02-05 09:20:32 +0000";
layers = (
{
anchors = (
{
name = bottom;
position = "{276, 0}";
},
{
name = top;
position = "{276, 470}";
}
);
background = {
paths = (
{
closed = 0;
nodes = (
"492 35 LINE",
"492 501 LINE",
"420 501 LINE",
"420 212 LINE",
"403 148 OFFCURVE",
"350 93 OFFCURVE",
"287 93 CURVE SMOOTH",
"226 93 LINE SMOOTH",
"176 93 OFFCURVE",
"142 135 OFFCURVE",
"142 197 CURVE SMOOTH",
"142 501 LINE",
"70 501 LINE",
"70 200 LINE SMOOTH",
"70 97 OFFCURVE",
"132 29 OFFCURVE",
"226 29 CURVE SMOOTH",
"287 29 LINE SMOOTH",
"337 29 OFFCURVE",
"390 59 OFFCURVE",
"422 103 CURVE",
"422 35 LINE"
);
},
{
closed = 0;
nodes = (
"420 -8 LINE"
);
}
);
};
layerId = "0B1DFD06-3317-40CA-B510-4969A0718C16";
paths = (
{
closed = 1;
nodes = (
"420 -87 OFFCURVE",
"371 -139 OFFCURVE",
"298 -139 CURVE SMOOTH",
"239 -139 LINE SMOOTH",
"196 -139 OFFCURVE",
"163 -110 OFFCURVE",
"156 -66 CURVE",
"84 -66 LINE",
"92 -147 OFFCURVE",
"154 -201 OFFCURVE",
"239 -201 CURVE SMOOTH",
"298 -201 LINE SMOOTH",
"414 -201 OFFCURVE",
"492 -124 OFFCURVE",
"492 -8 CURVE SMOOTH",
"492 501 LINE",
"420 501 LINE",
"420 212 LINE",
"403 148 OFFCURVE",
"350 93 OFFCURVE",
"287 93 CURVE SMOOTH",
"226 93 LINE SMOOTH",
"176 93 OFFCURVE",
"142 135 OFFCURVE",
"142 197 CURVE SMOOTH",
"142 501 LINE",
"70 501 LINE",
"70 200 LINE SMOOTH",
"70 97 OFFCURVE",
"132 29 OFFCURVE",
"226 29 CURVE SMOOTH",
"287 29 LINE SMOOTH",
"337 29 OFFCURVE",
"388 57 OFFCURVE",
"420 101 CURVE",
"420 -8 LINE SMOOTH"
);
}
);
width = 552;
},
{
anchors = (
{
name = bottom;
position = "{276, 0}";
},
{
name = top;
position = "{276, 470}";
}
);
background = {
paths = (
{
closed = 0;
nodes = (
"492 35 LINE",
"492 501 LINE",
"420 501 LINE",
"420 212 LINE",
"403 148 OFFCURVE",
"350 93 OFFCURVE",
"287 93 CURVE SMOOTH",
"226 93 LINE SMOOTH",
"176 93 OFFCURVE",
"142 135 OFFCURVE",
"142 197 CURVE SMOOTH",
"142 501 LINE",
"70 501 LINE",
"70 200 LINE SMOOTH",
"70 97 OFFCURVE",
"132 29 OFFCURVE",
"226 29 CURVE SMOOTH",
"287 29 LINE SMOOTH",
"337 29 OFFCURVE",
"390 59 OFFCURVE",
"422 103 CURVE",
"422 35 LINE"
);
},
{
closed = 0;
nodes = (
"420 -8 LINE"
);
}
);
};
layerId = "CFC55C35-7F83-4FA6-AE88-8407B7D31CBE";
paths = (
{
closed = 1;
nodes = (
"420 -87 OFFCURVE",
"371 -139 OFFCURVE",
"298 -139 CURVE SMOOTH",
"239 -139 LINE SMOOTH",
"196 -139 OFFCURVE",
"163 -110 OFFCURVE",
"156 -66 CURVE",
"84 -66 LINE",
"92 -147 OFFCURVE",
"154 -201 OFFCURVE",
"239 -201 CURVE SMOOTH",
"298 -201 LINE SMOOTH",
"414 -201 OFFCURVE",
"492 -124 OFFCURVE",
"492 -8 CURVE SMOOTH",
"492 501 LINE",
"420 501 LINE",
"420 212 LINE",
"403 148 OFFCURVE",
"350 93 OFFCURVE",
"287 93 CURVE SMOOTH",
"226 93 LINE SMOOTH",
"176 93 OFFCURVE",
"142 135 OFFCURVE",
"142 197 CURVE SMOOTH",
"142 501 LINE",
"70 501 LINE",
"70 200 LINE SMOOTH",
"70 97 OFFCURVE",
"132 29 OFFCURVE",
"226 29 CURVE SMOOTH",
"287 29 LINE SMOOTH",
"337 29 OFFCURVE",
"388 57 OFFCURVE",
"420 101 CURVE",
"420 -8 LINE SMOOTH"
);
}
);
width = 552;
},
{
anchors = (
{
name = bottom;
position = "{276, 0}";
},
{
name = top;
position = "{276, 470}";
}
);
background = {
paths = (
{
closed = 1;
nodes = (
"388 -71 OFFCURVE",
"353 -111 OFFCURVE",
"298 -111 CURVE SMOOTH",
"239 -111 LINE SMOOTH",
"206 -111 OFFCURVE",
"184 -83 OFFCURVE",
"187 -38 CURVE",
"51 -38 LINE",
"46 -149 OFFCURVE",
"127 -229 OFFCURVE",
"239 -229 CURVE SMOOTH",
"298 -229 LINE SMOOTH",
"432 -229 OFFCURVE",
"524 -139 OFFCURVE",
"524 -8 CURVE SMOOTH",
"524 501 LINE",
"388 501 LINE",
"388 215 LINE",
"372 160 OFFCURVE",
"329 121 OFFCURVE",
"287 121 CURVE SMOOTH",
"226 121 LINE SMOOTH",
"195 121 OFFCURVE",
"174 150 OFFCURVE",
"174 197 CURVE SMOOTH",
"174 501 LINE",
"38 501 LINE",
"38 200 LINE SMOOTH",
"38 81 OFFCURVE",
"114 1 OFFCURVE",
"226 1 CURVE SMOOTH",
"287 1 LINE SMOOTH",
"322 1 OFFCURVE",
"357 12 OFFCURVE",
"388 31 CURVE",
"388 -8 LINE SMOOTH"
);
}
);
};
layerId = "EA06CE92-4115-4482-8874-2441C279E756";
paths = (
{
closed = 1;
nodes = (
"524 501 LINE",
"388 501 LINE",
"388 234 LINE",
"375 178 OFFCURVE",
"331 140 OFFCURVE",
"277 140 CURVE SMOOTH",
"228 140 LINE SMOOTH",
"196 140 OFFCURVE",
"174 168 OFFCURVE",
"174 211 CURVE SMOOTH",
"174 501 LINE",
"38 501 LINE",
"38 211 LINE SMOOTH",
"38 96 OFFCURVE",
"108 20 OFFCURVE",
"213 20 CURVE SMOOTH",
"273 20 LINE SMOOTH",
"315 20 OFFCURVE",
"361 42 OFFCURVE",
"388 75 CURVE",
"388 2 LINE SMOOTH",
"388 -54 OFFCURVE",
"352 -91 OFFCURVE",
"298 -91 CURVE SMOOTH",
"240 -91 LINE SMOOTH",
"209 -91 OFFCURVE",
"189 -70 OFFCURVE",
"186 -38 CURVE",
"52 -38 LINE",
"60 -141 OFFCURVE",
"127 -209 OFFCURVE",
"240 -209 CURVE SMOOTH",
"298 -209 LINE SMOOTH",
"434 -209 OFFCURVE",
"524 -125 OFFCURVE",
"524 2 CURVE SMOOTH"
);
}
);
width = 552;
}
);
note = y;
unicode = 0079;
},
{
color = 0;
glyphname = z;
lastChange = "2018-02-05 09:20:32 +0000";
layers = (
{
anchors = (
{
name = bottom;
position = "{239, 0}";
},
{
name = top;
position = "{239, 470}";
}
);
background = {
paths = (
{
closed = 1;
nodes = (
"432 60 LINE",
"137 60 LINE",
"437 471 LINE",
"437 501 LINE",
"49 501 LINE",
"49 441 LINE",
"335 441 LINE",
"35 30 LINE",
"35 0 LINE",
"432 0 LINE"
);
}
);
};
layerId = "0B1DFD06-3317-40CA-B510-4969A0718C16";
paths = (
{
closed = 1;
nodes = (
"430 61 LINE",
"141 61 LINE",
"435 469 LINE",
"435 501 LINE",
"49 501 LINE",
"49 440 LINE",
"331 440 LINE",
"37 32 LINE",
"37 0 LINE",
"430 0 LINE"
);
}
);
width = 477;
},
{
anchors = (
{
name = bottom;
position = "{239, 0}";
},
{
name = top;
position = "{239, 470}";
}
);
background = {
paths = (
{
closed = 1;
nodes = (
"432 60 LINE",
"137 60 LINE",
"437 471 LINE",
"437 501 LINE",
"49 501 LINE",
"49 441 LINE",
"335 441 LINE",
"35 30 LINE",
"35 0 LINE",
"432 0 LINE"
);
}
);
};
layerId = "CFC55C35-7F83-4FA6-AE88-8407B7D31CBE";
paths = (
{
closed = 1;
nodes = (
"430 61 LINE",
"141 61 LINE",
"435 469 LINE",
"435 501 LINE",
"49 501 LINE",
"49 440 LINE",
"331 440 LINE",
"37 32 LINE",
"37 0 LINE",
"430 0 LINE"
);
}
);
width = 477;
},
{
anchors = (
{
name = bottom;
position = "{239, 0}";
},
{
name = top;
position = "{239, 470}";
}
);
background = {
paths = (
{
closed = 1;
nodes = (
"462 89 LINE",
"199 89 LINE",
"467 461 LINE",
"467 529 LINE",
"17 529 LINE",
"17 412 LINE",
"273 412 LINE",
"5 40 LINE",
"5 -28 LINE",
"462 -28 LINE"
);
}
);
};
layerId = "EA06CE92-4115-4482-8874-2441C279E756";
paths = (
{
closed = 1;
nodes = (
"462 112 LINE",
"201 112 LINE",
"467 433 LINE",
"467 501 LINE",
"17 501 LINE",
"17 389 LINE",
"271 389 LINE",
"5 68 LINE",
"5 0 LINE",
"462 0 LINE"
);
}
);
width = 477;
}
);
note = z;
unicode = 007A;
},
{
color = 0;
glyphname = AE;
lastChange = "2018-02-05 09:50:03 +0000";
layers = (
{
background = {
paths = (
{
closed = 1;
nodes = (
"25 0 LINE",
"99 0 LINE",
"184 196 LINE",
"452 196 LINE",
"497 0 LINE",
"905 0 LINE",
"905 59 LINE",
"550 59 LINE",
"488 336 LINE",
"833 336 LINE",
"833 395 LINE",
"474 395 LINE",
"418 641 LINE",
"771 641 LINE",
"771 700 LINE",
"365 700 LINE SMOOTH",
"358 700 OFFCURVE",
"348 701 OFFCURVE",
"336 701 CURVE"
);
},
{
closed = 1;
nodes = (
"357 619 LINE",
"439 255 LINE",
"209 255 LINE"
);
}
);
};
layerId = "0B1DFD06-3317-40CA-B510-4969A0718C16";
paths = (
{
closed = 1;
nodes = (
"875 700 LINE",
"388 700 LINE",
"5 0 LINE",
"81 0 LINE",
"187 194 LINE",
"415 194 LINE",
"415 66 LINE SMOOTH",
"415 25 OFFCURVE",
"439 0 OFFCURVE",
"480 0 CURVE SMOOTH",
"875 0 LINE",
"875 64 LINE",
"489 64 LINE",
"489 326 LINE",
"835 326 LINE",
"835 390 LINE",
"489 390 LINE",
"489 636 LINE",
"875 636 LINE"
);
},
{
closed = 1;
nodes = (
"414 608 LINE",
"415 608 LINE",
"415 256 LINE",
"221 256 LINE"
);
}
);
width = 934;
},
{
background = {
paths = (
{
closed = 1;
nodes = (
"25 0 LINE",
"99 0 LINE",
"184 196 LINE",
"452 196 LINE",
"497 0 LINE",
"905 0 LINE",
"905 59 LINE",
"550 59 LINE",
"488 336 LINE",
"833 336 LINE",
"833 395 LINE",
"474 395 LINE",
"418 641 LINE",
"771 641 LINE",
"771 700 LINE",
"365 700 LINE SMOOTH",
"358 700 OFFCURVE",
"348 701 OFFCURVE",
"336 701 CURVE"
);
},
{
closed = 1;
nodes = (
"357 619 LINE",
"439 255 LINE",
"209 255 LINE"
);
}
);
};
layerId = "CFC55C35-7F83-4FA6-AE88-8407B7D31CBE";
paths = (
{
closed = 1;
nodes = (
"875 700 LINE",
"388 700 LINE",
"5 0 LINE",
"81 0 LINE",
"187 194 LINE",
"415 194 LINE",
"415 66 LINE SMOOTH",
"415 25 OFFCURVE",
"439 0 OFFCURVE",
"480 0 CURVE SMOOTH",
"875 0 LINE",
"875 64 LINE",
"489 64 LINE",
"489 326 LINE",
"835 326 LINE",
"835 390 LINE",
"489 390 LINE",
"489 636 LINE",
"875 636 LINE"
);
},
{
closed = 1;
nodes = (
"414 608 LINE",
"415 608 LINE",
"415 256 LINE",
"221 256 LINE"
);
}
);
width = 934;
},
{
background = {
paths = (
{
closed = 1;
nodes = (
"907 728 LINE",
"368 728 LINE",
"-46 -28 LINE",
"101 -28 LINE",
"207 166 LINE",
"383 166 LINE",
"383 66 LINE SMOOTH",
"383 9 OFFCURVE",
"422 -28 OFFCURVE",
"480 -28 CURVE SMOOTH",
"907 -28 LINE",
"907 92 LINE",
"521 92 LINE",
"521 298 LINE",
"867 298 LINE",
"867 418 LINE",
"521 418 LINE",
"521 608 LINE",
"907 608 LINE"
);
},
{
closed = 1;
nodes = (
"434 580 LINE",
"383 580 LINE",
"383 284 LINE",
"272 284 LINE"
);
}
);
};
layerId = "EA06CE92-4115-4482-8874-2441C279E756";
paths = (
{
closed = 1;
nodes = (
"907 700 LINE",
"368 700 LINE",
"-30 0 LINE",
"111 0 LINE",
"204 166 LINE",
"387 166 LINE",
"387 94 LINE SMOOTH",
"387 37 OFFCURVE",
"426 0 OFFCURVE",
"484 0 CURVE SMOOTH",
"907 0 LINE",
"907 120 LINE",
"521 120 LINE",
"521 298 LINE",
"867 298 LINE",
"867 418 LINE",
"521 418 LINE",
"521 580 LINE",
"907 580 LINE"
);
},
{
closed = 1;
nodes = (
"422 593 LINE",
"401 600 LINE",
"401 284 LINE",
"262 284 LINE"
);
}
);
width = 934;
}
);
note = AE;
unicode = 00C6;
},
{
color = 0;
glyphname = Eth;
lastChange = "2018-02-05 10:12:36 +0000";
layers = (
{
background = {
paths = (
{
closed = 1;
nodes = (
"197 641 LINE",
"491 641 LINE SMOOTH",
"582 641 OFFCURVE",
"654 561 OFFCURVE",
"654 470 CURVE SMOOTH",
"654 280 LINE SMOOTH",
"654 159 OFFCURVE",
"557 59 OFFCURVE",
"442 59 CURVE SMOOTH",
"197 59 LINE",
"197 327 LINE",
"445 327 LINE",
"445 389 LINE",
"197 389 LINE"
);
},
{
closed = 1;
nodes = (
"131 65 LINE SMOOTH",
"131 31 OFFCURVE",
"159 0 OFFCURVE",
"193 0 CURVE SMOOTH",
"442 0 LINE SMOOTH",
"594 0 OFFCURVE",
"721 122 OFFCURVE",
"721 280 CURVE SMOOTH",
"721 470 LINE SMOOTH",
"721 598 OFFCURVE",
"619 700 OFFCURVE",
"491 700 CURVE SMOOTH",
"131 700 LINE",
"131 389 LINE",
"65 389 LINE",
"65 327 LINE",
"131 327 LINE"
);
}
);
};
layerId = "0B1DFD06-3317-40CA-B510-4969A0718C16";
paths = (
{
closed = 1;
nodes = (
"376 0 LINE SMOOTH",
"532 0 OFFCURVE",
"624 100 OFFCURVE",
"624 270 CURVE SMOOTH",
"624 470 LINE SMOOTH",
"624 608 OFFCURVE",
"524 700 OFFCURVE",
"374 700 CURVE SMOOTH",
"75 700 LINE",
"75 65 LINE SMOOTH",
"75 24 OFFCURVE",
"99 0 OFFCURVE",
"140 0 CURVE SMOOTH"
);
},
{
closed = 1;
nodes = (
"149 634 LINE",
"374 634 LINE SMOOTH",
"480 634 OFFCURVE",
"550 568 OFFCURVE",
"550 470 CURVE SMOOTH",
"550 270 LINE SMOOTH",
"550 142 OFFCURVE",
"485 66 OFFCURVE",
"376 66 CURVE SMOOTH",
"149 66 LINE"
);
},
{
closed = 1;
nodes = (
"-5 321 LINE",
"365 321 LINE",
"365 387 LINE",
"-5 387 LINE"
);
}
);
width = 785;
},
{
background = {
paths = (
{
closed = 1;
nodes = (
"197 641 LINE",
"491 641 LINE SMOOTH",
"582 641 OFFCURVE",
"654 561 OFFCURVE",
"654 470 CURVE SMOOTH",
"654 280 LINE SMOOTH",
"654 159 OFFCURVE",
"557 59 OFFCURVE",
"442 59 CURVE SMOOTH",
"197 59 LINE",
"197 327 LINE",
"445 327 LINE",
"445 389 LINE",
"197 389 LINE"
);
},
{
closed = 1;
nodes = (
"131 65 LINE SMOOTH",
"131 31 OFFCURVE",
"159 0 OFFCURVE",
"193 0 CURVE SMOOTH",
"442 0 LINE SMOOTH",
"594 0 OFFCURVE",
"721 122 OFFCURVE",
"721 280 CURVE SMOOTH",
"721 470 LINE SMOOTH",
"721 598 OFFCURVE",
"619 700 OFFCURVE",
"491 700 CURVE SMOOTH",
"131 700 LINE",
"131 389 LINE",
"65 389 LINE",
"65 327 LINE",
"131 327 LINE"
);
}
);
};
layerId = "CFC55C35-7F83-4FA6-AE88-8407B7D31CBE";
paths = (
{
closed = 1;
nodes = (
"376 0 LINE SMOOTH",
"532 0 OFFCURVE",
"624 100 OFFCURVE",
"624 270 CURVE SMOOTH",
"624 470 LINE SMOOTH",
"624 608 OFFCURVE",
"524 700 OFFCURVE",
"374 700 CURVE SMOOTH",
"75 700 LINE",
"75 65 LINE SMOOTH",
"75 24 OFFCURVE",
"99 0 OFFCURVE",
"140 0 CURVE SMOOTH"
);
},
{
closed = 1;
nodes = (
"149 634 LINE",
"374 634 LINE SMOOTH",
"480 634 OFFCURVE",
"550 568 OFFCURVE",
"550 470 CURVE SMOOTH",
"550 270 LINE SMOOTH",
"550 142 OFFCURVE",
"485 66 OFFCURVE",
"376 66 CURVE SMOOTH",
"149 66 LINE"
);
},
{
closed = 1;
nodes = (
"-5 321 LINE",
"365 321 LINE",
"365 387 LINE",
"-5 387 LINE"
);
}
);
width = 785;
},
{
background = {
paths = (
{
closed = 1;
nodes = (
"376 0 LINE SMOOTH",
"532 0 OFFCURVE",
"624 100 OFFCURVE",
"624 270 CURVE SMOOTH",
"624 470 LINE SMOOTH",
"624 608 OFFCURVE",
"524 700 OFFCURVE",
"374 700 CURVE SMOOTH",
"75 700 LINE",
"75 65 LINE SMOOTH",
"75 24 OFFCURVE",
"99 0 OFFCURVE",
"140 0 CURVE SMOOTH"
);
},
{
closed = 1;
nodes = (
"149 634 LINE",
"374 634 LINE SMOOTH",
"480 634 OFFCURVE",
"550 568 OFFCURVE",
"550 470 CURVE SMOOTH",
"550 270 LINE SMOOTH",
"550 142 OFFCURVE",
"485 66 OFFCURVE",
"376 66 CURVE SMOOTH",
"149 66 LINE"
);
},
{
closed = 1;
nodes = (
"-5 321 LINE",
"365 321 LINE",
"365 387 LINE",
"-5 387 LINE"
);
}
);
};
layerId = "EA06CE92-4115-4482-8874-2441C279E756";
paths = (
{
closed = 1;
nodes = (
"-37 294 LINE",
"397 294 LINE",
"397 414 LINE",
"-37 414 LINE"
);
},
{
closed = 1;
nodes = (
"376 0 LINE SMOOTH",
"552 0 OFFCURVE",
"656 111 OFFCURVE",
"656 298 CURVE SMOOTH",
"656 442 LINE SMOOTH",
"656 597 OFFCURVE",
"543 700 OFFCURVE",
"374 700 CURVE SMOOTH",
"43 700 LINE",
"43 93 LINE SMOOTH",
"43 37 OFFCURVE",
"81 0 OFFCURVE",
"140 0 CURVE SMOOTH"
);
},
{
closed = 1;
nodes = (
"181 578 LINE",
"374 578 LINE SMOOTH",
"460 578 OFFCURVE",
"518 524 OFFCURVE",
"518 442 CURVE SMOOTH",
"518 298 LINE SMOOTH",
"518 187 OFFCURVE",
"465 122 OFFCURVE",
"376 122 CURVE SMOOTH",
"181 122 LINE"
);
}
);
width = 785;
}
);
note = Eth;
unicode = 00D0;
},
{
color = 0;
glyphname = Dcroat;
lastChange = "2018-02-05 10:12:36 +0000";
layers = (
{
background = {
paths = (
{
closed = 1;
nodes = (
"197 641 LINE",
"491 641 LINE SMOOTH",
"582 641 OFFCURVE",
"654 561 OFFCURVE",
"654 470 CURVE SMOOTH",
"654 280 LINE SMOOTH",
"654 159 OFFCURVE",
"557 59 OFFCURVE",
"442 59 CURVE SMOOTH",
"197 59 LINE",
"197 327 LINE",
"445 327 LINE",
"445 389 LINE",
"197 389 LINE"
);
},
{
closed = 1;
nodes = (
"131 65 LINE SMOOTH",
"131 31 OFFCURVE",
"159 0 OFFCURVE",
"193 0 CURVE SMOOTH",
"442 0 LINE SMOOTH",
"594 0 OFFCURVE",
"721 122 OFFCURVE",
"721 280 CURVE SMOOTH",
"721 470 LINE SMOOTH",
"721 598 OFFCURVE",
"619 700 OFFCURVE",
"491 700 CURVE SMOOTH",
"131 700 LINE",
"131 389 LINE",
"65 389 LINE",
"65 327 LINE",
"131 327 LINE"
);
}
);
};
layerId = "0B1DFD06-3317-40CA-B510-4969A0718C16";
paths = (
{
closed = 1;
nodes = (
"424 0 LINE SMOOTH",
"580 0 OFFCURVE",
"672 100 OFFCURVE",
"672 270 CURVE SMOOTH",
"672 470 LINE SMOOTH",
"672 608 OFFCURVE",
"572 700 OFFCURVE",
"422 700 CURVE SMOOTH",
"123 700 LINE",
"123 65 LINE SMOOTH",
"123 24 OFFCURVE",
"147 0 OFFCURVE",
"188 0 CURVE SMOOTH"
);
},
{
closed = 1;
nodes = (
"197 634 LINE",
"422 634 LINE SMOOTH",
"528 634 OFFCURVE",
"598 568 OFFCURVE",
"598 470 CURVE SMOOTH",
"598 270 LINE SMOOTH",
"598 142 OFFCURVE",
"533 66 OFFCURVE",
"424 66 CURVE SMOOTH",
"197 66 LINE"
);
},
{
closed = 1;
nodes = (
"33 319 LINE",
"383 319 LINE",
"383 384 LINE",
"33 384 LINE"
);
}
);
width = 785;
},
{
background = {
paths = (
{
closed = 1;
nodes = (
"197 641 LINE",
"491 641 LINE SMOOTH",
"582 641 OFFCURVE",
"654 561 OFFCURVE",
"654 470 CURVE SMOOTH",
"654 280 LINE SMOOTH",
"654 159 OFFCURVE",
"557 59 OFFCURVE",
"442 59 CURVE SMOOTH",
"197 59 LINE",
"197 327 LINE",
"445 327 LINE",
"445 389 LINE",
"197 389 LINE"
);
},
{
closed = 1;
nodes = (
"131 65 LINE SMOOTH",
"131 31 OFFCURVE",
"159 0 OFFCURVE",
"193 0 CURVE SMOOTH",
"442 0 LINE SMOOTH",
"594 0 OFFCURVE",
"721 122 OFFCURVE",
"721 280 CURVE SMOOTH",
"721 470 LINE SMOOTH",
"721 598 OFFCURVE",
"619 700 OFFCURVE",
"491 700 CURVE SMOOTH",
"131 700 LINE",
"131 389 LINE",
"65 389 LINE",
"65 327 LINE",
"131 327 LINE"
);
}
);
};
layerId = "CFC55C35-7F83-4FA6-AE88-8407B7D31CBE";
paths = (
{
closed = 1;
nodes = (
"424 0 LINE SMOOTH",
"580 0 OFFCURVE",
"672 100 OFFCURVE",
"672 270 CURVE SMOOTH",
"672 470 LINE SMOOTH",
"672 608 OFFCURVE",
"572 700 OFFCURVE",
"422 700 CURVE SMOOTH",
"123 700 LINE",
"123 65 LINE SMOOTH",
"123 24 OFFCURVE",
"147 0 OFFCURVE",
"188 0 CURVE SMOOTH"
);
},
{
closed = 1;
nodes = (
"197 634 LINE",
"422 634 LINE SMOOTH",
"528 634 OFFCURVE",
"598 568 OFFCURVE",
"598 470 CURVE SMOOTH",
"598 270 LINE SMOOTH",
"598 142 OFFCURVE",
"533 66 OFFCURVE",
"424 66 CURVE SMOOTH",
"197 66 LINE"
);
},
{
closed = 1;
nodes = (
"33 319 LINE",
"383 319 LINE",
"383 384 LINE",
"33 384 LINE"
);
}
);
width = 785;
},
{
background = {
paths = (
{
closed = 1;
nodes = (
"424 0 LINE SMOOTH",
"580 0 OFFCURVE",
"672 100 OFFCURVE",
"672 270 CURVE SMOOTH",
"672 470 LINE SMOOTH",
"672 608 OFFCURVE",
"572 700 OFFCURVE",
"422 700 CURVE SMOOTH",
"123 700 LINE",
"123 65 LINE SMOOTH",
"123 24 OFFCURVE",
"147 0 OFFCURVE",
"188 0 CURVE SMOOTH"
);
},
{
closed = 1;
nodes = (
"197 634 LINE",
"422 634 LINE SMOOTH",
"528 634 OFFCURVE",
"598 568 OFFCURVE",
"598 470 CURVE SMOOTH",
"598 270 LINE SMOOTH",
"598 142 OFFCURVE",
"533 66 OFFCURVE",
"424 66 CURVE SMOOTH",
"197 66 LINE"
);
},
{
closed = 1;
nodes = (
"33 319 LINE",
"383 319 LINE",
"383 384 LINE",
"33 384 LINE"
);
}
);
};
layerId = "EA06CE92-4115-4482-8874-2441C279E756";
paths = (
{
closed = 1;
nodes = (
"-37 294 LINE",
"397 294 LINE",
"397 414 LINE",
"-37 414 LINE"
);
},
{
closed = 1;
nodes = (
"376 0 LINE SMOOTH",
"552 0 OFFCURVE",
"656 111 OFFCURVE",
"656 298 CURVE SMOOTH",
"656 442 LINE SMOOTH",
"656 597 OFFCURVE",
"543 700 OFFCURVE",
"374 700 CURVE SMOOTH",
"43 700 LINE",
"43 93 LINE SMOOTH",
"43 37 OFFCURVE",
"81 0 OFFCURVE",
"140 0 CURVE SMOOTH"
);
},
{
closed = 1;
nodes = (
"181 578 LINE",
"374 578 LINE SMOOTH",
"460 578 OFFCURVE",
"518 524 OFFCURVE",
"518 442 CURVE SMOOTH",
"518 298 LINE SMOOTH",
"518 187 OFFCURVE",
"465 122 OFFCURVE",
"376 122 CURVE SMOOTH",
"181 122 LINE"
);
}
);
width = 785;
}
);
note = Dcroat;
rightKerningGroup = D;
unicode = 0110;
},
{
glyphname = Ecaron;
lastChange = "2018-02-05 09:51:27 +0000";
layers = (
{
background = {
paths = (
{
closed = 1;
nodes = (
"554 0 LINE",
"571 179 LINE",
"544 179 LINE",
"538 124 OFFCURVE",
"520 40 OFFCURVE",
"456 40 CURVE SMOOTH",
"201 40 LINE",
"201 659 LINE",
"441 659 LINE SMOOTH",
"516 659 OFFCURVE",
"525 567 OFFCURVE",
"528 527 CURVE",
"555 527 LINE",
"555 700 LINE",
"16 700 LINE",
"16 673 LINE",
"44 673 LINE SMOOTH",
"83 673 OFFCURVE",
"103 662 OFFCURVE",
"103 637 CURVE SMOOTH",
"103 62 LINE SMOOTH",
"103 37 OFFCURVE",
"83 26 OFFCURVE",
"44 26 CURVE SMOOTH",
"16 26 LINE",
"16 0 LINE"
);
},
{
closed = 1;
nodes = (
"455 251 LINE",
"455 485 LINE",
"431 485 LINE",
"427 436 OFFCURVE",
"424 388 OFFCURVE",
"379 388 CURVE SMOOTH",
"162 388 LINE",
"162 348 LINE",
"379 348 LINE SMOOTH",
"424 348 OFFCURVE",
"427 300 OFFCURVE",
"431 251 CURVE"
);
},
{
closed = 1;
nodes = (
"357 782 LINE",
"481 911 LINE",
"462 932 LINE",
"354 847 LINE",
"346 840 OFFCURVE",
"337 836 OFFCURVE",
"331 836 CURVE SMOOTH",
"325 836 OFFCURVE",
"317 840 OFFCURVE",
"307 847 CURVE",
"199 932 LINE",
"180 911 LINE",
"304 782 LINE"
);
}
);
};
components = (
{
name = E;
},
{
name = caroncomb;
transform = "{1, 0, 0, 1, 324, 230}";
}
);
layerId = "0B1DFD06-3317-40CA-B510-4969A0718C16";
width = 600;
},
{
background = {
paths = (
{
closed = 1;
nodes = (
"554 0 LINE",
"571 179 LINE",
"544 179 LINE",
"538 124 OFFCURVE",
"520 40 OFFCURVE",
"456 40 CURVE SMOOTH",
"201 40 LINE",
"201 659 LINE",
"441 659 LINE SMOOTH",
"516 659 OFFCURVE",
"525 567 OFFCURVE",
"528 527 CURVE",
"555 527 LINE",
"555 700 LINE",
"16 700 LINE",
"16 673 LINE",
"44 673 LINE SMOOTH",
"83 673 OFFCURVE",
"103 662 OFFCURVE",
"103 637 CURVE SMOOTH",
"103 62 LINE SMOOTH",
"103 37 OFFCURVE",
"83 26 OFFCURVE",
"44 26 CURVE SMOOTH",
"16 26 LINE",
"16 0 LINE"
);
},
{
closed = 1;
nodes = (
"455 251 LINE",
"455 485 LINE",
"431 485 LINE",
"427 436 OFFCURVE",
"424 388 OFFCURVE",
"379 388 CURVE SMOOTH",
"162 388 LINE",
"162 348 LINE",
"379 348 LINE SMOOTH",
"424 348 OFFCURVE",
"427 300 OFFCURVE",
"431 251 CURVE"
);
},
{
closed = 1;
nodes = (
"357 782 LINE",
"481 911 LINE",
"462 932 LINE",
"354 847 LINE",
"346 840 OFFCURVE",
"337 836 OFFCURVE",
"331 836 CURVE SMOOTH",
"325 836 OFFCURVE",
"317 840 OFFCURVE",
"307 847 CURVE",
"199 932 LINE",
"180 911 LINE",
"304 782 LINE"
);
}
);
};
components = (
{
name = E;
},
{
name = caroncomb;
transform = "{1, 0, 0, 1, 324, 230}";
}
);
layerId = "CFC55C35-7F83-4FA6-AE88-8407B7D31CBE";
width = 600;
},
{
components = (
{
name = E;
},
{
name = caroncomb;
transform = "{1, 0, 0, 1, 324, 230}";
}
);
layerId = "EA06CE92-4115-4482-8874-2441C279E756";
width = 600;
}
);
note = Ecaron;
unicode = 011A;
},
